# Blender 4.1.0
# www.blender.org
mtllib clock.mtl
o Cylinder.003
v -0.051056 0.959675 -0.008297
v -0.051056 0.959675 0.132883
v -0.091811 0.959663 0.062293
v 0.030454 0.959700 -0.008297
v 0.030454 0.959700 0.132883
v 0.071209 0.959712 0.062293
v -0.051056 0.959675 0.132883
v -0.091846 1.073789 0.062293
v -0.091811 0.959663 0.062293
v -0.051091 1.073802 0.132883
v 0.030454 0.959700 0.132883
v -0.051091 1.073802 0.132883
v -0.051056 0.959675 0.132883
v 0.030419 1.073827 0.132883
v -0.051091 1.073802 -0.008297
v -0.051091 1.073802 0.132883
v 0.030419 1.073827 -0.008297
v 0.030419 1.073827 0.132883
v 0.071175 1.073839 0.062293
v -0.091846 1.073789 0.062293
v 0.071209 0.959712 0.062293
v 0.030419 1.073827 0.132883
v 0.030454 0.959700 0.132883
v 0.071175 1.073839 0.062293
v 0.030454 0.959700 -0.008297
v 0.071175 1.073839 0.062293
v 0.071209 0.959712 0.062293
v 0.030419 1.073827 -0.008297
v -0.051056 0.959675 -0.008297
v 0.030419 1.073827 -0.008297
v 0.030454 0.959700 -0.008297
v -0.051091 1.073802 -0.008297
v -0.091811 0.959663 0.062293
v -0.051091 1.073802 -0.008297
v -0.051056 0.959675 -0.008297
v -0.091846 1.073789 0.062293
v -0.861302 0.111783 0.235152
v -0.792237 -0.367790 0.235152
v -0.792237 -0.367790 0.103396
v -0.861302 0.111783 0.103396
v 0.454930 -0.733677 0.235153
v 0.772138 -0.367428 0.103397
v 0.454930 -0.733677 0.103397
v 0.772138 -0.367428 0.235153
v 0.231938 0.814723 0.235152
v 0.639603 0.552866 0.103396
v 0.639603 0.552866 0.235153
v 0.231938 0.814723 0.103396
v -0.861302 0.111783 0.235152
v -0.660127 0.552565 0.103396
v -0.660127 0.552565 0.235152
v -0.861302 0.111783 0.103396
v -0.009933 -0.870290 0.235153
v 0.454930 -0.733677 0.235153
v 0.454930 -0.733677 0.103397
v -0.009933 -0.870290 0.103396
v -0.474859 -0.733892 0.235152
v -0.009933 -0.870290 0.235153
v -0.009933 -0.870290 0.103396
v -0.474859 -0.733892 0.103396
v 0.840982 0.112177 0.103397
v 0.639603 0.552866 0.235153
v 0.639603 0.552866 0.103396
v 0.840982 0.112177 0.235153
v -0.660127 0.552565 0.235152
v -0.252583 0.814611 0.103396
v -0.252583 0.814611 0.235152
v -0.660127 0.552565 0.103396
v -0.792237 -0.367790 0.235152
v -0.474859 -0.733892 0.235152
v -0.474859 -0.733892 0.103396
v -0.792237 -0.367790 0.103396
v 0.772138 -0.367428 0.235153
v 0.840982 0.112177 0.103397
v 0.772138 -0.367428 0.103397
v 0.840982 0.112177 0.235153
v -0.660127 0.552565 0.103396
v 0.231938 0.814723 0.103396
v -0.252583 0.814611 0.103396
v 0.639603 0.552866 0.103396
v 0.772138 -0.367428 0.103397
v -0.474859 -0.733892 0.103396
v 0.454930 -0.733677 0.103397
v -0.861302 0.111783 0.103396
v 0.840982 0.112177 0.103397
v -0.792237 -0.367790 0.103396
v -0.009933 -0.870290 0.103396
v 0.466621 -0.227988 -0.192037
v -0.486784 -0.228209 -0.192037
v 0.508578 0.064306 -0.192037
v -0.293358 -0.451329 -0.192037
v 0.273299 -0.451198 -0.192037
v -0.010011 -0.534456 -0.192037
v -0.528875 0.064066 -0.192037
v 0.385847 0.332883 -0.192037
v -0.406269 0.332700 -0.192037
v 0.137397 0.492471 -0.192037
v -0.157893 0.492403 -0.192037
v 0.530704 -0.851524 0.120384
v -0.009925 -0.907116 0.235153
v -0.009901 -1.010396 0.120384
v 0.474847 -0.764653 0.235153
v 0.530704 -0.851524 -0.099594
v -0.010011 -0.534456 -0.192037
v 0.273299 -0.451198 -0.192037
v -0.009901 -1.010396 -0.099594
v 0.474847 -0.764653 0.235153
v 0.899597 -0.425600 0.120384
v 0.805640 -0.382718 0.235153
v 0.530704 -0.851524 0.120384
v 0.899597 -0.425600 -0.099594
v 0.273299 -0.451198 -0.192037
v 0.466621 -0.227988 -0.192037
v 0.530704 -0.851524 -0.099594
v 0.805640 -0.382718 0.235153
v 0.979657 0.132148 0.120384
v 0.877432 0.117426 0.235153
v 0.899597 -0.425600 0.120384
v 0.979657 0.132148 -0.099594
v 0.899597 -0.425600 -0.099594
v 0.466621 -0.227988 -0.192037
v 0.508578 0.064306 -0.192037
v 0.979657 0.132148 0.120384
v 0.745467 0.644640 0.120384
v 0.667429 0.576989 0.235153
v 0.877432 0.117426 0.235153
v 0.385847 0.332883 -0.192037
v 0.979657 0.132148 -0.099594
v 0.508578 0.064306 -0.192037
v 0.745467 0.644640 -0.099594
v 0.745467 0.644640 0.120384
v 0.271379 0.949163 0.120383
v 0.242305 0.850060 0.235152
v 0.667429 0.576989 0.235153
v 0.745467 0.644640 -0.099594
v 0.137397 0.492471 -0.192037
v 0.271379 0.949163 -0.099595
v 0.385847 0.332883 -0.192037
v 0.271379 0.949163 0.120383
v -0.292086 0.949033 0.120383
v -0.262966 0.849943 0.235152
v 0.242305 0.850060 0.235152
v -0.157893 0.492403 -0.192037
v 0.271379 0.949163 -0.099595
v 0.137397 0.492471 -0.192037
v -0.292086 0.949033 -0.099595
v -0.766033 0.644291 0.120383
v -0.262966 0.849943 0.235152
v -0.292086 0.949033 0.120383
v -0.687964 0.576675 0.235152
v -0.766033 0.644291 -0.099595
v -0.292086 0.949033 -0.099595
v -0.157893 0.492403 -0.192037
v -0.406269 0.332700 -0.192037
v -0.687964 0.576675 0.235152
v -0.999986 0.131690 0.120383
v -0.897755 0.117016 0.235152
v -0.766033 0.644291 0.120383
v -0.999986 0.131690 -0.099595
v -0.766033 0.644291 -0.099595
v -0.406269 0.332700 -0.192037
v -0.528875 0.064066 -0.192037
v -0.999986 0.131690 0.120383
v -0.919668 -0.426021 0.120383
v -0.825731 -0.383096 0.235152
v -0.897755 0.117016 0.235152
v -0.486784 -0.228209 -0.192037
v -0.999986 0.131690 -0.099595
v -0.528875 0.064066 -0.192037
v -0.919668 -0.426021 -0.099595
v -0.919668 -0.426021 0.120383
v -0.494761 -0.764877 0.235152
v -0.825731 -0.383096 0.235152
v -0.550578 -0.851774 0.120383
v -0.293358 -0.451329 -0.192037
v -0.919668 -0.426021 -0.099595
v -0.486784 -0.228209 -0.192037
v -0.550578 -0.851774 -0.099595
v -0.009925 -0.907116 0.235153
v -0.550578 -0.851774 0.120383
v -0.009901 -1.010396 0.120384
v -0.494761 -0.764877 0.235152
v -0.550578 -0.851774 -0.099595
v -0.010011 -0.534456 -0.192037
v -0.009901 -1.010396 -0.099594
v -0.293358 -0.451329 -0.192037
v -0.009901 -1.010396 -0.099594
v -0.550578 -0.851774 0.120383
v -0.550578 -0.851774 -0.099595
v -0.009901 -1.010396 0.120384
v 0.231938 0.814723 0.235152
v -0.252583 0.814611 0.235152
v -0.252583 0.814611 0.103396
v 0.231938 0.814723 0.103396
v -0.919668 -0.426021 0.120383
v -0.550578 -0.851774 -0.099595
v -0.550578 -0.851774 0.120383
v -0.919668 -0.426021 -0.099595
v 0.899597 -0.425600 -0.099594
v 0.530704 -0.851524 0.120384
v 0.530704 -0.851524 -0.099594
v 0.899597 -0.425600 0.120384
v 0.979657 0.132148 -0.099594
v 0.899597 -0.425600 0.120384
v 0.899597 -0.425600 -0.099594
v 0.979657 0.132148 0.120384
v 0.979657 0.132148 -0.099594
v 0.745467 0.644640 0.120384
v 0.979657 0.132148 0.120384
v 0.745467 0.644640 -0.099594
v 0.745467 0.644640 -0.099594
v 0.271379 0.949163 0.120383
v 0.745467 0.644640 0.120384
v 0.271379 0.949163 -0.099595
v 0.271379 0.949163 -0.099595
v -0.292086 0.949033 0.120383
v 0.271379 0.949163 0.120383
v -0.292086 0.949033 -0.099595
v -0.292086 0.949033 -0.099595
v -0.766033 0.644291 0.120383
v -0.292086 0.949033 0.120383
v -0.766033 0.644291 -0.099595
v -0.999986 0.131690 0.120383
v -0.766033 0.644291 -0.099595
v -0.999986 0.131690 -0.099595
v -0.766033 0.644291 0.120383
v -0.999986 0.131690 0.120383
v -0.919668 -0.426021 -0.099595
v -0.919668 -0.426021 0.120383
v -0.999986 0.131690 -0.099595
v 0.530704 -0.851524 -0.099594
v -0.009901 -1.010396 0.120384
v -0.009901 -1.010396 -0.099594
v 0.530704 -0.851524 0.120384
v -0.792237 -0.367790 0.235152
v -0.861302 0.111783 0.235152
v -0.897755 0.117016 0.235152
v -0.660127 0.552565 0.235152
v -0.687964 0.576675 0.235152
v -0.825731 -0.383096 0.235152
v 0.772138 -0.367428 0.235153
v 0.877432 0.117426 0.235153
v 0.840982 0.112177 0.235153
v 0.639603 0.552866 0.235153
v 0.667429 0.576989 0.235153
v 0.805640 -0.382718 0.235153
v -0.687964 0.576675 0.235152
v -0.252583 0.814611 0.235152
v -0.262966 0.849943 0.235152
v -0.660127 0.552565 0.235152
v 0.474847 -0.764653 0.235153
v -0.009933 -0.870290 0.235153
v -0.009925 -0.907116 0.235153
v 0.454930 -0.733677 0.235153
v -0.009933 -0.870290 0.235153
v -0.494761 -0.764877 0.235152
v -0.009925 -0.907116 0.235153
v -0.474859 -0.733892 0.235152
v 0.454930 -0.733677 0.235153
v 0.805640 -0.382718 0.235153
v 0.772138 -0.367428 0.235153
v 0.474847 -0.764653 0.235153
v 0.242305 0.850060 0.235152
v -0.262966 0.849943 0.235152
v -0.252583 0.814611 0.235152
v 0.231938 0.814723 0.235152
v -0.825731 -0.383096 0.235152
v -0.474859 -0.733892 0.235152
v -0.792237 -0.367790 0.235152
v -0.494761 -0.764877 0.235152
v 0.667429 0.576989 0.235153
v 0.242305 0.850060 0.235152
v 0.231938 0.814723 0.235152
v 0.639603 0.552866 0.235153
v -0.095222 -0.059549 0.079304
v 0.074981 -0.059509 0.079304
v -0.010109 -0.108663 0.079304
v 0.074959 0.038758 0.079304
v -0.095245 0.038718 0.079304
v -0.010154 0.087871 0.079304
v 0.074981 -0.059509 0.079304
v -0.010109 -0.108662 0.155583
v -0.010109 -0.108663 0.079304
v 0.074981 -0.059509 0.155583
v 0.074959 0.038758 0.079304
v 0.074981 -0.059509 0.155583
v 0.074981 -0.059509 0.079304
v 0.074959 0.038758 0.155583
v -0.095245 0.038718 0.155583
v 0.074959 0.038758 0.155583
v -0.010154 0.087871 0.155583
v -0.095222 -0.059549 0.155583
v 0.074981 -0.059509 0.155583
v -0.010109 -0.108662 0.155583
v 0.074959 0.038758 0.079304
v -0.010154 0.087871 0.155583
v 0.074959 0.038758 0.155583
v -0.010154 0.087871 0.079304
v -0.010154 0.087871 0.079304
v -0.095245 0.038718 0.155583
v -0.010154 0.087871 0.155583
v -0.095245 0.038718 0.079304
v -0.095245 0.038718 0.155583
v -0.095222 -0.059549 0.079304
v -0.095222 -0.059549 0.155583
v -0.095245 0.038718 0.079304
v -0.010109 -0.108663 0.079304
v -0.095222 -0.059549 0.155583
v -0.095222 -0.059549 0.079304
v -0.010109 -0.108662 0.155583
v 0.416175 -0.769420 0.083117
v 0.228036 -0.611216 0.083117
v 0.326704 -0.813140 0.083117
v 0.317507 -0.567496 0.083117
v 0.326704 -0.813140 0.124455
v 0.228036 -0.611216 0.124455
v 0.416175 -0.769420 0.124455
v 0.317507 -0.567496 0.124455
v 0.416175 -0.769420 0.083117
v 0.326704 -0.813140 0.124455
v 0.416175 -0.769420 0.124455
v 0.326704 -0.813140 0.083117
v 0.317507 -0.567496 0.124455
v 0.416175 -0.769420 0.083117
v 0.416175 -0.769420 0.124455
v 0.317507 -0.567496 0.083117
v 0.317507 -0.567496 0.083117
v 0.228036 -0.611216 0.124455
v 0.228036 -0.611216 0.083117
v 0.317507 -0.567496 0.124455
v 0.326704 -0.813140 0.083117
v 0.228036 -0.611216 0.124455
v 0.326704 -0.813140 0.124455
v 0.228036 -0.611216 0.083117
v 0.741358 -0.449850 0.083117
v 0.499055 -0.408437 0.083117
v 0.554159 -0.325490 0.083117
v 0.686254 -0.532797 0.083117
v 0.499055 -0.408437 0.124455
v 0.741358 -0.449850 0.124455
v 0.554159 -0.325490 0.124455
v 0.686254 -0.532797 0.124455
v 0.686254 -0.532797 0.124455
v 0.741358 -0.449850 0.083117
v 0.741358 -0.449850 0.124455
v 0.686254 -0.532797 0.083117
v 0.554159 -0.325490 0.124455
v 0.741358 -0.449850 0.124455
v 0.741358 -0.449850 0.083117
v 0.554159 -0.325490 0.083117
v 0.499055 -0.408437 0.124455
v 0.554159 -0.325490 0.083117
v 0.499055 -0.408437 0.083117
v 0.554159 -0.325490 0.124455
v 0.499055 -0.408437 0.124455
v 0.686254 -0.532797 0.083117
v 0.686254 -0.532797 0.124455
v 0.499055 -0.408437 0.083117
v 0.630413 -0.096481 0.083117
v 0.860418 -0.009744 0.083117
v 0.854797 -0.109167 0.083117
v 0.636034 0.002942 0.083117
v 0.860418 -0.009744 0.124455
v 0.630413 -0.096481 0.124455
v 0.854797 -0.109167 0.124455
v 0.636034 0.002942 0.124455
v 0.860418 -0.009744 0.124455
v 0.854797 -0.109167 0.124455
v 0.854797 -0.109167 0.083117
v 0.860418 -0.009744 0.083117
v 0.636034 0.002942 0.124455
v 0.860418 -0.009744 0.124455
v 0.860418 -0.009744 0.083117
v 0.636034 0.002942 0.083117
v 0.630413 -0.096481 0.124455
v 0.636034 0.002942 0.083117
v 0.630413 -0.096481 0.083117
v 0.636034 0.002942 0.124455
v 0.630413 -0.096481 0.124455
v 0.854797 -0.109167 0.083117
v 0.854797 -0.109167 0.124455
v 0.630413 -0.096481 0.083117
v 0.540676 0.327715 0.083117
v 0.740700 0.430183 0.083117
v 0.786102 0.341554 0.083117
v 0.586079 0.239086 0.083117
v 0.540676 0.327715 0.124455
v 0.786102 0.341554 0.124455
v 0.740700 0.430183 0.124455
v 0.586079 0.239086 0.124455
v 0.740700 0.430183 0.124455
v 0.786102 0.341554 0.124455
v 0.786102 0.341554 0.083117
v 0.740700 0.430183 0.083117
v 0.540676 0.327715 0.124455
v 0.740700 0.430183 0.124455
v 0.740700 0.430183 0.083117
v 0.540676 0.327715 0.083117
v 0.586079 0.239086 0.083117
v 0.540676 0.327715 0.124455
v 0.540676 0.327715 0.083117
v 0.586079 0.239086 0.124455
v 0.586079 0.239086 0.124455
v 0.786102 0.341554 0.083117
v 0.786102 0.341554 0.124455
v 0.586079 0.239086 0.083117
v 0.294240 0.559750 0.083117
v 0.415040 0.749266 0.083117
v 0.499013 0.695741 0.083117
v 0.378214 0.506225 0.083117
v 0.294240 0.559750 0.124455
v 0.499013 0.695741 0.124455
v 0.415040 0.749266 0.124455
v 0.378214 0.506225 0.124455
v 0.415040 0.749266 0.124455
v 0.499013 0.695741 0.124455
v 0.499013 0.695741 0.083117
v 0.415040 0.749266 0.083117
v 0.294240 0.559750 0.124455
v 0.415040 0.749266 0.083117
v 0.294240 0.559750 0.083117
v 0.415040 0.749266 0.124455
v 0.294240 0.559750 0.124455
v 0.378214 0.506225 0.083117
v 0.378214 0.506225 0.124455
v 0.294240 0.559750 0.083117
v 0.378214 0.506225 0.124455
v 0.499013 0.695741 0.083117
v 0.499013 0.695741 0.124455
v 0.378214 0.506225 0.083117
v -0.035680 0.635403 0.083117
v 0.072274 0.856245 0.083117
v 0.063831 0.631662 0.083117
v -0.027238 0.859986 0.083117
v -0.035680 0.635403 0.124455
v 0.072274 0.856245 0.124455
v -0.027238 0.859986 0.124455
v 0.063831 0.631662 0.124455
v -0.027238 0.859986 0.124455
v 0.072274 0.856245 0.124455
v 0.072274 0.856245 0.083117
v -0.027238 0.859986 0.083117
v -0.035680 0.635403 0.124455
v -0.027238 0.859986 0.083117
v -0.035680 0.635403 0.083117
v -0.027238 0.859986 0.124455
v 0.063831 0.631662 0.124455
v -0.035680 0.635403 0.124455
v -0.035680 0.635403 0.083117
v 0.063831 0.631662 0.083117
v 0.063831 0.631662 0.124455
v 0.072274 0.856245 0.083117
v 0.072274 0.856245 0.124455
v 0.063831 0.631662 0.083117
v -0.270838 0.580993 0.083117
v -0.464824 0.731974 0.083116
v -0.377069 0.779044 0.083116
v -0.358594 0.533923 0.083117
v -0.464824 0.731974 0.124454
v -0.358594 0.533923 0.124455
v -0.270838 0.580993 0.124455
v -0.377069 0.779044 0.124454
v -0.464824 0.731974 0.124454
v -0.377069 0.779044 0.124454
v -0.377069 0.779044 0.083116
v -0.464824 0.731974 0.083116
v -0.358594 0.533923 0.083117
v -0.464824 0.731974 0.124454
v -0.464824 0.731974 0.083116
v -0.358594 0.533923 0.124455
v -0.358594 0.533923 0.124455
v -0.270838 0.580993 0.083117
v -0.270838 0.580993 0.124455
v -0.358594 0.533923 0.083117
v -0.377069 0.779044 0.124454
v -0.270838 0.580993 0.124455
v -0.270838 0.580993 0.083117
v -0.377069 0.779044 0.083116
v -0.534000 0.368115 0.083117
v -0.777695 0.400341 0.083116
v -0.725766 0.485311 0.083116
v -0.585929 0.283145 0.083117
v -0.534000 0.368115 0.124455
v -0.725766 0.485311 0.124454
v -0.777695 0.400341 0.124454
v -0.585929 0.283145 0.124455
v -0.777695 0.400341 0.124454
v -0.725766 0.485311 0.083116
v -0.777695 0.400341 0.083116
v -0.725766 0.485311 0.124454
v -0.777695 0.400341 0.124454
v -0.585929 0.283145 0.083117
v -0.585929 0.283145 0.124455
v -0.777695 0.400341 0.083116
v -0.585929 0.283145 0.124455
v -0.534000 0.368115 0.083117
v -0.534000 0.368115 0.124455
v -0.585929 0.283145 0.083117
v -0.725766 0.485311 0.124454
v -0.534000 0.368115 0.124455
v -0.534000 0.368115 0.083117
v -0.725766 0.485311 0.083116
v -0.880035 -0.043951 0.083116
v -0.653473 0.051418 0.083117
v -0.655332 -0.048147 0.083117
v -0.878176 0.055614 0.083116
v -0.653473 0.051418 0.124455
v -0.880035 -0.043951 0.124455
v -0.655332 -0.048147 0.124455
v -0.878176 0.055614 0.124454
v -0.880035 -0.043951 0.124455
v -0.878176 0.055614 0.083116
v -0.880035 -0.043951 0.083116
v -0.878176 0.055614 0.124454
v -0.880035 -0.043951 0.124455
v -0.655332 -0.048147 0.083117
v -0.655332 -0.048147 0.124455
v -0.880035 -0.043951 0.083116
v -0.653473 0.051418 0.124455
v -0.655332 -0.048147 0.124455
v -0.655332 -0.048147 0.083117
v -0.653473 0.051418 0.083117
v -0.878176 0.055614 0.124454
v -0.653473 0.051418 0.124455
v -0.653473 0.051418 0.083117
v -0.878176 0.055614 0.083116
v -0.547767 -0.369084 0.083117
v -0.792494 -0.392189 0.083117
v -0.596487 -0.282235 0.083117
v -0.743774 -0.479039 0.083117
v -0.792494 -0.392189 0.124455
v -0.547767 -0.369084 0.124455
v -0.596487 -0.282235 0.124455
v -0.743774 -0.479039 0.124455
v -0.743774 -0.479039 0.124455
v -0.792494 -0.392189 0.083117
v -0.743774 -0.479039 0.083117
v -0.792494 -0.392189 0.124455
v -0.743774 -0.479039 0.124455
v -0.547767 -0.369084 0.083117
v -0.547767 -0.369084 0.124455
v -0.743774 -0.479039 0.083117
v -0.596487 -0.282235 0.124455
v -0.547767 -0.369084 0.124455
v -0.547767 -0.369084 0.083117
v -0.596487 -0.282235 0.083117
v -0.792494 -0.392189 0.124455
v -0.596487 -0.282235 0.124455
v -0.596487 -0.282235 0.083117
v -0.792494 -0.392189 0.083117
v -0.292737 -0.591639 0.083117
v -0.492223 -0.735272 0.083117
v -0.378673 -0.541325 0.083117
v -0.406287 -0.785585 0.083117
v -0.492223 -0.735272 0.124455
v -0.292737 -0.591639 0.124455
v -0.378673 -0.541325 0.124455
v -0.406287 -0.785585 0.124455
v -0.492223 -0.735272 0.124455
v -0.406287 -0.785585 0.083117
v -0.406287 -0.785585 0.124455
v -0.492223 -0.735272 0.083117
v -0.406287 -0.785585 0.124455
v -0.292737 -0.591639 0.083117
v -0.292737 -0.591639 0.124455
v -0.406287 -0.785585 0.083117
v -0.378673 -0.541325 0.124455
v -0.292737 -0.591639 0.124455
v -0.292737 -0.591639 0.083117
v -0.378673 -0.541325 0.083117
v -0.492223 -0.735272 0.124455
v -0.378673 -0.541325 0.083117
v -0.492223 -0.735272 0.083117
v -0.378673 -0.541325 0.124455
v 0.039808 -0.654767 0.083117
v 0.039860 -0.879509 0.083117
v -0.059722 -0.879532 0.083117
v -0.059774 -0.654791 0.083117
v -0.059722 -0.879532 0.124455
v 0.039808 -0.654767 0.124455
v -0.059774 -0.654791 0.124455
v 0.039860 -0.879509 0.124455
v -0.059722 -0.879532 0.124455
v 0.039860 -0.879509 0.083117
v 0.039860 -0.879509 0.124455
v -0.059722 -0.879532 0.083117
v 0.039808 -0.654767 0.124455
v 0.039860 -0.879509 0.124455
v 0.039860 -0.879509 0.083117
v 0.039808 -0.654767 0.083117
v -0.059774 -0.654791 0.124455
v 0.039808 -0.654767 0.124455
v 0.039808 -0.654767 0.083117
v -0.059774 -0.654791 0.083117
v -0.059722 -0.879532 0.124455
v -0.059774 -0.654791 0.083117
v -0.059722 -0.879532 0.083117
v -0.059774 -0.654791 0.124455
v 0.195080 0.071016 0.140071
v -0.021461 0.033223 0.186082
v 0.195080 0.071016 0.186082
v -0.021461 0.033223 0.140071
v 0.595864 -0.188254 0.140072
v 0.129262 -0.152371 0.186082
v 0.129262 -0.152371 0.140072
v 0.595864 -0.188254 0.186082
v 0.606597 -0.151827 0.140072
v 0.129262 -0.152371 0.140072
v 0.195080 0.071016 0.140071
v 0.595864 -0.188254 0.140072
v 0.129262 -0.152371 0.186082
v 0.606597 -0.151827 0.186082
v 0.195080 0.071016 0.186082
v 0.595864 -0.188254 0.186082
v -0.032194 -0.003205 0.186082
v 0.195080 0.071016 0.186082
v -0.021461 0.033223 0.186082
v 0.129262 -0.152371 0.186082
v 0.195080 0.071016 0.140071
v -0.032194 -0.003205 0.140071
v -0.021461 0.033223 0.140071
v 0.129262 -0.152371 0.140072
v -0.021461 0.033223 0.186082
v -0.021461 0.033223 0.140071
v -0.032194 -0.003205 0.140071
v -0.032194 -0.003205 0.186082
v -0.032194 -0.003205 0.186082
v 0.129262 -0.152371 0.140072
v 0.129262 -0.152371 0.186082
v -0.032194 -0.003205 0.140071
v 0.606597 -0.151827 0.140072
v 0.595864 -0.188254 0.186082
v 0.595864 -0.188254 0.140072
v 0.606597 -0.151827 0.186082
v 0.606597 -0.151827 0.140072
v 0.195080 0.071016 0.186082
v 0.606597 -0.151827 0.186082
v 0.195080 0.071016 0.140071
v -0.048467 -0.032540 0.143860
v 0.028203 0.011749 0.143860
v 0.028213 -0.032522 0.143860
v -0.010121 -0.054667 0.143860
v -0.048477 0.011731 0.143860
v -0.010142 0.033876 0.143860
v -0.010121 -0.054667 0.143860
v 0.028213 -0.032522 0.205847
v -0.010121 -0.054667 0.205847
v 0.028213 -0.032522 0.143860
v 0.028203 0.011749 0.143860
v 0.028213 -0.032522 0.205847
v 0.028213 -0.032522 0.143860
v 0.028203 0.011749 0.205847
v -0.048477 0.011731 0.205847
v 0.028203 0.011749 0.205847
v -0.010142 0.033876 0.205847
v -0.048467 -0.032540 0.205847
v 0.028213 -0.032522 0.205847
v -0.010121 -0.054667 0.205847
v -0.010142 0.033876 0.143860
v 0.028203 0.011749 0.205847
v 0.028203 0.011749 0.143860
v -0.010142 0.033876 0.205847
v -0.048477 0.011731 0.143860
v -0.010142 0.033876 0.205847
v -0.010142 0.033876 0.143860
v -0.048477 0.011731 0.205847
v -0.048477 0.011731 0.205847
v -0.048467 -0.032540 0.143860
v -0.048467 -0.032540 0.205847
v -0.048477 0.011731 0.143860
v -0.048467 -0.032540 0.143860
v -0.010121 -0.054667 0.205847
v -0.048467 -0.032540 0.205847
v -0.010121 -0.054667 0.143860
v 0.021120 0.003339 0.140071
v 0.047915 -0.140215 0.186082
v 0.047915 -0.140215 0.140071
v 0.021120 0.003339 0.186082
v -0.151097 -0.019268 0.186082
v -0.246046 -0.363146 0.140071
v -0.246046 -0.363146 0.186082
v -0.151097 -0.019268 0.140071
v 0.047915 -0.140215 0.140071
v -0.246046 -0.363146 0.140071
v -0.151097 -0.019268 0.140071
v -0.213593 -0.382869 0.140071
v -0.246046 -0.363146 0.186082
v 0.047915 -0.140215 0.186082
v -0.151097 -0.019268 0.186082
v -0.213593 -0.382869 0.186082
v -0.151097 -0.019268 0.186082
v 0.021120 0.003339 0.186082
v -0.011333 0.023062 0.186082
v 0.047915 -0.140215 0.186082
v 0.021120 0.003339 0.140071
v -0.151097 -0.019268 0.140071
v -0.011333 0.023062 0.140071
v 0.047915 -0.140215 0.140071
v -0.011333 0.023062 0.140071
v 0.021120 0.003339 0.186082
v 0.021120 0.003339 0.140071
v -0.011333 0.023062 0.186082
v -0.011333 0.023062 0.140071
v -0.151097 -0.019268 0.186082
v -0.011333 0.023062 0.186082
v -0.151097 -0.019268 0.140071
v -0.213593 -0.382869 0.140071
v -0.246046 -0.363146 0.186082
v -0.246046 -0.363146 0.140071
v -0.213593 -0.382869 0.186082
v 0.047915 -0.140215 0.140071
v -0.213593 -0.382869 0.186082
v -0.213593 -0.382869 0.140071
v 0.047915 -0.140215 0.186082
v -0.174627 0.865735 0.053434
v 0.154057 0.865835 0.053434
v -0.092456 0.865760 0.195758
v 0.071886 0.865810 0.195758
v -0.092456 0.865760 -0.088890
v 0.071886 0.865810 -0.088890
v -0.092456 0.865760 0.195758
v -0.174666 0.993303 0.053434
v -0.174627 0.865735 0.053434
v -0.092495 0.993328 0.195758
v 0.071886 0.865810 0.195758
v -0.092495 0.993328 0.195758
v -0.092456 0.865760 0.195758
v 0.071847 0.993378 0.195758
v -0.092495 0.993328 -0.088890
v 0.154018 0.993403 0.053434
v 0.071847 0.993378 -0.088890
v -0.174666 0.993303 0.053434
v -0.092495 0.993328 0.195758
v 0.071847 0.993378 0.195758
v 0.154057 0.865835 0.053434
v 0.071847 0.993378 0.195758
v 0.071886 0.865810 0.195758
v 0.154018 0.993403 0.053434
v 0.071886 0.865810 -0.088890
v 0.154018 0.993403 0.053434
v 0.154057 0.865835 0.053434
v 0.071847 0.993378 -0.088890
v -0.092456 0.865760 -0.088890
v 0.071847 0.993378 -0.088890
v 0.071886 0.865810 -0.088890
v -0.092495 0.993328 -0.088890
v -0.174627 0.865735 0.053434
v -0.092495 0.993328 -0.088890
v -0.092456 0.865760 -0.088890
v -0.174666 0.993303 0.053434
vn 0.0003 -1.0000 -0.0000
vn -0.8660 -0.0003 0.5000
vn -0.0000 -0.0000 1.0000
vn -0.0003 1.0000 -0.0000
vn 0.8660 0.0003 0.5000
vn 0.8660 0.0003 -0.5000
vn -0.0000 -0.0000 -1.0000
vn -0.8660 -0.0003 -0.5000
vn 0.9898 0.1425 -0.0000
vn -0.7559 0.6547 -0.0000
vn -0.5404 -0.8414 -0.0000
vn 0.9097 -0.4152 -0.0000
vn -0.2820 0.9594 -0.0000
vn 0.2815 0.9596 -0.0000
vn -0.9095 -0.4156 -0.0000
vn 0.5408 -0.8411 -0.0000
vn 0.7556 0.6550 -0.0000
vn -0.9899 0.1421 -0.0000
vn 0.2134 -0.7262 0.6535
vn 0.0559 -0.1904 -0.9801
vn 0.5721 -0.4955 0.6535
vn 0.1500 -0.1299 -0.9801
vn 0.7492 -0.1075 0.6535
vn 0.1964 -0.0282 -0.9801
vn 0.6884 0.3146 0.6535
vn 0.1805 0.0825 -0.9801
vn 0.4091 0.6368 0.6535
vn 0.1072 0.1669 -0.9801
vn -0.0002 0.7569 0.6535
vn -0.0000 0.1984 -0.9801
vn -0.4094 0.6366 0.6535
vn -0.1073 0.1669 -0.9801
vn -0.6886 0.3143 0.6535
vn -0.1805 0.0824 -0.9801
vn -0.7492 -0.1079 0.6535
vn -0.1964 -0.0283 -0.9801
vn -0.5719 -0.4958 0.6535
vn -0.1499 -0.1300 -0.9801
vn -0.2131 -0.7263 0.6535
vn -0.0559 -0.1904 -0.9801
vn -0.2815 -0.9596 -0.0000
vn 0.0002 -1.0000 -0.0000
vn -0.7556 -0.6550 -0.0000
vn 0.7559 -0.6547 -0.0000
vn 0.9899 -0.1421 -0.0000
vn 0.9095 0.4156 -0.0000
vn 0.5404 0.8414 -0.0000
vn -0.0002 1.0000 -0.0000
vn -0.5408 0.8411 -0.0000
vn -0.9097 0.4152 -0.0000
vn -0.9898 -0.1425 -0.0000
vn 0.2820 -0.9594 -0.0000
vn 0.5002 -0.8659 -0.0000
vn 1.0000 0.0002 -0.0000
vn 0.4998 0.8661 -0.0000
vn -0.5002 0.8659 -0.0000
vn -1.0000 -0.0002 -0.0000
vn -0.4998 -0.8661 -0.0000
vn -0.4390 0.8985 -0.0000
vn -0.8985 -0.4390 -0.0000
vn 0.4390 -0.8985 -0.0000
vn 0.8985 0.4390 -0.0000
vn 0.8330 -0.5533 -0.0000
vn 0.5533 0.8330 -0.0000
vn -0.8330 0.5533 -0.0000
vn -0.5533 -0.8330 -0.0000
vn 0.9984 -0.0564 -0.0000
vn 0.0564 0.9984 -0.0000
vn -0.9984 0.0564 -0.0000
vn -0.0564 -0.9984 -0.0000
vn 0.8900 0.4559 -0.0000
vn -0.4559 0.8900 -0.0000
vn -0.8900 -0.4559 -0.0000
vn 0.4559 -0.8900 -0.0000
vn 0.5375 0.8433 -0.0000
vn -0.8433 0.5375 -0.0000
vn -0.5375 -0.8433 -0.0000
vn 0.8433 -0.5375 -0.0000
vn 0.0376 0.9993 -0.0000
vn -0.9993 0.0376 -0.0000
vn -0.0376 -0.9993 -0.0000
vn 0.9993 -0.0376 -0.0000
vn -0.4727 0.8812 -0.0000
vn -0.8812 -0.4727 -0.0000
vn 0.4727 -0.8812 -0.0000
vn 0.8812 0.4727 -0.0000
vn -0.8533 0.5215 -0.0000
vn -0.5215 -0.8533 -0.0000
vn 0.8533 -0.5215 -0.0000
vn 0.5215 0.8533 -0.0000
vn -0.9998 0.0187 -0.0000
vn -0.0187 -0.9998 -0.0000
vn 0.9998 -0.0187 -0.0000
vn 0.0187 0.9998 -0.0000
vn -0.8721 -0.4892 -0.0000
vn 0.4892 -0.8721 -0.0000
vn 0.8721 0.4892 -0.0000
vn -0.4892 0.8721 -0.0000
vn -0.5052 -0.8630 -0.0000
vn 0.8630 -0.5052 -0.0000
vn 0.5052 0.8630 -0.0000
vn -0.8630 0.5052 -0.0000
vn -0.1719 0.9851 -0.0000
vn -0.0767 -0.9971 -0.0000
vn -0.9592 0.2826 -0.0000
vn -0.6786 -0.7345 -0.0000
vn 0.9592 -0.2826 -0.0000
vn 0.4762 0.8793 -0.0000
vn 0.9830 0.1835 -0.0000
vn -0.9639 0.2662 -0.0000
vn 0.5193 0.8546 -0.0000
vn -0.2899 0.9571 -0.0000
vn -0.5193 -0.8546 -0.0000
vn 0.6802 -0.7330 -0.0000
vt 0.484313 0.146007
vt 0.421578 0.037346
vt 0.421578 0.109786
vt 0.547049 0.109786
vt 0.484313 0.001125
vt 0.547049 0.037346
vt 0.051431 0.307463
vt 0.001125 0.458381
vt 0.001125 0.307463
vt 0.051431 0.458381
vt 0.103988 0.307463
vt 0.053682 0.458381
vt 0.053682 0.307463
vt 0.103988 0.458381
vt 0.547049 0.190514
vt 0.484313 0.299176
vt 0.484313 0.154294
vt 0.421578 0.262955
vt 0.421578 0.190514
vt 0.547049 0.262955
vt 0.051431 0.001125
vt 0.001125 0.152044
vt 0.001125 0.001125
vt 0.051431 0.152044
vt 0.103988 0.001125
vt 0.053682 0.152044
vt 0.053682 0.001125
vt 0.103988 0.152044
vt 0.156544 0.001125
vt 0.106238 0.152044
vt 0.106238 0.001125
vt 0.156544 0.152044
vt 0.209101 0.001125
vt 0.158795 0.152044
vt 0.158795 0.001125
vt 0.209101 0.152044
vt 0.608679 0.543346
vt 0.608679 0.564737
vt 0.624432 0.564737
vt 0.624432 0.543346
vt 0.619931 0.543346
vt 0.619931 0.564737
vt 0.416231 0.482023
vt 0.416231 0.460632
vt 0.610930 0.564737
vt 0.610930 0.543346
vt 0.413980 0.460632
vt 0.413980 0.482023
vt 0.418481 0.505664
vt 0.418481 0.484273
vt 0.615431 0.564737
vt 0.615431 0.543346
vt 0.413980 0.507915
vt 0.413980 0.529306
vt 0.416231 0.529306
vt 0.416231 0.507915
vt 0.219369 0.927488
vt 0.178737 0.921647
vt 0.199911 0.918602
vt 0.162571 0.935655
vt 0.162571 0.976704
vt 0.219369 0.984870
vt 0.178737 0.990712
vt 0.230933 0.945484
vt 0.156544 0.956179
vt 0.230933 0.966875
vt 0.199911 0.993756
vt 0.245819 0.927489
vt 0.265277 0.993756
vt 0.265277 0.918602
vt 0.245819 0.984870
vt 0.234254 0.945484
vt 0.234254 0.966875
vt 0.286450 0.990712
vt 0.286450 0.921647
vt 0.302617 0.976704
vt 0.302617 0.935655
vt 0.308643 0.956179
vt 0.853677 0.078835
vt 0.886758 0.109939
vt 0.853677 0.119653
vt 0.886758 0.088548
vt 0.677021 0.078835
vt 0.710102 0.109939
vt 0.710102 0.088548
vt 0.677021 0.119653
vt 0.970928 0.919879
vt 0.937847 0.888774
vt 0.970928 0.898488
vt 0.937847 0.929592
vt 0.584631 0.958057
vt 0.617711 0.989162
vt 0.617711 0.967771
vt 0.584631 0.998875
vt 0.970928 0.876811
vt 0.937847 0.845706
vt 0.970928 0.855420
vt 0.937847 0.886524
vt 0.310893 0.918602
vt 0.310893 0.959420
vt 0.343974 0.949707
vt 0.343974 0.928316
vt 0.499287 0.918742
vt 0.499287 0.877924
vt 0.532368 0.887638
vt 0.532368 0.909029
vt 0.816096 0.088548
vt 0.783015 0.119653
vt 0.816096 0.109939
vt 0.783015 0.078835
vt 0.959671 0.119653
vt 0.959671 0.078835
vt 0.992752 0.088548
vt 0.992752 0.109939
vt 0.747683 0.119653
vt 0.780764 0.088548
vt 0.747683 0.078835
vt 0.780764 0.109939
vt 0.922090 0.078835
vt 0.922090 0.119653
vt 0.889009 0.109939
vt 0.889009 0.088548
vt 0.532368 0.930706
vt 0.499287 0.961810
vt 0.532368 0.952097
vt 0.499287 0.920993
vt 0.970928 0.843456
vt 0.937847 0.812351
vt 0.970928 0.802638
vt 0.937847 0.833742
vt 0.970928 0.972661
vt 0.970928 0.931843
vt 0.937847 0.941556
vt 0.937847 0.962947
vt 0.384290 0.554596
vt 0.417371 0.585700
vt 0.384290 0.575987
vt 0.417371 0.544882
vt 0.851427 0.119653
vt 0.851427 0.078835
vt 0.818346 0.088548
vt 0.818346 0.109939
vt 0.379306 0.918602
vt 0.379306 0.959420
vt 0.346225 0.949707
vt 0.346225 0.928316
vt 0.924340 0.109939
vt 0.957421 0.078835
vt 0.924340 0.088548
vt 0.957421 0.119653
vt 0.414637 0.918602
vt 0.381556 0.949707
vt 0.381556 0.928316
vt 0.414637 0.959420
vt 0.549299 0.989161
vt 0.582380 0.958057
vt 0.549299 0.967770
vt 0.582380 0.998875
vt 0.499287 0.865960
vt 0.532368 0.834856
vt 0.532368 0.875674
vt 0.499287 0.844569
vt 0.745433 0.078835
vt 0.712352 0.109939
vt 0.745433 0.119653
vt 0.712352 0.088548
vt 0.411730 0.460632
vt 0.384290 0.542632
vt 0.384290 0.460632
vt 0.411730 0.542632
vt 0.413980 0.484273
vt 0.413980 0.505664
vt 0.549299 0.230257
vt 0.576739 0.148257
vt 0.576739 0.230257
vt 0.549299 0.148257
vt 0.576739 0.485259
vt 0.549299 0.567259
vt 0.549299 0.485259
vt 0.576739 0.567259
vt 0.606429 0.148257
vt 0.578989 0.230257
vt 0.578989 0.148257
vt 0.606429 0.230257
vt 0.578989 0.232508
vt 0.606429 0.314508
vt 0.578989 0.314508
vt 0.606429 0.232508
vt 0.578989 0.316758
vt 0.606429 0.398758
vt 0.578989 0.398758
vt 0.606429 0.316758
vt 0.578989 0.401008
vt 0.606429 0.483008
vt 0.578989 0.483008
vt 0.606429 0.401008
vt 0.549299 0.232508
vt 0.576739 0.314508
vt 0.549299 0.314508
vt 0.576739 0.232508
vt 0.576739 0.398758
vt 0.549299 0.316758
vt 0.576739 0.316758
vt 0.549299 0.398758
vt 0.549299 0.483008
vt 0.576739 0.401008
vt 0.576739 0.483008
vt 0.549299 0.401008
vt 0.606429 0.485259
vt 0.578989 0.567259
vt 0.578989 0.485259
vt 0.606429 0.567259
vt 0.234254 0.648813
vt 0.240281 0.628288
vt 0.234254 0.607764
vt 0.419327 0.642776
vt 0.413301 0.622252
vt 0.419327 0.601727
vt 0.617681 0.564737
vt 0.617681 0.543346
vt 0.613180 0.543346
vt 0.613180 0.564737
vt 0.419327 0.482023
vt 0.419327 0.460632
vt 0.626682 0.564737
vt 0.626682 0.543346
vt 0.416231 0.484273
vt 0.416231 0.505664
vt 0.418481 0.507915
vt 0.418481 0.529306
vt 0.622182 0.564737
vt 0.622182 0.543346
vt 0.484313 0.452345
vt 0.421578 0.343683
vt 0.421578 0.416124
vt 0.484313 0.307463
vt 0.547049 0.416124
vt 0.547049 0.343683
vt 0.156544 0.307463
vt 0.106238 0.458381
vt 0.106238 0.307463
vt 0.156544 0.458381
vt 0.209101 0.307463
vt 0.158795 0.458381
vt 0.158795 0.307463
vt 0.209101 0.458381
vt 0.484313 0.454595
vt 0.421578 0.563256
vt 0.421578 0.490815
vt 0.547049 0.490815
vt 0.484313 0.599477
vt 0.547049 0.563256
vt 0.211351 0.001125
vt 0.261658 0.152044
vt 0.211351 0.152044
vt 0.261658 0.001125
vt 0.001125 0.154294
vt 0.051431 0.305213
vt 0.001125 0.305213
vt 0.051431 0.154294
vt 0.106238 0.305213
vt 0.156544 0.154294
vt 0.156544 0.305213
vt 0.106238 0.154294
vt 0.103988 0.154294
vt 0.053682 0.305213
vt 0.053682 0.154294
vt 0.103988 0.305213
vt 0.627009 0.722678
vt 0.702468 0.647219
vt 0.702468 0.722678
vt 0.627009 0.647219
vt 0.677021 0.076584
vt 0.677021 0.001125
vt 0.752480 0.076584
vt 0.752480 0.001125
vt 0.549299 0.569509
vt 0.624758 0.644968
vt 0.549299 0.644968
vt 0.624758 0.569509
vt 0.421578 0.679437
vt 0.497037 0.754896
vt 0.421578 0.754896
vt 0.497037 0.679437
vt 0.076584 0.760933
vt 0.001125 0.685474
vt 0.076584 0.685474
vt 0.001125 0.760933
vt 0.154294 0.685474
vt 0.078835 0.760933
vt 0.078835 0.685474
vt 0.154294 0.760933
vt 0.156544 0.760933
vt 0.232004 0.685474
vt 0.156544 0.685474
vt 0.232004 0.760933
vt 0.234254 0.685474
vt 0.309713 0.760933
vt 0.309713 0.685474
vt 0.234254 0.760933
vt 0.497037 0.677186
vt 0.421578 0.601727
vt 0.421578 0.677186
vt 0.497037 0.601727
vt 0.311964 0.685474
vt 0.311964 0.760933
vt 0.387423 0.760933
vt 0.387423 0.685474
vt 0.686389 0.148257
vt 0.761848 0.223717
vt 0.761848 0.148257
vt 0.686389 0.223717
vt 0.686389 0.301426
vt 0.761848 0.225967
vt 0.686389 0.225967
vt 0.761848 0.301426
vt 0.761848 0.310217
vt 0.686389 0.385677
vt 0.761848 0.385677
vt 0.686389 0.310217
vt 0.761848 0.463386
vt 0.686389 0.387927
vt 0.686389 0.463386
vt 0.761848 0.387927
vt 0.001125 0.683223
vt 0.076584 0.683223
vt 0.076584 0.607764
vt 0.001125 0.607764
vt 0.686389 0.465637
vt 0.686389 0.541096
vt 0.761848 0.541096
vt 0.761848 0.465637
vt 0.704719 0.569509
vt 0.780178 0.644968
vt 0.780178 0.569509
vt 0.704719 0.644968
vt 0.704719 0.722678
vt 0.780178 0.647219
vt 0.704719 0.647219
vt 0.780178 0.722678
vt 0.549299 0.724928
vt 0.549299 0.800387
vt 0.624758 0.800387
vt 0.624758 0.724928
vt 0.702468 0.724928
vt 0.627009 0.800387
vt 0.702468 0.800387
vt 0.627009 0.724928
vt 0.078835 0.683223
vt 0.154294 0.683223
vt 0.154294 0.607764
vt 0.078835 0.607764
vt 0.704719 0.724928
vt 0.704719 0.800387
vt 0.780178 0.800387
vt 0.780178 0.724928
vt 0.830190 0.001125
vt 0.754731 0.076584
vt 0.830190 0.076584
vt 0.754731 0.001125
vt 0.421578 0.832606
vt 0.497037 0.757146
vt 0.421578 0.757146
vt 0.497037 0.832606
vt 0.001125 0.763183
vt 0.001125 0.838642
vt 0.076584 0.838642
vt 0.076584 0.763183
vt 0.154294 0.763183
vt 0.078835 0.838642
vt 0.154294 0.838642
vt 0.078835 0.763183
vt 0.156544 0.683223
vt 0.232004 0.683223
vt 0.232004 0.607764
vt 0.156544 0.607764
vt 0.156544 0.763183
vt 0.232004 0.838642
vt 0.232004 0.763183
vt 0.156544 0.838642
vt 0.234254 0.838642
vt 0.309713 0.763183
vt 0.234254 0.763183
vt 0.309713 0.838642
vt 0.311964 0.838642
vt 0.387423 0.763183
vt 0.311964 0.763183
vt 0.387423 0.838642
vt 0.764099 0.148257
vt 0.839558 0.223717
vt 0.839558 0.148257
vt 0.764099 0.223717
vt 0.839558 0.225967
vt 0.764099 0.301426
vt 0.839558 0.301426
vt 0.764099 0.225967
vt 0.256568 0.683223
vt 0.332028 0.683223
vt 0.332028 0.607764
vt 0.256568 0.607764
vt 0.764099 0.303677
vt 0.839558 0.379136
vt 0.839558 0.303677
vt 0.764099 0.379136
vt 0.764099 0.381386
vt 0.764099 0.456845
vt 0.839558 0.456845
vt 0.839558 0.381386
vt 0.764099 0.534555
vt 0.839558 0.459096
vt 0.764099 0.459096
vt 0.839558 0.534555
vt 0.857887 0.569509
vt 0.782428 0.644968
vt 0.857887 0.644968
vt 0.782428 0.569509
vt 0.857887 0.722678
vt 0.857887 0.647219
vt 0.782428 0.647219
vt 0.782428 0.722678
vt 0.334278 0.683223
vt 0.409737 0.683223
vt 0.409737 0.607764
vt 0.334278 0.607764
vt 0.857887 0.724928
vt 0.782428 0.800387
vt 0.857887 0.800387
vt 0.782428 0.724928
vt 0.549299 0.878097
vt 0.624758 0.802638
vt 0.549299 0.802638
vt 0.624758 0.878097
vt 0.627009 0.802638
vt 0.627009 0.878097
vt 0.702468 0.878097
vt 0.702468 0.802638
vt 0.780178 0.802638
vt 0.704719 0.878097
vt 0.780178 0.878097
vt 0.704719 0.802638
vt 0.782428 0.802638
vt 0.782428 0.878097
vt 0.857887 0.878097
vt 0.857887 0.802638
vt 0.608679 0.223717
vt 0.684139 0.148257
vt 0.608679 0.148257
vt 0.684139 0.223717
vt 0.832440 0.076584
vt 0.907899 0.001125
vt 0.832440 0.001125
vt 0.907899 0.076584
vt 0.421578 0.910315
vt 0.497037 0.834856
vt 0.421578 0.834856
vt 0.497037 0.910315
vt 0.001125 0.840893
vt 0.001125 0.916352
vt 0.076584 0.916352
vt 0.076584 0.840893
vt 0.078835 0.916352
vt 0.154294 0.840893
vt 0.078835 0.840893
vt 0.154294 0.916352
vt 0.156544 0.840893
vt 0.232004 0.916352
vt 0.232004 0.840893
vt 0.156544 0.916352
vt 0.608679 0.307967
vt 0.684139 0.232508
vt 0.608679 0.232508
vt 0.684139 0.307967
vt 0.234254 0.916352
vt 0.309713 0.840893
vt 0.234254 0.840893
vt 0.309713 0.916352
vt 0.311964 0.840893
vt 0.311964 0.916352
vt 0.387423 0.916352
vt 0.387423 0.840893
vt 0.841808 0.148257
vt 0.841808 0.223717
vt 0.917268 0.223717
vt 0.917268 0.148257
vt 0.841808 0.225967
vt 0.917268 0.301426
vt 0.917268 0.225967
vt 0.841808 0.301426
vt 0.841808 0.379136
vt 0.917268 0.303677
vt 0.841808 0.303677
vt 0.917268 0.379136
vt 0.608679 0.385676
vt 0.684139 0.310217
vt 0.608679 0.310217
vt 0.684139 0.385676
vt 0.841808 0.456845
vt 0.917268 0.381386
vt 0.841808 0.381386
vt 0.917268 0.456845
vt 0.841808 0.459096
vt 0.841808 0.534555
vt 0.917268 0.534555
vt 0.917268 0.459096
vt 0.860138 0.569509
vt 0.860138 0.644968
vt 0.935597 0.644968
vt 0.935597 0.569509
vt 0.860138 0.647219
vt 0.935597 0.722678
vt 0.935597 0.647219
vt 0.860138 0.722678
vt 0.860138 0.800387
vt 0.935597 0.724928
vt 0.860138 0.724928
vt 0.935597 0.800387
vt 0.684139 0.463386
vt 0.608679 0.387927
vt 0.608679 0.463386
vt 0.684139 0.387927
vt 0.860138 0.878097
vt 0.935597 0.802638
vt 0.860138 0.802638
vt 0.935597 0.878097
vt 0.549299 0.880347
vt 0.549299 0.955807
vt 0.624758 0.955807
vt 0.624758 0.880347
vt 0.627009 0.880347
vt 0.702468 0.955807
vt 0.702468 0.880347
vt 0.627009 0.955807
vt 0.704719 0.880347
vt 0.704719 0.955807
vt 0.780178 0.955807
vt 0.780178 0.880347
vt 0.782428 0.955807
vt 0.857887 0.880347
vt 0.782428 0.880347
vt 0.857887 0.955807
vt 0.684139 0.541096
vt 0.608679 0.465637
vt 0.608679 0.541096
vt 0.684139 0.465637
vt 0.860138 0.880347
vt 0.860138 0.955807
vt 0.935597 0.955807
vt 0.935597 0.880347
vt 0.910150 0.001125
vt 0.910150 0.076584
vt 0.985609 0.076584
vt 0.985609 0.001125
vt 0.421578 0.912566
vt 0.497037 0.988025
vt 0.497037 0.912566
vt 0.421578 0.988025
vt 0.412381 0.760933
vt 0.389673 0.685474
vt 0.412381 0.685474
vt 0.389673 0.760933
vt 0.937847 0.722678
vt 0.990599 0.647218
vt 0.990599 0.722678
vt 0.937847 0.647218
vt 0.919518 0.223717
vt 0.972270 0.148257
vt 0.972270 0.223717
vt 0.919518 0.148257
vt 0.972270 0.301426
vt 0.919518 0.225967
vt 0.972269 0.225967
vt 0.919518 0.301426
vt 0.499287 0.601727
vt 0.521995 0.677186
vt 0.499287 0.677186
vt 0.521995 0.601727
vt 0.524245 0.832606
vt 0.546953 0.757146
vt 0.546953 0.832606
vt 0.524245 0.757146
vt 0.702468 0.569509
vt 0.702468 0.644968
vt 0.627009 0.644968
vt 0.627009 0.569509
vt 0.521995 0.679437
vt 0.499287 0.754896
vt 0.499287 0.679437
vt 0.521995 0.754896
vt 0.001125 0.918602
vt 0.076584 0.994062
vt 0.001125 0.994062
vt 0.076584 0.918602
vt 0.972269 0.534555
vt 0.919518 0.459096
vt 0.972269 0.459096
vt 0.919518 0.534555
vt 0.063861 0.605514
vt 0.063861 0.460632
vt 0.001125 0.496852
vt 0.001125 0.569293
vt 0.126596 0.569293
vt 0.126596 0.496852
vt 0.211351 0.307463
vt 0.261658 0.458381
vt 0.211351 0.458381
vt 0.261658 0.307463
vt 0.314214 0.307463
vt 0.263908 0.458381
vt 0.263908 0.307463
vt 0.314214 0.458381
vt 0.191582 0.460632
vt 0.128847 0.569293
vt 0.128847 0.496852
vt 0.254318 0.496852
vt 0.191582 0.605514
vt 0.254318 0.569293
vt 0.209101 0.154294
vt 0.158795 0.305213
vt 0.158795 0.154294
vt 0.209101 0.305213
vt 0.261658 0.154294
vt 0.211351 0.305213
vt 0.211351 0.154294
vt 0.261658 0.305213
vt 0.263908 0.152044
vt 0.314214 0.001125
vt 0.314214 0.152044
vt 0.263908 0.001125
vt 0.263908 0.154294
vt 0.314214 0.305213
vt 0.263908 0.305213
vt 0.314214 0.154294
vt 0.499287 0.832606
vt 0.521995 0.757146
vt 0.521995 0.832606
vt 0.499287 0.757146
vt 0.990599 0.724928
vt 0.937847 0.800387
vt 0.937847 0.724928
vt 0.990599 0.800387
vt 0.972270 0.379136
vt 0.919518 0.303677
vt 0.972270 0.303677
vt 0.919518 0.379136
vt 0.919518 0.456845
vt 0.972269 0.381386
vt 0.972270 0.456845
vt 0.919518 0.381386
vt 0.546953 0.601727
vt 0.524245 0.677186
vt 0.524245 0.601727
vt 0.546953 0.677186
vt 0.412381 0.838642
vt 0.389673 0.763183
vt 0.412381 0.763183
vt 0.389673 0.838642
vt 0.549299 0.722678
vt 0.624758 0.647219
vt 0.624758 0.722678
vt 0.549299 0.647219
vt 0.546953 0.754896
vt 0.524245 0.679437
vt 0.546953 0.679437
vt 0.524245 0.754896
vt 0.078835 0.918602
vt 0.154294 0.994062
vt 0.078835 0.994062
vt 0.154294 0.918602
vt 0.937847 0.644968
vt 0.990599 0.569509
vt 0.990599 0.644968
vt 0.937847 0.569509
vt 0.256568 0.569293
vt 0.382040 0.496852
vt 0.256568 0.496852
vt 0.319304 0.460632
vt 0.319304 0.605514
vt 0.382040 0.569293
vt 0.366771 0.307463
vt 0.316464 0.458381
vt 0.316464 0.307463
vt 0.366771 0.458381
vt 0.419327 0.307463
vt 0.369021 0.458381
vt 0.369021 0.307463
vt 0.419327 0.458381
vt 0.674771 0.037346
vt 0.549299 0.037346
vt 0.612035 0.001125
vt 0.674771 0.109786
vt 0.612035 0.146007
vt 0.549299 0.109787
vt 0.366771 0.001125
vt 0.316464 0.152044
vt 0.316464 0.001125
vt 0.366771 0.152044
vt 0.366771 0.154294
vt 0.316464 0.305213
vt 0.316464 0.154294
vt 0.366771 0.305213
vt 0.419327 0.001125
vt 0.369021 0.152044
vt 0.369021 0.001125
vt 0.419327 0.152044
vt 0.419327 0.154294
vt 0.369021 0.305213
vt 0.369021 0.154294
vt 0.419327 0.305213
s 0
usemtl Material.007
f 1/1/1 2/2/1 3/3/1
f 4/4/1 2/2/1 1/1/1
f 4/4/1 5/5/1 2/2/1
f 5/5/1 4/4/1 6/6/1
f 7/7/2 8/8/2 9/9/2
f 8/8/2 7/7/2 10/10/2
f 11/11/3 12/12/3 13/13/3
f 12/12/3 11/11/3 14/14/3
f 15/15/4 16/16/4 17/17/4
f 18/18/4 19/19/4 17/17/4
f 16/16/4 15/15/4 20/20/4
f 17/17/4 16/16/4 18/18/4
f 21/21/5 22/22/5 23/23/5
f 22/22/5 21/21/5 24/24/5
f 25/25/6 26/26/6 27/27/6
f 26/26/6 25/25/6 28/28/6
f 29/29/7 30/30/7 31/31/7
f 30/30/7 29/29/7 32/32/7
f 33/33/8 34/34/8 35/35/8
f 34/34/8 33/33/8 36/36/8
usemtl Material.001
f 37/37/9 38/38/9 39/38/9
f 39/38/9 40/37/9 37/37/9
f 41/39/10 42/40/10 43/39/10
f 42/40/10 41/39/10 44/40/10
f 45/41/11 46/42/11 47/42/11
f 46/42/11 45/41/11 48/41/11
f 49/43/12 50/44/12 51/44/12
f 50/44/12 49/43/12 52/43/12
f 53/45/13 54/46/13 55/46/13
f 55/46/13 56/45/13 53/45/13
f 57/47/14 58/48/14 59/48/14
f 59/48/14 60/47/14 57/47/14
f 61/49/15 62/50/15 63/50/15
f 62/50/15 61/49/15 64/49/15
f 65/51/16 66/52/16 67/52/16
s 1
f 66/52/16 65/51/16 68/51/16
s 0
f 69/53/17 70/54/17 71/54/17
f 71/54/17 72/53/17 69/53/17
f 73/55/18 74/56/18 75/55/18
f 74/56/18 73/55/18 76/56/18
f 77/57/3 78/58/3 79/59/3
f 78/58/3 77/57/3 80/60/3
f 81/61/3 82/62/3 83/63/3
f 80/60/3 84/64/3 85/65/3
f 82/62/3 81/61/3 86/66/3
f 83/63/3 82/62/3 87/67/3
f 84/64/3 80/60/3 77/57/3
f 85/65/3 84/64/3 86/66/3
f 85/65/3 86/66/3 81/61/3
f 88/68/7 89/69/7 90/70/7
f 88/68/7 91/71/7 89/69/7
f 91/71/7 88/68/7 92/72/7
f 91/71/7 92/72/7 93/73/7
f 90/70/7 94/74/7 95/75/7
f 94/74/7 90/70/7 89/69/7
f 95/75/7 96/76/7 97/77/7
f 96/76/7 95/75/7 94/74/7
f 97/77/7 96/76/7 98/78/7
f 99/79/19 100/80/19 101/81/19
f 100/80/19 99/79/19 102/82/19
f 103/83/20 104/84/20 105/85/20
f 104/84/20 103/83/20 106/86/20
f 107/87/21 108/88/21 109/89/21
f 108/88/21 107/87/21 110/90/21
f 111/91/22 112/92/22 113/93/22
f 114/94/22 112/92/22 111/91/22
s 1
f 115/95/23 116/96/23 117/97/23
s 0
f 116/96/23 115/95/23 118/98/23
f 119/99/24 120/100/24 121/101/24
f 122/102/24 119/99/24 121/101/24
f 123/103/25 124/104/25 125/105/25
f 123/103/25 125/105/25 126/106/25
s 1
f 127/107/26 128/108/26 129/109/26
s 0
f 128/108/26 127/107/26 130/110/26
s 1
f 131/111/27 132/112/27 133/113/27
s 0
f 133/113/27 134/114/27 131/111/27
f 135/115/28 136/116/28 137/117/28
f 136/116/28 135/115/28 138/118/28
f 139/119/29 140/120/29 141/121/29
f 139/119/29 141/121/29 142/122/29
f 143/123/30 144/124/30 145/125/30
f 144/124/30 143/123/30 146/126/30
f 147/127/31 148/128/31 149/129/31
f 148/128/31 147/127/31 150/130/31
f 151/131/32 152/132/32 153/133/32
f 154/134/32 151/131/32 153/133/32
f 155/135/33 156/136/33 157/137/33
f 156/136/33 155/135/33 158/138/33
f 159/139/34 160/140/34 161/141/34
f 159/139/34 161/141/34 162/142/34
f 163/143/35 164/144/35 165/145/35
s 1
f 165/145/35 166/146/35 163/143/35
s 0
f 167/147/36 168/148/36 169/149/36
f 168/148/36 167/147/36 170/150/36
f 171/151/37 172/152/37 173/153/37
f 172/152/37 171/151/37 174/154/37
f 175/155/38 176/156/38 177/157/38
f 176/156/38 175/155/38 178/158/38
f 179/159/39 180/160/39 181/161/39
f 180/160/39 179/159/39 182/162/39
f 183/163/40 184/164/40 185/165/40
f 184/164/40 183/163/40 186/166/40
f 187/167/41 188/168/41 189/169/41
f 188/168/41 187/167/41 190/170/41
f 191/171/42 192/172/42 193/172/42
f 193/172/42 194/171/42 191/171/42
f 195/173/43 196/174/43 197/175/43
f 198/176/43 196/174/43 195/173/43
f 199/177/44 200/178/44 201/179/44
f 202/180/44 200/178/44 199/177/44
s 1
f 203/181/45 204/182/45 205/183/45
f 206/184/45 204/182/45 203/181/45
s 0
f 207/185/46 208/186/46 209/187/46
f 208/186/46 207/185/46 210/188/46
f 211/189/47 212/190/47 213/191/47
f 212/190/47 211/189/47 214/192/47
f 215/193/48 216/194/48 217/195/48
f 216/194/48 215/193/48 218/196/48
f 219/197/49 220/198/49 221/199/49
f 220/198/49 219/197/49 222/200/49
f 223/201/50 224/202/50 225/203/50
f 224/202/50 223/201/50 226/204/50
f 227/205/51 228/206/51 229/207/51
f 230/208/51 228/206/51 227/205/51
f 231/209/52 232/210/52 233/211/52
f 234/212/52 232/210/52 231/209/52
usemtl Material.003
f 235/213/3 236/214/3 237/214/3
f 238/215/3 237/214/3 236/214/3
f 237/214/3 238/215/3 239/215/3
f 237/214/3 240/213/3 235/213/3
f 241/216/3 242/217/3 243/217/3
f 242/217/3 244/218/3 243/217/3
f 242/217/3 245/218/3 244/218/3
f 242/217/3 241/216/3 246/216/3
f 247/219/3 248/220/3 249/220/3
f 248/220/3 247/219/3 250/219/3
f 251/221/3 252/222/3 253/222/3
f 252/222/3 251/221/3 254/221/3
f 255/223/3 256/224/3 257/223/3
f 256/224/3 255/223/3 258/224/3
f 259/225/3 260/226/3 261/226/3
f 260/226/3 259/225/3 262/225/3
f 263/227/3 264/228/3 265/228/3
f 263/227/3 265/228/3 266/227/3
f 267/229/3 268/230/3 269/229/3
f 268/230/3 267/229/3 270/230/3
f 271/231/3 272/232/3 273/232/3
f 273/232/3 274/231/3 271/231/3
usemtl Material.002
f 275/233/7 276/234/7 277/235/7
f 275/233/7 278/236/7 276/234/7
f 278/236/7 279/237/7 280/238/7
f 278/236/7 275/233/7 279/237/7
f 281/239/53 282/240/53 283/241/53
s 1
f 284/242/53 282/240/53 281/239/53
s 0
f 285/243/54 286/244/54 287/245/54
f 288/246/54 286/244/54 285/243/54
f 289/247/3 290/248/3 291/249/3
f 290/248/3 292/250/3 293/251/3
f 292/250/3 290/248/3 289/247/3
f 293/251/3 292/250/3 294/252/3
f 295/253/55 296/254/55 297/255/55
f 296/254/55 295/253/55 298/256/55
f 299/257/56 300/258/56 301/259/56
f 300/258/56 299/257/56 302/260/56
f 303/261/57 304/262/57 305/263/57
f 306/264/57 304/262/57 303/261/57
f 307/265/58 308/266/58 309/267/58
f 308/266/58 307/265/58 310/268/58
f 311/269/3 312/270/3 313/271/3
f 312/270/3 311/269/3 314/272/3
f 315/273/7 316/274/7 317/275/7
f 318/276/7 317/275/7 316/274/7
f 319/277/59 320/278/59 321/279/59
f 320/278/59 319/277/59 322/280/59
f 323/281/60 324/282/60 325/283/60
f 326/284/60 324/282/60 323/281/60
f 327/285/61 328/286/61 329/287/61
f 330/288/61 328/286/61 327/285/61
f 331/289/62 332/290/62 333/291/62
f 332/290/62 331/289/62 334/292/62
f 335/293/7 336/294/7 337/295/7
f 336/294/7 335/293/7 338/296/7
f 339/297/3 340/298/3 341/299/3
f 340/298/3 339/297/3 342/300/3
f 343/301/63 344/302/63 345/303/63
f 344/302/63 343/301/63 346/304/63
f 347/305/64 348/306/64 349/307/64
f 349/307/64 350/308/64 347/305/64
f 351/309/65 352/310/65 353/311/65
f 352/310/65 351/309/65 354/312/65
f 355/313/66 356/314/66 357/315/66
f 356/314/66 355/313/66 358/316/66
f 359/317/7 360/318/7 361/319/7
f 360/318/7 359/317/7 362/320/7
f 363/321/3 364/322/3 365/323/3
f 363/321/3 366/324/3 364/322/3
f 367/325/67 368/326/67 369/327/67
f 369/327/67 370/328/67 367/325/67
f 371/329/68 372/330/68 373/331/68
f 373/331/68 374/332/68 371/329/68
f 375/333/69 376/334/69 377/335/69
f 376/334/69 375/333/69 378/336/69
f 379/337/70 380/338/70 381/339/70
f 380/338/70 379/337/70 382/340/70
f 383/341/7 384/342/7 385/343/7
f 385/343/7 386/344/7 383/341/7
f 387/345/3 388/346/3 389/347/3
f 388/346/3 387/345/3 390/348/3
f 391/349/71 392/350/71 393/351/71
f 393/351/71 394/352/71 391/349/71
f 395/353/72 396/354/72 397/355/72
s 1
f 397/355/72 398/356/72 395/353/72
s 0
f 399/357/73 400/358/73 401/359/73
f 400/358/73 399/357/73 402/360/73
f 403/361/74 404/362/74 405/363/74
f 404/362/74 403/361/74 406/364/74
f 407/365/7 408/366/7 409/367/7
f 409/367/7 410/368/7 407/365/7
f 411/369/3 412/370/3 413/371/3
f 412/370/3 411/369/3 414/372/3
f 415/373/75 416/374/75 417/375/75
f 417/375/75 418/376/75 415/373/75
f 419/377/76 420/378/76 421/379/76
f 420/378/76 419/377/76 422/380/76
f 423/381/77 424/382/77 425/383/77
f 424/382/77 423/381/77 426/384/77
f 427/385/78 428/386/78 429/387/78
f 428/386/78 427/385/78 430/388/78
f 431/389/7 432/390/7 433/391/7
f 432/390/7 431/389/7 434/392/7
f 435/393/3 436/394/3 437/395/3
f 436/394/3 435/393/3 438/396/3
f 439/397/79 440/398/79 441/399/79
s 1
f 441/399/79 442/400/79 439/397/79
s 0
f 443/401/80 444/402/80 445/403/80
f 444/402/80 443/401/80 446/404/80
f 447/405/81 448/406/81 449/407/81
f 449/407/81 450/408/81 447/405/81
f 451/409/82 452/410/82 453/411/82
f 452/410/82 451/409/82 454/412/82
f 455/413/7 456/414/7 457/415/7
f 456/414/7 455/413/7 458/416/7
f 459/417/3 460/418/3 461/419/3
f 459/417/3 461/419/3 462/420/3
f 463/421/83 464/422/83 465/423/83
f 465/423/83 466/424/83 463/421/83
f 467/425/84 468/426/84 469/427/84
f 468/426/84 467/425/84 470/428/84
s 1
f 471/429/85 472/430/85 473/431/85
f 472/430/85 471/429/85 474/432/85
s 0
f 475/433/86 476/434/86 477/435/86
f 477/435/86 478/436/86 475/433/86
f 479/437/7 480/438/7 481/439/7
f 480/438/7 479/437/7 482/440/7
f 483/441/3 484/442/3 485/443/3
f 485/443/3 486/444/3 483/441/3
f 487/445/87 488/446/87 489/447/87
f 488/446/87 487/445/87 490/448/87
f 491/449/88 492/450/88 493/451/88
f 492/450/88 491/449/88 494/452/88
f 495/453/89 496/454/89 497/455/89
f 496/454/89 495/453/89 498/456/89
s 1
f 499/457/90 500/458/90 501/459/90
f 501/459/90 502/460/90 499/457/90
s 0
f 503/461/7 504/462/7 505/463/7
f 504/462/7 503/461/7 506/464/7
f 507/465/3 508/466/3 509/467/3
f 510/468/3 508/466/3 507/465/3
f 511/469/91 512/470/91 513/471/91
s 1
f 512/470/91 511/469/91 514/472/91
s 0
f 515/473/92 516/474/92 517/475/92
f 516/474/92 515/473/92 518/476/92
f 519/477/93 520/478/93 521/479/93
f 521/479/93 522/480/93 519/477/93
f 523/481/94 524/482/94 525/483/94
f 525/483/94 526/484/94 523/481/94
f 527/485/7 528/486/7 529/487/7
f 528/486/7 527/485/7 530/488/7
f 531/489/3 532/490/3 533/491/3
f 532/490/3 531/489/3 534/492/3
f 535/493/95 536/494/95 537/495/95
f 536/494/95 535/493/95 538/496/95
f 539/497/96 540/498/96 541/499/96
f 540/498/96 539/497/96 542/500/96
f 543/501/97 544/502/97 545/503/97
f 545/503/97 546/504/97 543/501/97
f 547/505/98 548/506/98 549/507/98
f 549/507/98 550/508/98 547/505/98
f 551/509/7 552/510/7 553/511/7
f 551/509/7 554/512/7 552/510/7
f 555/513/3 556/514/3 557/515/3
f 556/514/3 555/513/3 558/516/3
f 559/517/99 560/518/99 561/519/99
f 560/518/99 559/517/99 562/520/99
f 563/521/100 564/522/100 565/523/100
f 564/522/100 563/521/100 566/524/100
f 567/525/101 568/526/101 569/527/101
f 569/527/101 570/528/101 567/525/101
f 571/529/102 572/530/102 573/531/102
f 572/530/102 571/529/102 574/532/102
f 575/533/7 576/534/7 577/535/7
f 577/535/7 578/536/7 575/533/7
f 579/537/3 580/538/3 581/539/3
f 580/538/3 579/537/3 582/540/3
f 583/541/42 584/542/42 585/543/42
f 584/542/42 583/541/42 586/544/42
f 587/545/54 588/546/54 589/547/54
f 589/547/54 590/548/54 587/545/54
f 591/549/48 592/550/48 593/551/48
f 593/551/48 594/552/48 591/549/48
f 595/553/57 596/554/57 597/555/57
f 596/554/57 595/553/57 598/556/57
usemtl Material.006
f 599/557/103 600/558/103 601/559/103
f 600/558/103 599/557/103 602/560/103
f 603/561/104 604/562/104 605/563/104
f 606/564/104 604/562/104 603/561/104
f 607/565/7 608/566/7 609/567/7
f 610/568/7 608/566/7 607/565/7
f 611/569/3 612/570/3 613/571/3
f 612/570/3 611/569/3 614/572/3
f 615/573/3 616/574/3 617/575/3
f 616/574/3 615/573/3 618/576/3
f 619/577/7 620/578/7 621/579/7
f 622/580/7 620/578/7 619/577/7
f 623/581/105 624/582/105 625/583/105
f 623/581/105 625/583/105 626/584/105
f 627/585/106 628/586/106 629/587/106
f 630/588/106 628/586/106 627/585/106
f 631/589/107 632/590/107 633/591/107
f 634/592/107 632/590/107 631/589/107
f 635/593/108 636/594/108 637/595/108
f 636/594/108 635/593/108 638/596/108
usemtl Material.005
f 639/597/7 640/598/7 641/599/7
f 639/597/7 641/599/7 642/600/7
f 640/598/7 643/601/7 644/602/7
f 640/598/7 639/597/7 643/601/7
f 645/603/53 646/604/53 647/605/53
f 646/604/53 645/603/53 648/606/53
f 649/607/54 650/608/54 651/609/54
f 650/608/54 649/607/54 652/610/54
f 653/611/3 654/612/3 655/613/3
f 654/612/3 656/614/3 657/615/3
f 656/614/3 654/612/3 653/611/3
f 657/615/3 656/614/3 658/616/3
f 659/617/55 660/618/55 661/619/55
f 662/620/55 660/618/55 659/617/55
f 663/621/56 664/622/56 665/623/56
f 666/624/56 664/622/56 663/621/56
f 667/625/57 668/626/57 669/627/57
f 667/625/57 670/628/57 668/626/57
f 671/629/58 672/630/58 673/631/58
f 672/630/58 671/629/58 674/632/58
usemtl Material.004
f 675/633/109 676/634/109 677/635/109
f 678/636/109 676/634/109 675/633/109
f 679/637/110 680/638/110 681/639/110
f 682/640/110 680/638/110 679/637/110
f 683/641/7 684/642/7 685/643/7
f 684/642/7 683/641/7 686/644/7
f 687/645/3 688/646/3 689/647/3
f 688/646/3 687/645/3 690/648/3
f 691/649/3 692/650/3 693/651/3
f 692/650/3 691/649/3 694/652/3
f 695/653/7 696/654/7 697/655/7
f 696/654/7 695/653/7 698/656/7
f 699/657/111 700/658/111 701/659/111
f 702/660/111 700/658/111 699/657/111
f 703/661/112 704/662/112 705/663/112
f 704/662/112 703/661/112 706/664/112
f 707/665/113 708/666/113 709/667/113
f 708/666/113 707/665/113 710/668/113
f 711/669/114 712/670/114 713/671/114
f 714/672/114 712/670/114 711/669/114
usemtl Material.008
f 715/673/1 716/674/1 717/675/1
f 716/674/1 718/676/1 717/675/1
f 716/674/1 715/673/1 719/677/1
f 716/674/1 719/677/1 720/678/1
f 721/679/2 722/680/2 723/681/2
f 722/680/2 721/679/2 724/682/2
f 725/683/3 726/684/3 727/685/3
f 726/684/3 725/683/3 728/686/3
f 729/687/4 730/688/4 731/689/4
f 732/690/4 730/688/4 729/687/4
f 730/688/4 732/690/4 733/691/4
f 730/688/4 733/691/4 734/692/4
f 735/693/5 736/694/5 737/695/5
f 736/694/5 735/693/5 738/696/5
f 739/697/6 740/698/6 741/699/6
f 740/698/6 739/697/6 742/700/6
f 743/701/7 744/702/7 745/703/7
f 744/702/7 743/701/7 746/704/7
f 747/705/8 748/706/8 749/707/8
f 748/706/8 747/705/8 750/708/8
