# Blender 4.1.0
# www.blender.org
mtllib fish.mtl
o Goldfish_01_Cube.058
v 0.000000 -3.221071 2.175019
v -0.000001 -2.889237 -0.496447
v 1.791815 -2.061750 -0.138753
v 2.071629 -2.331082 2.043904
v 0.000000 3.482107 1.187500
v 0.000001 3.578651 3.795857
v 1.791817 2.751165 3.438162
v 2.071629 2.592120 1.318613
v 2.071629 -2.331082 2.043904
v 2.071629 -1.133978 2.226074
v 1.791817 0.039158 5.097884
v 1.791817 -1.443751 4.056162
v -0.000001 -2.889237 -0.496447
v -0.000002 -2.099069 -1.277535
v 1.791815 -1.489329 -0.766212
v 1.791815 -2.061750 -0.138753
v -2.071629 -2.331082 2.043906
v -2.071629 -1.133978 2.226076
v -1.791817 -1.489329 -0.766211
v -1.791817 -2.061750 -0.138752
v 1.791817 0.039158 5.097884
v 1.791817 2.751165 3.438162
v 0.000001 3.578651 3.795857
v 0.000002 0.537147 5.535736
v 0.710107 -0.074882 5.531051
v -0.000001 2.822343 -1.337883
v 1.791815 2.133166 -0.756753
v 0.167973 0.959056 -2.412235
v -0.000002 1.743319 -2.702699
v -0.000002 -2.099069 -1.277535
v -1.791817 -1.489329 -0.766211
v -0.165106 -0.749835 -2.277449
v -0.000002 -1.190917 -2.238320
v 1.791815 -1.489329 -0.766212
v -0.000002 -2.099069 -1.277535
v -0.000002 -1.190917 -2.238320
v 0.165102 -0.749835 -2.277449
v -1.791817 2.133166 -0.756752
v -0.000001 2.822343 -1.337883
v -0.000002 1.743319 -2.702699
v -0.167977 0.959056 -2.412235
v -1.791815 2.751165 3.438163
v -1.791815 0.039158 5.097885
v -0.710103 -0.074882 5.531051
v 0.000002 0.537147 5.535736
v 0.000001 3.578651 3.795857
v -1.791817 -2.061750 -0.138752
v -1.791817 -1.489329 -0.766211
v -0.000002 -2.099069 -1.277535
v -0.000001 -2.889237 -0.496447
v -2.071629 2.592120 1.318615
v -1.791815 2.751165 3.438163
v 0.000001 3.578651 3.795857
v 0.000000 3.482107 1.187500
v -2.071629 -2.331082 2.043906
v -1.791817 -2.061750 -0.138752
v -0.000001 -2.889237 -0.496447
v 0.000000 -3.221071 2.175019
v -1.791815 -1.443751 4.056163
v -2.071629 -2.331082 2.043906
v 0.000000 -3.221071 2.175019
v 0.000001 -2.132929 4.637293
v -1.791817 2.133166 -0.756752
v -2.071629 2.592120 1.318615
v 0.000000 3.482107 1.187500
v -0.000001 2.822343 -1.337883
v -1.791815 -1.443751 4.056163
v -1.791815 0.039158 5.097885
v -2.071629 -1.133978 2.226076
v -2.071629 -2.331082 2.043906
v 1.791815 -2.061750 -0.138753
v 1.791815 -1.489329 -0.766212
v 2.071629 -1.133978 2.226074
v 2.071629 -2.331082 2.043904
v -0.000001 2.822343 -1.337883
v 0.000000 3.482107 1.187500
v 2.071629 2.592120 1.318613
v 1.791815 2.133166 -0.756753
v 0.000001 -2.132929 4.637293
v 0.000000 -3.221071 2.175019
v 2.071629 -2.331082 2.043904
v 1.791817 -1.443751 4.056162
v -1.791817 2.133166 -0.756752
v -1.791817 -1.489329 -0.766211
v -2.071629 -1.133978 2.226076
v -2.071629 2.592120 1.318615
v -0.167977 0.959056 -2.412235
v -0.165106 -0.749835 -2.277449
v -1.791817 -1.489329 -0.766211
v -1.791817 2.133166 -0.756752
v 1.791817 2.751165 3.438162
v 1.791817 0.039158 5.097884
v 2.071629 -1.133978 2.226074
v 2.071629 2.592120 1.318613
v 1.791817 -1.443751 4.056162
v 1.791817 0.039158 5.097884
v 0.710107 -0.074882 5.531051
v 0.000002 -0.783086 5.525630
v 0.000001 -2.132929 4.637293
v 2.071629 2.592120 1.318613
v 2.071629 -1.133978 2.226074
v 1.791815 -1.489329 -0.766212
v 1.791815 2.133166 -0.756753
v -2.071629 2.592120 1.318615
v -2.071629 -1.133978 2.226076
v -1.791815 0.039158 5.097885
v -1.791815 2.751165 3.438163
v 1.791815 2.133166 -0.756753
v 1.791815 -1.489329 -0.766212
v 0.165102 -0.749835 -2.277449
v 0.167973 0.959056 -2.412235
v 0.000001 -2.132929 4.637293
v 0.000002 -0.783086 5.525630
v -0.710103 -0.074882 5.531051
v -1.791815 0.039158 5.097885
v -1.791815 -1.443751 4.056163
v -0.710103 -0.074882 5.531051
v 0.000002 -0.783086 5.525630
v 0.000002 -0.781758 5.699293
v -0.704685 -0.078957 5.704674
v 0.710107 -0.074882 5.531051
v 0.000002 0.537147 5.535736
v 0.000002 0.528402 5.709322
v 0.704689 -0.078957 5.704674
v 0.704689 -0.078957 5.704674
v 0.000002 0.528402 5.709322
v 0.000002 0.275424 5.600771
v 0.419126 -0.085391 5.606698
v -0.704685 -0.078957 5.704674
v 0.000002 -0.781758 5.699293
v 0.000002 -0.506036 5.592283
v -0.419122 -0.085391 5.606698
v 0.000002 -0.781758 5.699293
v 0.704689 -0.078957 5.704674
v 0.419126 -0.085391 5.606698
v 0.000002 -0.506036 5.592283
v 0.000002 0.528402 5.709322
v -0.704685 -0.078957 5.704674
v -0.419122 -0.085391 5.606698
v 0.000002 0.275424 5.600771
v 0.000002 -0.783086 5.525630
v 0.710107 -0.074882 5.531051
v 0.704689 -0.078957 5.704674
v 0.000002 -0.781758 5.699293
v 0.000002 0.537147 5.535736
v -0.710103 -0.074882 5.531051
v -0.704685 -0.078957 5.704674
v 0.000002 0.528402 5.709322
v 2.019120 0.899472 2.764377
v 2.047282 0.963748 2.511421
v 1.846061 0.960320 2.488148
v 1.817899 0.896043 2.741103
v 2.087109 0.574775 2.224384
v 2.075444 0.349381 2.358445
v 1.874223 0.345952 2.335171
v 1.885888 0.571347 2.201111
v 2.047282 0.285104 2.611399
v 2.019120 0.419598 2.835073
v 1.817899 0.416169 2.811799
v 1.846061 0.281676 2.588126
v 2.007455 0.674078 2.898437
v 2.019120 0.899472 2.764377
v 1.817899 0.896043 2.741103
v 1.806234 0.670649 2.875164
v 2.075444 0.829254 2.287749
v 2.087109 0.574775 2.224384
v 1.885888 0.571347 2.201111
v 1.874223 0.825826 2.264476
v 2.075444 0.349381 2.358445
v 2.047282 0.285104 2.611399
v 1.846061 0.281676 2.588126
v 1.874223 0.345952 2.335171
v 2.019120 0.419598 2.835073
v 2.007455 0.674078 2.898437
v 1.806234 0.670649 2.875164
v 1.817899 0.416169 2.811799
v 2.047282 0.963748 2.511421
v 2.075444 0.829254 2.287749
v 1.874223 0.825826 2.264476
v 1.846061 0.960320 2.488148
v 1.846061 0.960320 2.488148
v 1.874223 0.825826 2.264476
v 1.846061 0.620998 2.538137
v 1.885888 0.571347 2.201111
v 1.874223 0.345952 2.335171
v 1.846061 0.281676 2.588126
v 1.817899 0.416169 2.811799
v 1.806234 0.670649 2.875164
v 1.817899 0.896043 2.741103
v 2.129884 0.876100 2.534094
v 2.129884 0.625834 2.570964
v 2.150654 0.776905 2.369125
v 2.159258 0.589214 2.322391
v 2.150654 0.422974 2.421267
v 2.129884 0.375567 2.607833
v 2.109113 0.474763 2.772803
v 2.100509 0.662454 2.819538
v 2.109113 0.828693 2.720662
v 2.109113 0.828693 2.720662
v 2.129884 0.876100 2.534094
v 2.047282 0.963748 2.511421
v 2.019120 0.899472 2.764377
v 2.100509 0.662454 2.819538
v 2.109113 0.828693 2.720662
v 2.019120 0.899472 2.764377
v 2.007455 0.674078 2.898437
v 2.109113 0.474763 2.772803
v 2.100509 0.662454 2.819538
v 2.007455 0.674078 2.898437
v 2.019120 0.419598 2.835073
v 2.129884 0.375567 2.607833
v 2.109113 0.474763 2.772803
v 2.019120 0.419598 2.835073
v 2.047282 0.285104 2.611399
v 2.150654 0.422974 2.421267
v 2.129884 0.375567 2.607833
v 2.047282 0.285104 2.611399
v 2.075444 0.349381 2.358445
v 2.159258 0.589214 2.322391
v 2.150654 0.422974 2.421267
v 2.075444 0.349381 2.358445
v 2.087109 0.574775 2.224384
v 2.150654 0.776905 2.369125
v 2.159258 0.589214 2.322391
v 2.087109 0.574775 2.224384
v 2.075444 0.829254 2.287749
v 2.129884 0.876100 2.534094
v 2.150654 0.776905 2.369125
v 2.075444 0.829254 2.287749
v 2.047282 0.963748 2.511421
v -2.019119 0.899472 2.764378
v -1.817899 0.896043 2.741104
v -1.846060 0.960320 2.488150
v -2.047281 0.963748 2.511423
v -2.087108 0.574776 2.224385
v -1.885887 0.571347 2.201113
v -1.874222 0.345952 2.335173
v -2.075443 0.349381 2.358446
v -2.047281 0.285105 2.611401
v -1.846060 0.281676 2.588129
v -1.817899 0.416169 2.811800
v -2.019119 0.419598 2.835073
v -2.007454 0.674078 2.898438
v -1.806234 0.670649 2.875165
v -1.817899 0.896043 2.741104
v -2.019119 0.899472 2.764378
v -2.075443 0.829254 2.287750
v -1.874222 0.825826 2.264478
v -1.885887 0.571347 2.201113
v -2.087108 0.574776 2.224385
v -2.075443 0.349381 2.358446
v -1.874222 0.345952 2.335173
v -1.846060 0.281676 2.588129
v -2.047281 0.285105 2.611401
v -2.019119 0.419598 2.835073
v -1.817899 0.416169 2.811800
v -1.806234 0.670649 2.875165
v -2.007454 0.674078 2.898438
v -2.047281 0.963748 2.511423
v -1.846060 0.960320 2.488150
v -1.874222 0.825826 2.264478
v -2.075443 0.829254 2.287750
v -1.846060 0.960320 2.488150
v -1.846060 0.620998 2.538139
v -1.874222 0.825826 2.264478
v -1.885887 0.571347 2.201113
v -1.874222 0.345952 2.335173
v -1.846060 0.281676 2.588129
v -1.817899 0.416169 2.811800
v -1.806234 0.670649 2.875165
v -1.817899 0.896043 2.741104
v -2.129883 0.876100 2.534096
v -2.150654 0.776905 2.369127
v -2.129883 0.625834 2.570966
v -2.159257 0.589214 2.322393
v -2.150654 0.422974 2.421269
v -2.129883 0.375568 2.607835
v -2.109112 0.474763 2.772804
v -2.100509 0.662454 2.819540
v -2.109112 0.828694 2.720663
v -2.109112 0.828694 2.720663
v -2.019119 0.899472 2.764378
v -2.047281 0.963748 2.511423
v -2.129883 0.876100 2.534096
v -2.100509 0.662454 2.819540
v -2.007454 0.674078 2.898438
v -2.019119 0.899472 2.764378
v -2.109112 0.828694 2.720663
v -2.109112 0.474763 2.772804
v -2.019119 0.419598 2.835073
v -2.007454 0.674078 2.898438
v -2.100509 0.662454 2.819540
v -2.129883 0.375568 2.607835
v -2.047281 0.285105 2.611401
v -2.019119 0.419598 2.835073
v -2.109112 0.474763 2.772804
v -2.150654 0.422974 2.421269
v -2.075443 0.349381 2.358446
v -2.047281 0.285105 2.611401
v -2.129883 0.375568 2.607835
v -2.159257 0.589214 2.322393
v -2.087108 0.574776 2.224385
v -2.075443 0.349381 2.358446
v -2.150654 0.422974 2.421269
v -2.150654 0.776905 2.369127
v -2.075443 0.829254 2.287750
v -2.087108 0.574776 2.224385
v -2.159257 0.589214 2.322393
v -2.129883 0.876100 2.534096
v -2.047281 0.963748 2.511423
v -2.075443 0.829254 2.287750
v -2.150654 0.776905 2.369127
v 0.422348 -0.081365 5.432322
v 0.000002 -0.505245 5.417796
v 0.000002 -0.506036 5.592283
v 0.419126 -0.085391 5.606698
v -0.422345 -0.081364 5.432323
v 0.000002 -0.505245 5.417796
v 0.000002 -0.502839 4.973982
v -0.422345 -0.068204 5.034121
v 0.000002 -0.505245 5.417796
v -0.422345 -0.081364 5.432323
v -0.419122 -0.085391 5.606698
v 0.000002 -0.506036 5.592283
v -0.422345 -0.068204 5.034121
v 0.000002 -0.502839 4.973982
v 0.422348 -0.068204 5.034120
v 0.000002 0.293662 4.992803
v 0.000002 -0.505245 5.417796
v 0.422348 -0.081365 5.432322
v 0.422348 -0.068204 5.034120
v 0.000002 -0.502839 4.973982
v 0.000002 0.282223 5.426351
v -0.422345 -0.081364 5.432323
v -0.422345 -0.068204 5.034121
v 0.000002 0.293662 4.992803
v 0.422348 -0.081365 5.432322
v 0.000002 0.282223 5.426351
v 0.000002 0.293662 4.992803
v 0.422348 -0.068204 5.034120
v -0.422345 -0.081364 5.432323
v 0.000002 0.282223 5.426351
v 0.000002 0.275424 5.600771
v -0.419122 -0.085391 5.606698
v 0.000002 0.282223 5.426351
v 0.422348 -0.081365 5.432322
v 0.419126 -0.085391 5.606698
v 0.000002 0.275424 5.600771
v 0.165102 -0.749835 -2.277449
v -0.000002 -1.190917 -2.238320
v -0.000002 -2.694486 -2.520350
v 0.110857 -2.306118 -2.639171
v -0.167977 0.959056 -2.412235
v -0.000002 1.743319 -2.702699
v -0.000002 2.579065 -3.662056
v -0.110862 1.799287 -3.345328
v 0.110857 -2.306118 -2.639171
v -0.000002 -2.694486 -2.520350
v -0.000002 -4.111065 -3.463958
v 0.110857 -3.504983 -3.362614
v -0.000002 -2.694486 -2.520350
v -0.110862 -2.306118 -2.639171
v -0.110862 -3.504983 -3.362614
v -0.000002 -4.111065 -3.463958
v -0.000002 -1.190917 -2.238320
v -0.165106 -0.749835 -2.277449
v -0.110862 -2.306118 -2.639171
v -0.000002 -2.694486 -2.520350
v -0.000002 1.743319 -2.702699
v 0.167973 0.959056 -2.412235
v 0.110857 1.799287 -3.345328
v -0.000002 2.579065 -3.662056
v -0.110862 2.262379 -4.262395
v -0.000002 3.111232 -4.589298
v -0.000004 3.662261 -6.665070
v -0.110863 2.909354 -6.213617
v -0.000002 -0.919998 -3.964741
v -0.110862 -0.943626 -3.765019
v -0.110863 -0.645133 -5.803586
v -0.000004 -0.778588 -5.980167
v -0.110862 0.988180 -3.213304
v -0.110862 1.799287 -3.345328
v -0.110862 2.262379 -4.262395
v -0.110862 0.337053 -3.966222
v -0.110862 1.799287 -3.345328
v -0.000002 2.579065 -3.662056
v -0.000002 3.111232 -4.589298
v -0.110862 2.262379 -4.262395
v 0.110857 -0.029032 -3.038383
v 0.110857 -2.306118 -2.639171
v 0.110857 -3.504983 -3.362614
v 0.110857 -2.224305 -3.563818
v -0.000002 2.579065 -3.662056
v 0.110857 1.799287 -3.345328
v 0.110857 2.262379 -4.262395
v -0.000002 3.111232 -4.589298
v -0.110862 -0.943626 -3.765019
v -0.110862 -2.224305 -3.563818
v -0.110862 -0.029032 -3.038383
v 0.165102 -0.749835 -2.277449
v 0.110857 -0.029032 -3.038383
v 0.110857 0.988180 -3.213304
v 0.167973 0.959056 -2.412235
v 0.110856 -4.442128 -5.191257
v 0.110856 -3.233114 -5.878912
v -0.110862 -0.943626 -3.765019
v -0.000002 -0.919998 -3.964741
v -0.000004 -1.560300 -5.837114
v -0.110863 -1.880772 -5.593661
v 0.110857 -0.029032 -3.038383
v 0.165102 -0.749835 -2.277449
v 0.110857 -2.306118 -2.639171
v -0.000004 0.789939 -6.916077
v -0.000004 3.662261 -6.665070
v 0.110856 2.909354 -6.213617
v 0.110856 0.702189 -6.707917
v -0.110863 0.702189 -6.707917
v -0.110863 2.909354 -6.213617
v -0.000004 3.662261 -6.665070
v -0.000004 0.789939 -6.916077
v 0.110857 0.337053 -3.966222
v 0.110857 -0.943626 -3.765019
v 0.110856 -0.645133 -5.803586
v 0.110856 0.702189 -6.707917
v -0.000002 3.111232 -4.589298
v 0.110857 2.262379 -4.262395
v 0.110856 2.909354 -6.213617
v -0.000004 3.662261 -6.665070
v 0.110857 -0.943626 -3.765019
v -0.000002 -0.919998 -3.964741
v -0.000004 -0.778588 -5.980167
v 0.110856 -0.645133 -5.803586
v -0.110863 2.909354 -6.213617
v -0.110863 0.702189 -6.707917
v -0.110863 -3.233114 -5.878912
v -0.110863 -1.880772 -5.593661
v -0.000004 -1.560300 -5.837114
v -0.000004 -3.375921 -6.051311
v -0.000004 -3.375921 -6.051311
v -0.000004 -1.560300 -5.837114
v 0.110856 -1.880772 -5.593661
v 0.110856 -3.233114 -5.878912
v -0.000002 -0.919998 -3.964741
v 0.110857 -0.943626 -3.765019
v 0.110856 -1.880772 -5.593661
v -0.000004 -1.560300 -5.837114
v -0.000002 -4.111065 -3.463958
v -0.110862 -3.504983 -3.362614
v -0.110863 -4.442128 -5.191257
v -0.000004 -5.048210 -5.292601
v 0.110857 -3.504983 -3.362614
v -0.000002 -4.111065 -3.463958
v -0.000004 -5.048210 -5.292601
v 0.110856 -4.442128 -5.191257
v -0.110863 -1.880772 -5.593661
v -0.110863 -3.233114 -5.878912
v -0.110862 -3.504983 -3.362614
v -0.110863 -4.442128 -5.191257
v -0.000004 -5.048210 -5.292601
v -0.000004 -3.375921 -6.051311
v 0.110856 -3.233114 -5.878912
v 0.110856 -4.442128 -5.191257
v -0.110863 -4.442128 -5.191257
v -0.110863 -3.233114 -5.878912
v -0.000004 -3.375921 -6.051311
v -0.000004 -5.048210 -5.292601
v -0.110862 -0.029032 -3.038383
v -0.165106 -0.749835 -2.277449
v -0.167977 0.959056 -2.412235
v -0.110862 0.988180 -3.213304
v -0.165106 -0.749835 -2.277449
v -0.110862 -0.029032 -3.038383
v -0.110862 -2.306118 -2.639171
v 0.110856 -1.880772 -5.593661
v -0.110862 -2.306118 -2.639171
v -0.110863 -0.645133 -5.803586
v 0.110857 2.262379 -4.262395
v 0.110856 2.909354 -6.213617
v -0.110863 -0.645133 -5.803586
v -0.110863 0.702189 -6.707917
v -0.000004 0.789939 -6.916077
v -0.000004 -0.778588 -5.980167
v -0.000004 -0.778588 -5.980167
v -0.000004 0.789939 -6.916077
v 0.110856 0.702189 -6.707917
v 0.110856 -0.645133 -5.803586
v 0.110857 1.799287 -3.345328
v 0.110857 0.988180 -3.213304
v 0.110857 0.988180 -3.213304
v 0.110857 1.799287 -3.345328
v 0.167973 0.959056 -2.412235
v -0.110862 0.988180 -3.213304
v -0.167977 0.959056 -2.412235
v -0.110862 1.799287 -3.345328
v 1.795880 -3.461262 3.281894
v 1.695664 -2.661087 4.521540
v 1.991044 -3.378597 4.304016
v 2.416463 -4.330626 3.409626
v -1.788689 -3.461262 3.281895
v -1.888907 -3.630908 1.949359
v -2.173666 -4.153201 2.291609
v -2.309696 -4.259573 3.395015
v 1.896098 -3.630908 1.949357
v 1.795880 -3.461262 3.281894
v 2.416463 -4.330626 3.409626
v 2.255563 -4.274934 2.308012
v -1.688470 -2.661087 4.521543
v -1.788689 -3.461262 3.281895
v -2.309696 -4.259573 3.395015
v -1.932912 -3.291179 4.307583
v -1.688470 -1.268417 4.030333
v -1.788689 -1.712083 3.024204
v -1.788689 -3.461262 3.281895
v -1.688470 -2.661087 4.521543
v -1.788689 -1.712083 3.024204
v -1.888907 -2.155749 2.018076
v -1.888907 -3.630908 1.949359
v -1.788689 -3.461262 3.281895
v 1.896098 -2.155749 2.018074
v 1.795880 -1.712083 3.024203
v 1.795880 -3.461262 3.281894
v 1.896098 -3.630908 1.949357
v 1.795880 -1.712083 3.024203
v 1.695663 -1.268417 4.030332
v 1.695664 -2.661087 4.521540
v 1.795880 -3.461262 3.281894
v 1.649274 -3.464363 3.261558
v 2.297491 -4.439585 3.434955
v 1.872072 -3.487556 4.329344
v 1.549057 -2.664188 4.501205
v -1.642082 -3.464362 3.261559
v -2.183446 -4.355634 3.413602
v -2.047415 -4.249262 2.310195
v -1.742301 -3.634008 1.929022
v 1.749491 -3.634008 1.929020
v 2.136591 -4.383893 2.333340
v 2.297491 -4.439585 3.434955
v 1.649274 -3.464363 3.261558
v -1.541864 -2.664188 4.501206
v -1.806661 -3.387240 4.326169
v -2.183446 -4.355634 3.413602
v -1.642082 -3.464362 3.261559
v -1.541864 -1.271517 4.009997
v -1.541864 -2.664188 4.501206
v -1.642082 -3.464362 3.261559
v -1.642082 -1.715183 3.003868
v -1.642082 -1.715183 3.003868
v -1.642082 -3.464362 3.261559
v -1.742301 -3.634008 1.929022
v -1.742300 -2.158850 1.997740
v 1.749491 -2.158850 1.997739
v 1.749491 -3.634008 1.929020
v 1.649274 -3.464363 3.261558
v 1.649274 -1.715183 3.003867
v 1.649274 -1.715183 3.003867
v 1.649274 -3.464363 3.261558
v 1.549057 -2.664188 4.501205
v 1.549057 -1.271517 4.009996
v 2.416463 -4.330626 3.409626
v 2.297491 -4.439585 3.434955
v 2.136591 -4.383893 2.333340
v 2.255563 -4.274934 2.308012
v -1.788689 -1.712083 3.024204
v -1.642082 -1.715183 3.003868
v -1.742300 -2.158850 1.997740
v -1.888907 -2.155749 2.018076
v 1.896098 -3.630908 1.949357
v 1.749491 -3.634008 1.929020
v 1.749491 -2.158850 1.997739
v 1.896098 -2.155749 2.018074
v 2.255563 -4.274934 2.308012
v 2.136591 -4.383893 2.333340
v 1.749491 -3.634008 1.929020
v 1.896098 -3.630908 1.949357
v -2.173666 -4.153201 2.291609
v -2.047415 -4.249262 2.310195
v -2.183446 -4.355634 3.413602
v -2.309696 -4.259573 3.395015
v 1.695664 -2.661087 4.521540
v 1.549057 -2.664188 4.501205
v 1.872072 -3.487556 4.329344
v 1.991044 -3.378597 4.304016
v 1.695663 -1.268417 4.030332
v 1.549057 -1.271517 4.009996
v 1.549057 -2.664188 4.501205
v 1.695664 -2.661087 4.521540
v -1.688470 -2.661087 4.521543
v -1.541864 -2.664188 4.501206
v -1.541864 -1.271517 4.009997
v -1.688470 -1.268417 4.030333
v -1.932912 -3.291179 4.307583
v -1.806661 -3.387240 4.326169
v -1.541864 -2.664188 4.501206
v -1.688470 -2.661087 4.521543
v -1.888907 -3.630908 1.949359
v -1.742301 -3.634008 1.929022
v -2.047415 -4.249262 2.310195
v -2.173666 -4.153201 2.291609
v -1.688470 -1.268417 4.030333
v -1.541864 -1.271517 4.009997
v -1.888907 -2.155749 2.018076
v -1.742300 -2.158850 1.997740
v -1.742301 -3.634008 1.929022
v -1.888907 -3.630908 1.949359
v 1.795880 -1.712083 3.024203
v 1.649274 -1.715183 3.003867
v 1.549057 -1.271517 4.009996
v 1.695663 -1.268417 4.030332
v 1.896098 -2.155749 2.018074
v 1.749491 -2.158850 1.997739
v 1.991044 -3.378597 4.304016
v 1.872072 -3.487556 4.329344
v 2.297491 -4.439585 3.434955
v 2.416463 -4.330626 3.409626
v -2.309696 -4.259573 3.395015
v -2.183446 -4.355634 3.413602
v -1.806661 -3.387240 4.326169
v -1.932912 -3.291179 4.307583
v -0.000001 2.716773 -0.929062
v 0.052614 2.729221 -0.844565
v 0.060832 3.038221 1.252893
v 0.000000 3.038221 1.252893
v 0.056699 5.522305 2.759147
v 0.065552 4.536602 0.602203
v 0.065551 6.321746 -1.874622
v 0.056698 6.494599 0.277390
v 0.052616 3.347221 3.350352
v 0.000001 3.359669 3.434849
v -0.060832 3.038221 1.252893
v -0.052614 3.347221 3.350352
v -0.052616 2.729221 -0.844565
v -0.000001 3.511192 -1.641636
v -0.056699 3.550902 -1.554742
v -0.056700 4.756617 -2.452060
v -0.000002 4.721609 -2.507039
v -0.056699 3.550902 -1.554742
v -0.065552 4.536602 0.602203
v -0.065553 6.321746 -1.874622
v -0.056700 4.756617 -2.452060
v 0.065552 4.536602 0.602203
v 0.056697 3.550902 -1.554742
v 0.056696 4.756617 -2.452060
v 0.065551 6.321746 -1.874622
v 0.052614 2.729221 -0.844565
v -0.000001 2.716773 -0.929062
v -0.000001 3.511192 -1.641636
v 0.056697 3.550902 -1.554742
v 0.000001 3.359669 3.434849
v 0.052616 3.347221 3.350352
v 0.056699 5.522305 2.759147
v 0.000001 5.562015 2.846041
v -0.060832 3.038221 1.252893
v -0.052614 3.347221 3.350352
v -0.056697 5.522305 2.759147
v -0.065552 4.536602 0.602203
v -0.052616 2.729221 -0.844565
v -0.060832 3.038221 1.252893
v -0.065552 4.536602 0.602203
v -0.056699 3.550902 -1.554742
v -0.000001 2.716773 -0.929062
v -0.052616 2.729221 -0.844565
v -0.056699 3.550902 -1.554742
v -0.000001 3.511192 -1.641636
v 0.052616 3.347221 3.350352
v 0.060832 3.038221 1.252893
v 0.065552 4.536602 0.602203
v 0.056699 5.522305 2.759147
v 0.060832 3.038221 1.252893
v 0.052614 2.729221 -0.844565
v 0.056697 3.550902 -1.554742
v 0.065552 4.536602 0.602203
v -0.052614 3.347221 3.350352
v 0.000001 3.359669 3.434849
v 0.000001 5.562015 2.846041
v -0.056697 5.522305 2.759147
v -0.000001 6.321746 -1.874622
v 0.000000 6.529606 0.332368
v 0.056698 6.494599 0.277390
v 0.065551 6.321746 -1.874622
v -0.000002 4.721609 -2.507039
v -0.000001 6.321746 -1.874622
v 0.065551 6.321746 -1.874622
v 0.056696 4.756617 -2.452060
v -0.065553 6.321746 -1.874622
v -0.056698 6.494599 0.277390
v 0.000000 6.529606 0.332368
v -0.000001 6.321746 -1.874622
v -0.056700 4.756617 -2.452060
v -0.065553 6.321746 -1.874622
v -0.000001 6.321746 -1.874622
v -0.000002 4.721609 -2.507039
v -0.065552 4.536602 0.602203
v -0.056697 5.522305 2.759147
v -0.056698 6.494599 0.277390
v -0.065553 6.321746 -1.874622
v -0.056697 5.522305 2.759147
v 0.000001 5.562015 2.846041
v 0.000000 6.529606 0.332368
v -0.056698 6.494599 0.277390
v 0.056697 3.550902 -1.554742
v -0.000001 3.511192 -1.641636
v -0.000002 4.721609 -2.507039
v 0.056696 4.756617 -2.452060
v 0.000001 5.562015 2.846041
v 0.056699 5.522305 2.759147
v 0.056698 6.494599 0.277390
v 0.000000 6.529606 0.332368
vn 0.4113 -0.9017 -0.1332
vn 0.3809 -0.9104 -0.1612
vn 0.4064 -0.9032 -0.1379
vn 0.4349 -0.8936 -0.1110
vn 0.4061 0.9135 -0.0242
vn 0.4047 0.9141 -0.0256
vn 0.3963 0.9175 -0.0340
vn 0.4171 0.9088 -0.0131
vn 0.9850 -0.0805 0.1527
vn 0.9710 -0.1374 0.1956
vn 0.9909 -0.0458 0.1263
vn 0.9945 -0.0157 0.1033
vn 0.4185 -0.6470 -0.6374
vn 0.4111 -0.6634 -0.6252
vn 0.4229 -0.6371 -0.6445
vn 0.4056 -0.6753 -0.6160
vn -0.9932 -0.0023 -0.1166
vn -0.9935 -0.0687 -0.0906
vn -0.9920 0.0190 -0.1248
vn -0.9925 -0.0900 -0.0821
vn 0.3273 0.4443 0.8340
vn 0.3143 0.3580 0.8792
vn 0.3407 0.4501 0.8254
vn 0.3804 0.4828 0.7888
vn 0.3624 0.4778 0.8002
vn 0.7933 0.3562 -0.4938
vn 0.9784 0.1621 -0.1282
vn 0.5970 0.4404 -0.6706
vn 0.4321 0.4794 -0.7638
vn -0.4576 -0.5794 -0.6745
vn -0.5217 -0.4482 -0.7259
vn -0.4053 -0.6644 -0.6280
vn -0.5798 -0.2847 -0.7634
vn 0.4702 -0.5619 -0.6806
vn 0.6093 -0.5189 -0.5996
vn 0.3996 -0.5769 -0.7124
vn 0.8717 -0.3561 -0.3366
vn -0.5970 0.4404 -0.6706
vn -0.7933 0.3562 -0.4938
vn -0.4321 0.4794 -0.7638
vn -0.9784 0.1621 -0.1282
vn -0.3859 0.4505 0.8051
vn -0.3735 0.4606 0.8052
vn -0.3595 0.4661 0.8084
vn -0.2754 0.5018 0.8200
vn -0.3415 0.4715 0.8131
vn -0.4215 -0.6595 -0.6224
vn -0.4113 -0.6496 -0.6394
vn -0.4296 -0.6671 -0.6086
vn -0.4044 -0.6430 -0.6504
vn -0.4054 0.9138 -0.0260
vn -0.4041 0.9144 -0.0248
vn -0.3956 0.9183 -0.0167
vn -0.4135 0.9099 -0.0337
vn -0.4129 -0.9001 -0.1390
vn -0.3861 -0.9154 -0.1137
vn -0.4082 -0.9029 -0.1345
vn -0.4405 -0.8824 -0.1654
vn -0.4064 -0.8251 0.3925
vn -0.4349 -0.8237 0.3640
vn -0.4113 -0.8250 0.3876
vn -0.3809 -0.8253 0.4169
vn -0.4047 0.8826 -0.2391
vn -0.4061 0.8817 -0.2403
vn -0.4171 0.8740 -0.2495
vn -0.3963 0.8883 -0.2321
vn -0.9850 -0.0805 0.1527
vn -0.9909 -0.0458 0.1264
vn -0.9710 -0.1374 0.1956
vn -0.9945 -0.0157 0.1033
vn 0.9932 -0.0023 -0.1166
vn 0.9920 0.0190 -0.1248
vn 0.9935 -0.0687 -0.0906
vn 0.9925 -0.0900 -0.0821
vn 0.4041 0.8827 -0.2400
vn 0.4054 0.8824 -0.2386
vn 0.4135 0.8809 -0.2302
vn 0.3956 0.8841 -0.2488
vn 0.4082 -0.8258 0.3892
vn 0.4405 -0.7972 0.4128
vn 0.4129 -0.8218 0.3927
vn 0.3861 -0.8437 0.3729
vn -0.9944 -0.0147 -0.1046
vn -0.9934 -0.0097 -0.1144
vn -0.9910 0.0003 -0.1337
vn -0.9957 -0.0220 -0.0905
vn -0.7004 -0.0189 -0.7135
vn -0.7024 -0.0210 -0.7115
vn -0.7320 -0.0548 -0.6791
vn -0.6811 0.0019 -0.7322
vn 0.9944 0.0413 0.0972
vn 0.9912 0.0313 0.1285
vn 0.9935 0.0381 0.1073
vn 0.9959 0.0475 0.0776
vn 0.4458 -0.4765 0.7578
vn 0.4345 -0.4951 0.7524
vn 0.4171 -0.5001 0.7589
vn 0.3620 -0.5359 0.7628
vn 0.4201 -0.4906 0.7634
vn 0.9944 -0.0147 -0.1046
vn 0.9910 0.0003 -0.1337
vn 0.9934 -0.0097 -0.1144
vn 0.9957 -0.0220 -0.0905
vn -0.9944 0.0413 0.0972
vn -0.9935 0.0381 0.1073
vn -0.9912 0.0313 0.1285
vn -0.9959 0.0475 0.0776
vn 0.7004 -0.0189 -0.7135
vn 0.7320 -0.0548 -0.6791
vn 0.7024 -0.0210 -0.7115
vn 0.6811 0.0019 -0.7322
vn -0.4010 -0.4943 0.7712
vn -0.4375 -0.5169 0.7358
vn -0.4283 -0.4974 0.7545
vn -0.4764 -0.4833 0.7344
vn -0.3967 -0.4774 0.7841
vn -0.7061 -0.7081 0.0054
vn 0.6525 0.7568 0.0381
vn -0.3145 -0.3690 0.8746
vn -0.2993 -0.3330 0.8942
vn -0.3055 -0.3475 0.8865
vn -0.3166 -0.3740 0.8717
vn 0.3421 0.3332 0.8786
vn 0.3168 0.2847 0.9047
vn 0.3265 0.3031 0.8953
vn 0.3453 0.3396 0.8749
vn -0.3212 0.3122 0.8941
vn -0.3675 0.3365 0.8670
vn -0.3510 0.3279 0.8771
vn -0.3149 0.3089 0.8975
vn 0.3013 -0.3538 0.8854
vn 0.3324 -0.3719 0.8667
vn 0.3213 -0.3654 0.8736
vn 0.2968 -0.3511 0.8880
vn 0.7061 -0.7081 0.0054
vn -0.6525 0.7568 0.0381
vn -0.0444 0.9694 0.2414
vn 0.1073 -0.5123 -0.8521
vn -0.0444 -0.8586 0.5107
vn -0.1073 0.5123 0.8521
vn 0.1073 0.2449 -0.9636
vn 0.0444 -0.9694 -0.2414
vn -0.1073 -0.2449 0.9636
vn -0.1073 -0.2448 0.9636
vn 0.0444 0.8586 -0.5107
vn -0.9932 -0.0169 -0.1149
vn 0.9932 0.0169 0.1149
vn 0.6709 0.6974 0.2519
vn 0.6265 0.3742 0.6837
vn 0.6265 -0.1612 0.7626
vn 0.6709 -0.5952 0.4423
vn 0.7337 -0.6735 -0.0895
vn 0.7782 -0.3503 -0.5213
vn 0.7782 0.1851 -0.6001
vn 0.7337 0.6191 -0.2799
vn 0.0444 0.9694 0.2414
vn -0.1073 -0.5123 -0.8521
vn 0.0444 -0.8586 0.5107
vn 0.1073 0.5123 0.8521
vn -0.1073 0.2449 -0.9636
vn -0.0444 -0.9694 -0.2414
vn 0.1073 -0.2449 0.9636
vn -0.0444 0.8586 -0.5107
vn 0.9932 -0.0169 -0.1149
vn -0.9932 0.0169 0.1149
vn -0.6709 0.6974 0.2519
vn -0.6265 0.3742 0.6837
vn -0.6265 -0.1612 0.7626
vn -0.6709 -0.5952 0.4423
vn -0.7337 -0.6735 -0.0894
vn -0.7782 -0.3503 -0.5213
vn -0.7782 0.1851 -0.6001
vn -0.7337 0.6191 -0.2799
vn -0.7084 0.7058 0.0032
vn 0.7123 0.7018 0.0110
vn 0.7186 0.6951 0.0230
vn 0.7146 0.6994 0.0153
vn 0.7084 0.7058 0.0038
vn 0.7084 0.7058 0.0032
vn -0.0000 -0.0196 0.9998
vn -0.0000 0.1134 0.9935
vn -0.0000 -0.1371 0.9906
vn -0.7146 0.6994 0.0153
vn -0.7123 0.7018 0.0110
vn -0.7084 0.7058 0.0038
vn -0.7186 0.6951 0.0230
vn 0.6509 -0.7588 -0.0230
vn 0.6494 -0.7602 -0.0201
vn 0.6504 -0.7593 -0.0220
vn 0.6520 -0.7578 -0.0250
vn -0.6509 -0.7588 -0.0220
vn -0.6490 -0.7604 -0.0251
vn -0.6503 -0.7593 -0.0230
vn -0.6521 -0.7578 -0.0200
vn 0.6519 -0.7577 -0.0295
vn -0.6519 -0.7577 -0.0295
vn 0.8566 -0.1349 0.4981
vn 0.8991 -0.1286 0.4185
vn 0.6814 -0.1474 0.7169
vn 0.5872 -0.1492 0.7956
vn -0.9485 0.2565 0.1860
vn -0.9563 0.2265 0.1847
vn -0.9442 0.2713 0.1865
vn -0.9600 0.2112 0.1840
vn 0.9161 -0.2118 0.3404
vn 0.8981 -0.2272 0.3766
vn 0.9373 -0.1909 0.2917
vn 0.9430 -0.1845 0.2769
vn -0.9373 -0.1909 0.2917
vn -0.9161 -0.2118 0.3404
vn -0.9430 -0.1845 0.2769
vn -0.8981 -0.2272 0.3766
vn -0.6814 -0.1474 0.7169
vn -0.8566 -0.1349 0.4981
vn -0.5872 -0.1492 0.7956
vn -0.8991 -0.1286 0.4185
vn 0.9563 0.2265 0.1847
vn 0.9600 0.2112 0.1840
vn 0.9485 0.2565 0.1860
vn 0.9442 0.2713 0.1865
vn -0.9872 0.1522 0.0485
vn -0.9847 0.1678 0.0464
vn -0.9878 0.1479 0.0490
vn -0.9840 0.1723 0.0457
vn -0.7830 -0.6203 -0.0455
vn -0.7954 -0.6046 -0.0424
vn -0.0784 -0.9866 -0.1428
vn -0.0501 -0.9882 -0.1447
vn -1.0000 -0.0000 -0.0000
vn -0.9811 0.1709 0.0910
vn -0.9813 0.1689 0.0921
vn -0.9805 0.1754 0.0886
vn -0.9818 0.1646 0.0945
vn 1.0000 -0.0000 -0.0000
vn 0.9813 0.1689 0.0921
vn 0.9818 0.1646 0.0945
vn 0.9811 0.1709 0.0910
vn 0.9805 0.1754 0.0886
vn 0.9972 -0.0090 -0.0746
vn 0.9974 -0.0073 -0.0714
vn 0.9970 -0.0105 -0.0772
vn 0.9963 -0.0146 -0.0848
vn -0.7391 0.6010 -0.3042
vn -0.9539 0.2825 -0.1017
vn -0.7111 0.6257 -0.3207
vn -0.9604 0.2637 -0.0902
vn 0.9963 -0.0149 -0.0852
vn 0.9752 0.0221 -0.2204
vn 0.8949 0.0975 -0.4355
vn 0.9088 0.0877 -0.4080
vn 0.9776 0.0183 -0.2095
vn -0.9752 0.0221 -0.2204
vn -0.9088 0.0877 -0.4080
vn -0.8949 0.0975 -0.4355
vn -0.9776 0.0183 -0.2095
vn 0.9847 0.1678 0.0464
vn 0.9840 0.1723 0.0457
vn 0.9872 0.1522 0.0485
vn 0.9878 0.1479 0.0490
vn 0.7870 -0.6111 -0.0849
vn 0.8180 -0.5692 -0.0833
vn 0.0627 -0.9950 -0.0773
vn -0.0862 -0.9938 -0.0697
vn -0.9240 0.0476 -0.3794
vn -0.8211 0.1105 -0.5600
vn -0.7823 0.1286 -0.6095
vn -0.9295 0.0432 -0.3664
vn 0.9240 0.0476 -0.3794
vn 0.7823 0.1286 -0.6095
vn 0.8211 0.1105 -0.5600
vn 0.9295 0.0432 -0.3664
vn 0.9539 0.2825 -0.1017
vn 0.9604 0.2637 -0.0902
vn 0.7391 0.6010 -0.3042
vn 0.7111 0.6257 -0.3207
vn -0.9757 -0.1952 0.1000
vn 0.9757 -0.1952 0.1000
vn 0.9027 -0.1812 -0.3903
vn 0.9615 -0.1359 -0.2390
vn 0.9497 -0.1473 -0.2764
vn 0.8897 -0.1887 -0.4158
vn -0.9027 -0.1812 -0.3903
vn -0.9497 -0.1473 -0.2764
vn -0.9615 -0.1359 -0.2389
vn -0.8897 -0.1887 -0.4158
vn -0.9970 -0.0105 -0.0772
vn -0.9972 -0.0090 -0.0746
vn -0.9963 -0.0146 -0.0848
vn -0.9974 -0.0073 -0.0714
vn -0.9963 -0.0149 -0.0852
vn -0.7789 -0.3226 -0.5378
vn -0.8865 -0.2558 -0.3855
vn -0.8938 -0.2499 -0.3723
vn -0.7700 -0.3269 -0.5479
vn 0.7789 -0.3226 -0.5379
vn 0.8938 -0.2499 -0.3723
vn 0.8865 -0.2558 -0.3855
vn 0.7700 -0.3269 -0.5479
vn 0.9974 -0.0116 -0.0715
vn -0.9974 -0.0116 -0.0715
vn 0.8612 0.4663 -0.2022
vn 0.8112 0.5498 -0.1994
vn 0.8330 0.5156 -0.2007
vn 0.8823 0.4247 -0.2028
vn -0.8664 0.4981 -0.0356
vn -0.8537 0.5202 -0.0223
vn -0.8378 0.5459 -0.0065
vn -0.8939 0.4431 -0.0675
vn 0.8424 0.5371 -0.0428
vn 0.8925 0.4379 -0.1082
vn 0.8544 0.5165 -0.0570
vn 0.8147 0.5797 -0.0125
vn -0.8474 0.4915 -0.2007
vn -0.8759 0.4409 -0.1963
vn -0.8908 0.4113 -0.1934
vn -0.8330 0.5149 -0.2025
vn -0.9966 0.0212 0.0801
vn -0.9968 0.0180 0.0782
vn -0.9958 0.0303 0.0858
vn -0.9972 0.0108 0.0736
vn -0.9963 0.0068 0.0860
vn -0.9966 0.0034 0.0826
vn -0.9956 0.0137 0.0931
vn -0.9971 -0.0035 0.0754
vn 0.9966 0.0034 0.0826
vn 0.9971 -0.0035 0.0754
vn 0.9963 0.0068 0.0860
vn 0.9956 0.0137 0.0931
vn 0.9968 0.0180 0.0782
vn 0.9972 0.0108 0.0736
vn 0.9966 0.0212 0.0801
vn 0.9958 0.0303 0.0858
vn -0.8612 -0.4737 0.1842
vn -0.8805 -0.4537 0.1375
vn -0.8252 -0.5027 0.2577
vn -0.9335 -0.3517 -0.0697
vn 0.8800 -0.4747 0.0167
vn 0.8934 -0.4492 -0.0100
vn 0.8723 -0.4880 0.0310
vn 0.8576 -0.5113 0.0564
vn -0.8664 -0.4979 0.0384
vn -0.8609 -0.5064 0.0497
vn -0.8868 -0.4620 -0.0079
vn -0.8367 -0.5393 0.0950
vn 0.8736 -0.4502 0.1849
vn 0.8477 -0.4743 0.2376
vn 0.8955 -0.4249 0.1326
vn 0.9409 -0.3372 -0.0307
vn 0.9968 -0.0192 -0.0771
vn 0.9956 -0.0137 -0.0931
vn 0.9966 -0.0180 -0.0808
vn 0.9976 -0.0232 -0.0657
vn 0.9965 -0.0057 -0.0828
vn 0.9949 0.0047 -0.1012
vn 0.9962 -0.0031 -0.0873
vn 0.9972 -0.0108 -0.0736
vn -0.9965 -0.0057 -0.0828
vn -0.9962 -0.0031 -0.0873
vn -0.9949 0.0047 -0.1012
vn -0.9972 -0.0108 -0.0736
vn -0.9968 -0.0192 -0.0771
vn -0.9966 -0.0180 -0.0808
vn -0.9956 -0.0137 -0.0931
vn -0.9976 -0.0232 -0.0657
vn 0.6538 -0.7448 -0.1332
vn -0.0361 0.9157 -0.4002
vn 0.1363 0.0461 -0.9896
vn 0.1716 -0.4035 -0.8987
vn 0.1373 -0.4148 -0.8995
vn 0.1767 -0.4018 -0.8985
vn 0.1336 -0.4160 -0.8995
vn -0.5848 -0.7974 -0.1490
vn 0.2761 -0.1614 0.9475
vn 0.3320 -0.1459 0.9319
vn -0.0848 -0.2428 0.9664
vn -0.1278 -0.2505 0.9597
vn -0.1365 0.3295 0.9342
vn -0.1366 0.3295 0.9342
vn 0.1366 0.3295 0.9342
vn 0.0638 -0.3306 0.9416
vn 0.1207 -0.3608 0.9248
vn -0.2122 -0.1651 0.9632
vn -0.2484 -0.1410 0.9583
vn -0.1437 -0.4836 -0.8634
vn -0.1984 -0.4450 -0.8733
vn -0.1298 -0.4930 -0.8603
vn -0.2058 -0.4396 -0.8743
vn -0.1363 0.0461 -0.9896
vn 0.0361 0.9157 -0.4002
vn 0.5469 -0.4303 0.7181
vn -0.4824 -0.4940 0.7234
vn -0.0000 -0.9893 0.1457
vn 1.0000 0.0053 0.0028
vn 1.0000 0.0087 0.0034
vn 1.0000 0.0048 0.0027
vn 1.0000 0.0035 0.0025
vn -0.8521 -0.3048 -0.4255
vn -0.7590 -0.3884 -0.5226
vn -0.8558 -0.3009 -0.4209
vn -0.7536 -0.3924 -0.5273
vn -1.0000 -0.0034 -0.0031
vn -1.0000 -0.0036 -0.0032
vn -1.0000 -0.0023 -0.0031
vn -1.0000 -0.0045 -0.0032
vn 1.0000 -0.0036 -0.0032
vn 1.0000 -0.0045 -0.0032
vn 1.0000 -0.0034 -0.0031
vn 1.0000 -0.0023 -0.0031
vn 0.8475 -0.3498 -0.3991
vn 0.8501 -0.3467 -0.3963
vn 0.8085 -0.3925 -0.4384
vn 0.8043 -0.3968 -0.4424
vn 0.8566 0.1333 0.4985
vn 0.8568 0.1332 0.4982
vn 0.8501 0.1366 0.5087
vn 0.8498 0.1368 0.5090
vn -1.0000 -0.0014 0.0041
vn -1.0000 -0.0007 0.0044
vn -1.0000 -0.0049 -0.0024
vn -1.0000 -0.0059 -0.0025
vn -1.0000 -0.0074 -0.0028
vn -1.0000 -0.0041 -0.0022
vn -0.8085 -0.3925 -0.4384
vn -0.8475 -0.3498 -0.3991
vn -0.8043 -0.3968 -0.4424
vn -0.8501 -0.3467 -0.3963
vn 1.0000 -0.0007 0.0044
vn 1.0000 -0.0014 0.0041
vn 1.0000 -0.0059 -0.0025
vn 1.0000 -0.0041 -0.0022
vn 1.0000 -0.0049 -0.0024
vn 1.0000 -0.0074 -0.0028
vn -0.8501 0.1366 0.5087
vn -0.8566 0.1333 0.4985
vn -0.8498 0.1368 0.5090
vn -0.8568 0.1332 0.4982
vn 0.4603 0.8850 -0.0697
vn 0.0088 0.9956 -0.0935
vn -0.0000 0.9956 -0.0938
vn 0.4752 0.8772 -0.0685
vn 0.0146 0.3466 -0.9379
vn 0.5512 0.3063 -0.7761
vn 0.5594 0.3047 -0.7709
vn -0.0000 0.3461 -0.9382
vn -0.4586 0.8848 -0.0831
vn -0.0088 0.9967 -0.0803
vn -0.0000 0.9968 -0.0801
vn -0.4640 0.8819 -0.0831
vn -0.0146 0.3670 -0.9301
vn -0.5534 0.2864 -0.7821
vn -0.5731 0.2808 -0.7699
vn -0.0000 0.3676 -0.9300
vn -1.0000 0.0048 0.0027
vn -1.0000 0.0053 0.0028
vn -1.0000 0.0035 0.0025
vn -1.0000 0.0087 0.0034
vn -0.7685 0.5958 0.2333
vn -0.6818 0.6827 0.2629
vn -0.7711 0.5928 0.2322
vn -0.6789 0.6852 0.2638
vn 0.7590 -0.3884 -0.5226
vn 0.7536 -0.3924 -0.5273
vn 0.8521 -0.3048 -0.4255
vn 0.8558 -0.3009 -0.4209
vn 0.6817 0.6827 0.2629
vn 0.6789 0.6852 0.2638
vn 0.7685 0.5958 0.2333
vn 0.7711 0.5928 0.2322
vt 0.519657 0.827222
vt 0.401438 0.828492
vt 0.401437 0.708048
vt 0.544205 0.723109
vt 0.854935 0.475164
vt 0.740538 0.336101
vt 0.860981 0.336101
vt 0.750982 0.449951
vt 0.599367 0.202046
vt 0.548343 0.119970
vt 0.548343 0.001743
vt 0.603093 0.035982
vt 0.060919 0.841713
vt 0.015631 0.945501
vt 0.001711 0.839443
vt 0.060919 0.946267
vt 0.617961 0.565527
vt 0.652330 0.433641
vt 0.680257 0.548522
vt 0.617961 0.404140
vt 0.488363 0.459968
vt 0.447216 0.488363
vt 0.387121 0.471426
vt 0.385337 0.301873
vt 0.488363 0.273106
vt 0.741175 0.504581
vt 0.696247 0.511715
vt 0.654608 0.428801
vt 0.741175 0.365968
vt 0.615277 0.885349
vt 0.493134 0.860287
vt 0.542670 0.810118
vt 0.490474 0.885349
vt 0.448766 0.541890
vt 0.374658 0.592940
vt 0.374658 0.468137
vt 0.399859 0.592673
vt 0.654608 0.605240
vt 0.741175 0.529460
vt 0.741175 0.668073
vt 0.696247 0.522325
vt 0.545221 0.029398
vt 0.545221 0.216261
vt 0.442213 0.187428
vt 0.443784 0.017874
vt 0.503948 0.001185
vt 0.214924 0.946267
vt 0.274133 0.839472
vt 0.260212 0.945529
vt 0.214924 0.841713
vt 0.842392 0.114896
vt 0.732416 0.001048
vt 0.852859 0.001048
vt 0.738439 0.140113
vt 0.084681 0.727353
vt 0.227429 0.712109
vt 0.227429 0.832553
vt 0.109208 0.831470
vt 0.703987 0.816308
vt 0.719048 0.673540
vt 0.823160 0.698089
vt 0.824430 0.816308
vt 0.865043 0.592940
vt 0.750645 0.453876
vt 0.854598 0.479090
vt 0.744599 0.592940
vt 0.562481 0.648101
vt 0.362178 0.597077
vt 0.480404 0.597077
vt 0.396416 0.651828
vt 0.545221 0.654512
vt 0.528215 0.716808
vt 0.413335 0.688881
vt 0.383834 0.654512
vt 0.686348 0.720345
vt 0.567848 0.825291
vt 0.547153 0.720345
vt 0.681136 0.840675
vt 0.678270 0.320232
vt 0.691900 0.202794
vt 0.798033 0.189461
vt 0.798033 0.333021
vt 0.168562 0.618323
vt 0.371603 0.481453
vt 0.360360 0.595227
vt 0.168562 0.456936
vt 0.608482 0.040982
vt 0.726961 0.194939
vt 0.603332 0.132252
vt 0.726961 0.001756
vt 0.001198 0.598017
vt 0.001198 0.393501
vt 0.114019 0.412007
vt 0.165495 0.573566
vt 0.435781 0.937187
vt 0.349611 0.938145
vt 0.362096 0.831909
vt 0.458740 0.831909
vt 0.467042 0.893791
vt 0.524962 0.402062
vt 0.548057 0.210265
vt 0.661831 0.199022
vt 0.686349 0.402062
vt 0.614261 0.614262
vt 0.501441 0.428252
vt 0.614261 0.409746
vt 0.449964 0.589811
vt 0.053165 0.592237
vt 0.144436 0.587087
vt 0.207123 0.710716
vt 0.013940 0.710716
vt 0.938145 0.833303
vt 0.938145 0.929947
vt 0.831883 0.942206
vt 0.832860 0.856037
vt 0.876288 0.824820
vt 0.201031 0.324311
vt 0.201031 0.377387
vt 0.191770 0.377695
vt 0.191770 0.324211
vt 0.337082 0.196970
vt 0.327817 0.147099
vt 0.337082 0.146976
vt 0.327817 0.196712
vt 0.215245 0.026234
vt 0.215013 0.055728
vt 0.203522 0.067010
vt 0.203522 0.017398
vt 0.377695 0.012103
vt 0.377512 0.043779
vt 0.365795 0.054827
vt 0.365795 0.001751
vt 0.215053 0.335672
vt 0.215245 0.367348
vt 0.203341 0.377695
vt 0.203341 0.324619
vt 0.341839 0.411083
vt 0.341602 0.381590
vt 0.353327 0.372756
vt 0.353327 0.422368
vt 0.011045 0.389570
vt 0.011045 0.336495
vt 0.020306 0.336395
vt 0.020306 0.389878
vt 0.380613 0.248507
vt 0.389878 0.298242
vt 0.380613 0.298501
vt 0.389878 0.248630
vt 0.229460 0.367542
vt 0.218656 0.353542
vt 0.229460 0.353542
vt 0.218656 0.367542
vt 0.243674 0.369572
vt 0.232870 0.355573
vt 0.243674 0.355573
vt 0.232870 0.369572
vt 0.645085 0.418307
vt 0.645085 0.404308
vt 0.655889 0.404308
vt 0.655889 0.418307
vt 0.080574 0.231490
vt 0.080574 0.217491
vt 0.091378 0.217491
vt 0.091378 0.231490
vt 0.363480 0.016245
vt 0.352677 0.002246
vt 0.363480 0.002246
vt 0.352677 0.016245
vt 0.031839 0.048735
vt 0.031839 0.034736
vt 0.042643 0.034736
vt 0.042643 0.048735
vt 0.326278 0.418307
vt 0.326278 0.404308
vt 0.337082 0.404308
vt 0.337082 0.418307
vt 0.519838 0.416276
vt 0.509034 0.402277
vt 0.519838 0.402277
vt 0.509034 0.416276
vt 0.613716 0.180725
vt 0.603817 0.170826
vt 0.620715 0.163826
vt 0.603817 0.156827
vt 0.613716 0.146928
vt 0.627715 0.146928
vt 0.637614 0.156827
vt 0.637614 0.170826
vt 0.627715 0.180725
vt 0.557211 0.610656
vt 0.552048 0.623120
vt 0.546885 0.610656
vt 0.539585 0.617957
vt 0.539585 0.628282
vt 0.546885 0.635583
vt 0.557211 0.635583
vt 0.564511 0.628282
vt 0.564511 0.617957
vt 0.288167 0.160440
vt 0.294439 0.172602
vt 0.288167 0.170765
vt 0.294439 0.158603
vt 0.174633 0.367757
vt 0.174633 0.381756
vt 0.168361 0.379919
vt 0.168361 0.369594
vt 0.298320 0.184786
vt 0.298320 0.170787
vt 0.304592 0.172624
vt 0.304592 0.182949
vt 0.125718 0.217276
vt 0.125718 0.203277
vt 0.131990 0.205114
vt 0.131990 0.215439
vt 0.034340 0.389878
vt 0.034340 0.375879
vt 0.040612 0.377716
vt 0.040612 0.388041
vt 0.340963 0.156357
vt 0.340963 0.142358
vt 0.347236 0.144195
vt 0.347235 0.154520
vt 0.044493 0.383787
vt 0.044493 0.369787
vt 0.050765 0.371624
vt 0.050765 0.381950
vt 0.373634 0.239828
vt 0.373633 0.253827
vt 0.367361 0.251990
vt 0.367361 0.241665
vt 0.301911 0.168541
vt 0.312715 0.154542
vt 0.312715 0.168541
vt 0.301911 0.154542
vt 0.135401 0.469073
vt 0.146204 0.455073
vt 0.146204 0.469073
vt 0.135401 0.455073
vt 0.105592 0.227429
vt 0.094788 0.227429
vt 0.094788 0.213430
vt 0.105592 0.213430
vt 0.125247 0.233736
vt 0.136051 0.233736
vt 0.136051 0.247735
vt 0.125247 0.247735
vt 0.229460 0.016460
vt 0.218656 0.030459
vt 0.218656 0.016460
vt 0.229460 0.030459
vt 0.605124 0.024367
vt 0.594320 0.024367
vt 0.594320 0.010368
vt 0.605124 0.010368
vt 0.271452 0.164695
vt 0.282256 0.164695
vt 0.282256 0.178694
vt 0.271452 0.178694
vt 0.558420 0.142358
vt 0.547616 0.156357
vt 0.547616 0.142358
vt 0.558420 0.156357
vt 0.439083 0.494163
vt 0.446082 0.511062
vt 0.429184 0.504062
vt 0.429184 0.518061
vt 0.439083 0.527960
vt 0.453082 0.527960
vt 0.462981 0.518062
vt 0.462981 0.504062
vt 0.453082 0.494163
vt 0.706655 0.648416
vt 0.706655 0.658742
vt 0.694191 0.653579
vt 0.699354 0.666042
vt 0.689029 0.666042
vt 0.681728 0.658741
vt 0.681728 0.648416
vt 0.689029 0.641115
vt 0.699354 0.641115
vt 0.355178 0.359419
vt 0.361450 0.347257
vt 0.361450 0.357582
vt 0.355178 0.345420
vt 0.060918 0.385817
vt 0.054646 0.383980
vt 0.054646 0.373655
vt 0.060918 0.371818
vt 0.174453 0.349481
vt 0.180725 0.351318
vt 0.180725 0.361643
vt 0.174453 0.363480
vt 0.253827 0.371603
vt 0.247555 0.369766
vt 0.247555 0.359441
vt 0.253827 0.357604
vt 0.365511 0.225614
vt 0.359239 0.237776
vt 0.359239 0.227451
vt 0.365511 0.239613
vt 0.166511 0.258103
vt 0.160238 0.270266
vt 0.160238 0.259940
vt 0.166511 0.272103
vt 0.064799 0.387848
vt 0.071072 0.375686
vt 0.071072 0.386011
vt 0.064799 0.373849
vt 0.034340 0.371603
vt 0.040612 0.359441
vt 0.040612 0.369766
vt 0.034340 0.357604
vt 0.112534 0.207693
vt 0.121837 0.239565
vt 0.112534 0.239613
vt 0.121837 0.207889
vt 0.572634 0.164566
vt 0.570218 0.196954
vt 0.548971 0.196970
vt 0.548971 0.165050
vt 0.174633 0.048735
vt 0.165330 0.017011
vt 0.174633 0.016815
vt 0.165330 0.048687
vt 0.649797 0.571854
vt 0.647040 0.601467
vt 0.617343 0.603093
vt 0.617343 0.570615
vt 0.706655 0.357389
vt 0.682991 0.324985
vt 0.706655 0.325469
vt 0.685408 0.357373
vt 0.179795 0.649112
vt 0.177912 0.619430
vt 0.201031 0.620076
vt 0.201031 0.649797
vt 0.638862 0.194939
vt 0.640745 0.165258
vt 0.661981 0.164572
vt 0.661981 0.194294
vt 0.027249 0.627124
vt 0.027249 0.597630
vt 0.036551 0.597739
vt 0.036551 0.627461
vt 0.448766 0.554987
vt 0.448766 0.584481
vt 0.439464 0.584818
vt 0.439464 0.555097
vt 0.148563 0.431767
vt 0.160419 0.450833
vt 0.159441 0.536083
vt 0.148563 0.513348
vt 0.400453 0.069789
vt 0.422368 0.042622
vt 0.422368 0.109653
vt 0.402452 0.001967
vt 0.900336 0.335506
vt 0.913777 0.365972
vt 0.913777 0.440644
vt 0.896591 0.426198
vt 0.378784 0.824430
vt 0.392225 0.719293
vt 0.395970 0.809985
vt 0.378784 0.749758
vt 0.689685 0.824430
vt 0.700563 0.720115
vt 0.700563 0.801696
vt 0.688708 0.739180
vt 0.002452 0.639624
vt 0.022369 0.598968
vt 0.024367 0.666791
vt 0.002452 0.706655
vt 0.532022 0.234939
vt 0.494077 0.313772
vt 0.494077 0.204145
vt 0.525172 0.349266
vt 0.101394 0.844737
vt 0.092498 0.834982
vt 0.200242 0.834982
vt 0.211184 0.840482
vt 0.001187 0.085645
vt 0.047038 0.156882
vt 0.001581 0.129467
vt 0.045199 0.053016
vt 0.768913 0.653027
vt 0.800063 0.633667
vt 0.797193 0.688379
vt 0.768913 0.596014
vt 0.239910 0.034096
vt 0.238907 0.103223
vt 0.191446 0.213849
vt 0.191050 0.090564
vt 0.760791 0.891555
vt 0.791941 0.853902
vt 0.791941 0.910916
vt 0.763661 0.946267
vt 0.001584 0.184510
vt 0.048041 0.226009
vt 0.049044 0.295136
vt 0.186817 0.942206
vt 0.144242 0.937304
vt 0.144242 0.845888
vt 0.181791 0.887394
vt 0.344489 0.001374
vt 0.369700 0.071132
vt 0.868198 0.107870
vt 0.889410 0.009096
vt 0.875399 0.117776
vt 0.868198 0.002342
vt 0.490442 0.315328
vt 0.523899 0.360197
vt 0.490442 0.438613
vt 0.354663 0.431169
vt 0.369900 0.311515
vt 0.382771 0.315312
vt 0.382771 0.469072
vt 0.159724 0.180877
vt 0.187832 0.296734
vt 0.174961 0.300531
vt 0.187832 0.142974
vt 0.342346 0.206467
vt 0.377695 0.285453
vt 0.236901 0.241477
vt 0.237904 0.172350
vt 0.266037 0.755389
vt 0.230543 0.724295
vt 0.344870 0.717445
vt 0.375664 0.755389
vt 0.855077 0.001350
vt 0.865043 0.010007
vt 0.861011 0.119806
vt 0.855077 0.109093
vt 0.187832 0.112906
vt 0.141900 0.001374
vt 0.467261 0.847978
vt 0.483287 0.930023
vt 0.473087 0.921453
vt 0.483287 0.832527
vt 0.934084 0.289559
vt 0.928257 0.363033
vt 0.918058 0.371603
vt 0.918058 0.274107
vt 0.872259 0.360393
vt 0.893471 0.353638
vt 0.893471 0.459166
vt 0.886271 0.469073
vt 0.827934 0.856920
vt 0.854890 0.727790
vt 0.854890 0.837370
vt 0.827934 0.747341
vt 0.679056 0.848798
vt 0.698606 0.821842
vt 0.808185 0.821842
vt 0.788635 0.848798
vt 0.179838 0.327227
vt 0.152621 0.258731
vt 0.154627 0.396986
vt 0.050047 0.364263
vt 0.801330 0.921900
vt 0.795014 0.847995
vt 0.814277 0.820833
vt 0.814277 0.918763
vt 0.923707 0.272103
vt 0.910759 0.171036
vt 0.930023 0.198198
vt 0.910759 0.268966
vt 0.215313 0.706655
vt 0.257888 0.610337
vt 0.252863 0.665149
vt 0.215313 0.615239
vt 0.047482 0.034521
vt 0.002613 0.001063
vt 0.125898 0.001063
vt 0.342483 0.139628
vt 0.001188 0.307795
vt 0.152483 0.191893
vt 0.331763 0.396986
vt 0.235062 0.345343
vt 0.926147 0.463427
vt 0.916880 0.375728
vt 0.930022 0.376979
vt 0.916880 0.473134
vt 0.930208 0.482904
vt 0.934084 0.569352
vt 0.920942 0.570603
vt 0.920942 0.473197
vt 0.191050 0.312714
vt 0.191444 0.268892
vt 0.130912 0.222968
vt 0.158388 0.188827
vt 0.158388 0.255858
vt 0.028429 0.036151
vt 0.000952 0.069041
vt 0.000952 0.002010
vt 0.874810 0.537417
vt 0.874810 0.464155
vt 0.917839 0.502097
vt 0.892246 0.576695
vt 0.933675 0.334318
vt 0.982819 0.406123
vt 0.931625 0.406123
vt 0.967372 0.348602
vt 0.925472 0.719306
vt 0.941027 0.661933
vt 0.982819 0.649034
vt 0.982819 0.720869
vt 0.925961 0.084375
vt 0.887164 0.044025
vt 0.901979 0.009244
vt 0.887164 0.117776
vt 0.627635 0.929618
vt 0.686348 0.855330
vt 0.686348 0.934084
vt 0.609627 0.837066
vt 0.940761 0.243231
vt 0.999063 0.165649
vt 0.997230 0.259919
vt 0.927229 0.165649
vt 0.974696 0.824430
vt 0.902875 0.823034
vt 0.917913 0.745730
vt 0.974696 0.730142
vt 0.274575 0.855330
vt 0.351297 0.837066
vt 0.333289 0.929618
vt 0.274575 0.934084
vt 0.865068 0.361450
vt 0.888886 0.246458
vt 0.913778 0.321293
vt 0.865068 0.288188
vt 0.941590 0.925737
vt 0.980788 0.910971
vt 0.980788 0.982806
vt 0.924589 0.982819
vt 0.609973 0.905112
vt 0.562302 0.962189
vt 0.562302 0.890354
vt 0.625430 0.962512
vt 0.874250 0.703519
vt 0.917839 0.738992
vt 0.894344 0.814277
vt 0.874250 0.777270
vt 0.765543 0.853322
vt 0.747533 0.945874
vt 0.688818 0.950329
vt 0.688818 0.871575
vt 0.915059 0.161043
vt 0.930094 0.083738
vt 0.986880 0.068161
vt 0.986880 0.162449
vt 0.486599 0.889937
vt 0.558420 0.982819
vt 0.501634 0.967242
vt 0.558420 0.888531
vt 0.065419 0.841139
vt 0.142143 0.938145
vt 0.083428 0.933691
vt 0.142143 0.859392
vt 0.190321 0.017718
vt 0.199000 0.017009
vt 0.199000 0.076454
vt 0.190321 0.077163
vt 0.861217 0.434211
vt 0.869104 0.375673
vt 0.869104 0.434556
vt 0.861217 0.375328
vt 0.213215 0.619563
vt 0.205323 0.698532
vt 0.205323 0.619779
vt 0.213215 0.698317
vt 0.398001 0.002893
vt 0.390959 0.049226
vt 0.389694 0.005508
vt 0.398001 0.052796
vt 0.186817 0.077163
vt 0.178323 0.076516
vt 0.178323 0.016957
vt 0.186817 0.017604
vt 0.024190 0.345890
vt 0.032490 0.348527
vt 0.031697 0.391495
vt 0.024190 0.393940
vt 0.763512 0.673960
vt 0.755620 0.674165
vt 0.755620 0.595411
vt 0.763512 0.595207
vt 0.848798 0.330991
vt 0.840906 0.330786
vt 0.840906 0.252032
vt 0.848798 0.252237
vt 0.316673 0.150797
vt 0.324284 0.152895
vt 0.324899 0.190695
vt 0.316673 0.192909
vt 0.434366 0.284286
vt 0.442675 0.244278
vt 0.441478 0.280858
vt 0.434366 0.242400
vt 0.861217 0.493095
vt 0.869104 0.493440
vt 0.743436 0.673949
vt 0.751328 0.595411
vt 0.751328 0.674165
vt 0.743436 0.595196
vt 0.869104 0.763171
vt 0.861217 0.822400
vt 0.861217 0.763516
vt 0.869104 0.822055
vt 0.869104 0.704288
vt 0.861217 0.704633
vt 0.807680 0.256546
vt 0.816308 0.257729
vt 0.816308 0.330991
vt 0.807680 0.329808
vt 0.462656 0.200383
vt 0.471103 0.199284
vt 0.471103 0.273034
vt 0.462656 0.274133
vt 0.440644 0.118964
vt 0.437400 0.118951
vt 0.437856 0.001336
vt 0.440644 0.005901
vt 0.381058 0.039666
vt 0.431506 0.143159
vt 0.431506 0.285302
vt 0.340601 0.197376
vt 0.439767 0.232023
vt 0.436944 0.236567
vt 0.434156 0.232001
vt 0.434156 0.118939
vt 0.435032 0.005880
vt 0.450797 0.193729
vt 0.446197 0.274133
vt 0.444969 0.194792
vt 0.450797 0.273881
vt 0.710716 0.716808
vt 0.571720 0.631089
vt 0.648136 0.606906
vt 0.547899 0.716808
vt 0.374180 0.629059
vt 0.398001 0.714777
vt 0.235184 0.714777
vt 0.297764 0.604876
vt 0.188847 0.373634
vt 0.183120 0.372117
vt 0.184126 0.314208
vt 0.188847 0.316723
vt 0.685499 0.002259
vt 0.686348 0.008122
vt 0.564776 0.008122
vt 0.565298 0.002798
vt 0.925961 0.588483
vt 0.801173 0.688131
vt 0.813700 0.601920
vt 0.925961 0.708685
vt 0.089347 0.834962
vt 0.002247 0.710145
vt 0.057844 0.726377
vt 0.002247 0.836614
vt 0.007117 0.322330
vt 0.002395 0.381756
vt 0.002395 0.324845
vt 0.008122 0.380240
vt 0.814129 0.253827
vt 0.793575 0.129039
vt 0.913778 0.129039
vt 0.900340 0.241300
vt 0.357389 0.834215
vt 0.230942 0.836614
vt 0.230942 0.749498
vt 0.340105 0.778936
vt 0.430491 0.002295
vt 0.424627 0.123019
vt 0.425167 0.002817
vt 0.430491 0.123868
vt 0.678226 0.292409
vt 0.674730 0.174192
vt 0.678226 0.174192
vt 0.674802 0.289327
vt 0.803967 0.298482
vt 0.800472 0.209534
vt 0.804124 0.206726
vt 0.800472 0.298501
vt 0.166428 0.553295
vt 0.163015 0.438173
vt 0.166511 0.438161
vt 0.163015 0.556389
vt 0.820199 0.913778
vt 0.816703 0.822022
vt 0.820369 0.824811
vt 0.816703 0.913778
vt 0.362465 0.460950
vt 0.116829 0.410501
vt 0.274540 0.370045
vt 0.220322 0.460950
vt 0.150766 0.009481
vt 0.296470 0.013599
vt 0.154329 0.014214
vt 0.294405 0.009481
vt 0.457691 0.274133
vt 0.453091 0.273881
vt 0.453091 0.193729
vt 0.458919 0.194792
vt 0.146704 0.005476
vt 0.148770 0.001358
vt 0.292409 0.001358
vt 0.288846 0.006092
s 1
usemtl FF5722.001
f 3/1/1 4/2/2 1/3/3
f 1/3/3 2/4/4 3/1/1
f 6/5/5 8/6/6 5/7/7
f 8/6/6 6/5/5 7/8/8
f 11/9/9 12/10/10 9/11/11
f 9/11/11 10/12/12 11/9/9
f 14/13/13 16/14/14 13/15/15
f 16/14/14 14/13/13 15/16/16
f 18/17/17 20/18/18 17/19/19
f 20/18/18 18/17/17 19/20/20
f 24/21/21 25/22/22 21/23/23
f 21/23/23 22/24/24 23/25/25
f 23/25/25 24/21/21 21/23/23
f 28/26/26 29/27/27 26/28/28
f 26/28/28 27/29/29 28/26/26
f 31/30/30 33/31/31 30/32/32
f 33/31/31 31/30/30 32/33/33
f 35/34/34 37/35/35 34/36/36
f 37/35/35 35/34/34 36/37/37
f 39/38/38 41/39/39 38/40/40
f 41/39/39 39/38/38 40/41/41
f 45/42/42 46/43/43 42/44/44
f 42/44/44 43/45/45 44/46/46
f 44/46/46 45/42/42 42/44/44
f 48/47/47 50/48/48 47/49/49
f 50/48/48 48/47/47 49/50/50
f 52/51/51 54/52/52 51/53/53
f 54/52/52 52/51/51 53/54/54
f 57/55/55 58/56/56 55/57/57
f 55/57/57 56/58/58 57/55/55
f 61/59/59 62/60/60 59/61/61
f 59/61/61 60/62/62 61/59/59
f 64/63/63 66/64/64 63/65/65
f 66/64/64 64/63/63 65/66/66
f 68/67/67 70/68/68 67/69/69
f 70/68/68 68/67/67 69/70/70
f 73/71/71 74/72/72 71/73/73
f 71/73/73 72/74/74 73/71/71
f 76/75/75 78/76/76 75/77/77
f 78/76/76 76/75/75 77/78/78
f 81/79/79 82/80/80 79/81/81
f 79/81/81 80/82/82 81/79/79
f 84/83/83 86/84/84 83/85/85
f 86/84/84 84/83/83 85/86/86
f 88/87/87 90/88/88 87/89/89
f 90/88/88 88/87/87 89/90/90
f 93/91/91 94/92/92 91/93/93
f 91/93/93 92/94/94 93/91/91
f 98/95/95 99/96/96 95/97/97
f 95/97/97 96/98/98 97/99/99
f 97/99/99 98/95/95 95/97/97
f 102/100/100 103/101/101 100/102/102
f 100/102/102 101/103/103 102/100/100
f 105/104/104 107/105/105 104/106/106
f 107/105/105 105/104/104 106/107/107
f 110/108/108 111/109/109 108/110/110
f 108/110/110 109/111/111 110/108/108
f 115/112/112 116/113/113 112/114/114
f 112/114/114 113/115/115 114/116/116
f 114/116/116 115/112/112 112/114/114
s 0
f 119/117/117 120/118/117 117/119/117
f 117/119/117 118/120/117 119/117/117
f 122/121/118 124/122/118 121/123/118
f 124/122/118 122/121/118 123/124/118
s 1
f 127/125/119 128/126/120 125/127/121
f 125/127/121 126/128/122 127/125/119
f 131/129/123 132/130/124 129/131/125
f 129/131/125 130/132/126 131/129/123
f 135/133/127 136/134/128 133/135/129
f 133/135/129 134/136/130 135/133/127
f 139/137/131 140/138/132 137/139/133
f 137/139/133 138/140/134 139/137/131
s 0
f 143/141/135 144/142/135 141/143/135
f 141/143/135 142/144/135 143/141/135
s 1
f 146/145/136 148/146/136 145/147/136
s 0
f 148/146/136 146/145/136 147/148/136
usemtl 1A1A1A.001
f 150/149/137 152/150/137 149/151/137
f 152/150/137 150/149/137 151/152/137
f 154/153/138 156/154/138 153/155/138
f 156/154/138 154/153/138 155/156/138
f 159/157/139 160/158/139 157/159/139
f 157/159/139 158/160/139 159/157/139
f 163/161/140 164/162/140 161/163/140
s 1
f 161/163/140 162/164/140 163/161/140
s 0
f 166/165/141 168/166/141 165/167/141
f 168/166/141 166/165/141 167/168/141
f 171/169/142 172/170/142 169/171/142
f 169/171/142 170/172/142 171/169/142
f 175/173/143 176/174/143 173/175/143
f 173/175/144 174/176/144 175/173/144
s 1
f 178/177/145 180/178/145 177/179/145
s 0
f 180/178/145 178/177/145 179/180/145
f 181/181/146 182/182/146 183/183/146
f 184/184/146 185/185/146 183/183/146
f 186/186/146 187/187/146 183/183/146
f 188/188/146 189/189/146 183/183/146
f 182/182/146 184/184/146 183/183/146
f 185/185/146 186/186/146 183/183/146
f 187/187/146 188/188/146 183/183/146
f 189/189/146 181/181/146 183/183/146
f 190/190/147 191/191/147 192/192/147
f 192/192/147 191/191/147 193/193/147
f 194/194/147 191/191/147 195/195/147
f 196/196/147 191/191/147 197/197/147
f 193/193/147 191/191/147 194/194/147
f 195/195/147 191/191/147 196/196/147
f 197/197/147 191/191/147 198/198/147
s 1
f 200/199/148 202/200/148 199/201/148
f 202/200/148 200/199/148 201/202/148
s 0
f 205/203/149 206/204/149 203/205/149
f 203/205/149 204/206/149 205/203/149
f 209/207/150 210/208/150 207/209/150
f 207/209/150 208/210/150 209/207/150
s 1
f 213/211/151 214/212/151 211/213/151
s 0
f 211/213/151 212/214/151 213/211/151
f 217/215/152 218/216/152 215/217/152
f 215/217/152 216/218/152 217/215/152
f 221/219/153 222/220/153 219/221/153
f 219/221/153 220/222/153 221/219/153
f 225/223/154 226/224/154 223/225/154
s 1
f 223/225/154 224/226/154 225/223/154
f 229/227/155 230/228/155 227/229/155
s 0
f 227/229/155 228/230/155 229/227/155
f 198/198/147 191/191/147 190/190/147
f 232/231/156 234/232/156 231/233/156
f 234/232/156 232/231/156 233/234/156
f 236/235/157 238/236/157 235/237/157
f 238/236/157 236/235/157 237/238/157
f 241/239/158 242/240/158 239/241/158
f 239/241/158 240/242/158 241/239/158
f 245/243/159 246/244/159 243/245/159
f 243/245/159 244/246/159 245/243/159
f 248/247/160 250/248/160 247/249/160
f 250/248/160 248/247/160 249/250/160
f 253/251/161 254/252/161 251/253/161
f 251/253/161 252/254/161 253/251/161
f 257/255/162 258/256/162 255/257/162
f 255/257/162 256/258/162 257/255/162
f 260/259/163 262/260/163 259/261/163
f 262/260/163 260/259/163 261/262/163
f 263/263/164 264/264/164 265/265/164
f 266/266/164 264/264/164 267/267/164
f 268/268/164 264/264/164 269/269/164
f 270/270/164 264/264/164 271/271/164
f 265/265/164 264/264/164 266/266/164
f 267/267/164 264/264/164 268/268/164
f 269/269/164 264/264/164 270/270/164
f 271/271/164 264/264/164 263/263/164
f 272/272/165 273/273/165 274/274/165
f 273/273/165 275/275/165 274/274/165
f 276/276/165 277/277/165 274/274/165
f 278/278/165 279/279/165 274/274/165
f 275/275/165 276/276/165 274/274/165
f 277/277/165 278/278/165 274/274/165
f 279/279/165 280/280/165 274/274/165
f 282/281/166 284/282/166 281/283/166
s 1
f 284/282/166 282/281/166 283/284/166
s 0
f 287/285/167 288/286/167 285/287/167
f 285/287/167 286/288/167 287/285/167
f 291/289/168 292/290/168 289/291/168
f 289/291/168 290/292/168 291/289/168
f 295/293/169 296/294/169 293/295/169
f 293/295/169 294/296/169 295/293/169
f 298/297/170 300/298/170 297/299/170
f 300/298/170 298/297/170 299/300/170
f 302/301/171 304/302/171 301/303/171
f 304/302/171 302/301/171 303/304/171
f 306/305/172 308/306/172 305/307/172
f 308/306/172 306/305/172 307/308/172
f 310/309/173 312/310/173 309/311/173
f 312/310/173 310/309/173 311/312/173
f 280/280/165 272/272/165 274/274/165
f 314/313/174 316/314/174 313/315/174
f 316/314/174 314/313/174 315/316/174
s 1
f 319/317/175 320/318/176 317/319/177
f 317/319/177 318/320/178 319/317/175
s 0
f 322/321/179 324/322/179 321/323/179
f 324/322/179 322/321/179 323/324/179
s 1
f 327/325/180 328/326/181 325/327/180
f 325/327/180 326/328/182 327/325/180
f 330/329/183 332/330/184 329/331/185
f 332/330/184 330/329/183 331/332/186
f 335/333/187 336/334/188 333/335/189
f 333/335/189 334/336/190 335/333/187
f 339/337/191 340/338/192 337/339/193
f 337/339/193 338/340/194 339/337/191
s 0
f 343/341/195 344/342/195 341/343/195
s 1
f 341/343/195 342/344/195 343/341/195
f 347/345/196 348/346/196 345/347/196
s 0
f 345/347/196 346/348/196 347/345/196
s 1
usemtl FFEB3B.001
f 351/349/197 352/350/198 349/351/199
f 349/351/199 350/352/200 351/349/197
f 354/353/201 356/354/202 353/355/203
f 356/354/202 354/353/201 355/356/204
f 359/357/205 360/358/206 357/359/207
f 357/359/207 358/360/208 359/357/205
f 362/361/209 364/362/210 361/363/211
f 364/362/210 362/361/209 363/364/212
f 366/365/213 368/366/214 365/367/215
f 368/366/214 366/365/213 367/368/216
f 371/369/217 372/370/218 369/371/219
f 369/371/219 370/372/220 371/369/217
f 374/373/221 376/374/222 373/375/223
f 376/374/222 374/373/221 375/376/224
f 379/377/225 380/378/226 377/379/227
f 377/379/227 378/380/228 379/377/225
s 0
f 382/381/229 384/382/229 381/383/229
f 384/382/229 382/381/229 383/384/229
s 1
f 386/385/230 388/386/231 385/387/232
f 388/386/231 386/385/230 387/388/233
s 0
f 391/389/234 392/390/234 389/391/234
f 389/391/234 390/392/234 391/389/234
s 1
f 395/393/235 396/394/236 393/395/237
f 393/395/237 394/396/238 395/393/235
s 0
f 384/382/229 399/397/229 381/383/229
f 399/397/229 397/398/229 398/399/229
f 397/398/229 399/397/229 384/382/229
s 1
f 402/400/239 403/401/240 400/402/241
f 400/402/241 401/403/242 402/400/239
s 0
f 404/404/234 405/405/234 392/390/234
f 392/390/234 391/389/234 404/404/234
s 1
f 407/406/243 409/407/244 406/408/245
f 409/407/244 407/406/243 408/409/246
s 0
f 410/410/247 411/411/247 412/412/247
s 1
f 415/413/248 416/414/249 413/415/250
f 413/415/250 414/416/251 415/413/248
f 418/417/252 420/418/253 417/419/254
f 420/418/253 418/417/252 419/420/255
s 0
f 423/421/234 424/422/234 421/423/234
f 421/423/234 422/424/234 423/421/234
s 1
f 427/425/256 428/426/257 425/427/258
f 425/427/258 426/428/259 427/425/256
f 431/429/260 432/430/261 429/431/262
f 429/431/262 430/432/263 431/429/260
s 0
f 383/384/229 434/433/229 384/382/229
f 434/433/229 383/384/229 433/434/229
s 1
f 436/435/264 438/436/265 435/437/266
f 438/436/265 436/435/264 437/438/267
f 441/439/268 442/440/269 439/441/270
f 439/441/270 440/442/271 441/439/268
f 445/443/272 446/444/273 443/445/274
f 443/445/274 444/446/275 445/443/272
s 0
f 448/447/276 450/448/276 447/449/276
f 450/448/276 448/447/276 449/450/276
f 453/451/277 454/452/277 451/453/277
s 1
f 451/453/277 452/454/277 453/451/277
s 0
f 397/398/229 456/455/229 398/399/229
f 456/455/229 397/398/229 455/456/229
f 398/399/229 458/457/229 457/458/229
f 458/457/229 398/399/229 456/455/229
s 1
f 461/459/278 462/460/279 459/461/280
f 459/461/280 460/462/281 461/459/278
f 464/463/282 466/464/283 463/465/284
f 466/464/283 464/463/282 465/466/285
f 468/467/286 470/468/287 467/469/288
f 470/468/287 468/467/286 469/470/289
s 0
f 471/471/290 472/472/290 473/473/290
f 405/405/234 474/474/234 422/424/234
f 422/424/234 392/390/234 405/405/234
f 399/397/229 457/458/229 475/475/229
f 457/458/229 399/397/229 398/399/229
f 384/382/229 476/476/229 397/398/229
f 476/476/229 384/382/229 434/433/229
f 424/422/234 478/477/234 477/478/234
f 477/478/234 421/423/234 424/422/234
s 1
f 480/479/291 482/480/292 479/481/293
f 482/480/292 480/479/291 481/482/294
f 485/483/295 486/484/296 483/485/297
f 483/485/297 484/486/298 485/483/295
s 0
f 421/423/234 477/478/234 487/487/234
f 487/487/234 488/488/234 421/423/234
f 489/489/299 490/490/299 491/491/299
f 492/492/300 493/493/300 494/494/300
f 422/424/234 421/423/234 488/488/234
f 488/488/234 389/391/234 392/390/234
f 392/390/234 422/424/234 488/488/234
s 1
f 497/495/301 498/496/302 495/497/303
f 495/497/303 496/498/304 497/495/301
f 500/499/305 502/500/306 499/501/307
f 502/500/306 500/499/305 501/502/308
f 505/503/309 506/504/310 503/505/311
f 503/505/311 504/506/312 505/503/309
f 508/507/313 510/508/314 507/509/315
f 510/508/314 508/507/313 509/510/316
f 512/511/317 514/512/318 511/513/319
f 514/512/318 512/511/317 513/514/320
f 516/515/321 518/516/322 515/517/323
f 518/516/322 516/515/321 517/518/324
f 521/519/325 522/520/326 519/521/327
f 519/521/327 520/522/328 521/519/325
f 525/523/329 526/524/330 523/525/331
f 523/525/331 524/526/332 525/523/329
f 528/527/333 530/528/334 527/529/335
f 530/528/334 528/527/333 529/530/336
f 533/531/337 534/532/338 531/533/339
f 531/533/339 532/534/340 533/531/337
f 536/535/341 538/536/342 535/537/343
f 538/536/342 536/535/341 537/538/344
f 541/539/345 542/540/346 539/541/347
f 539/541/347 540/542/348 541/539/345
f 545/543/349 546/544/350 543/545/351
f 543/545/351 544/546/352 545/543/349
f 549/547/353 550/548/354 547/549/355
f 547/549/355 548/550/356 549/547/353
f 552/551/357 554/552/358 551/553/359
f 554/552/358 552/551/357 553/554/360
f 556/555/361 558/556/362 555/557/363
f 558/556/362 556/555/361 557/558/364
s 0
f 561/559/365 562/560/365 559/561/365
f 559/561/365 560/562/365 561/559/365
f 564/563/366 566/564/366 563/565/366
f 566/564/366 564/563/366 565/566/366
f 568/567/367 570/568/367 567/569/367
f 570/568/367 568/567/367 569/570/367
s 1
f 572/571/368 574/572/369 571/573/370
f 574/572/369 572/571/368 573/574/371
s 0
f 577/575/372 578/576/372 575/577/372
f 575/577/372 576/578/372 577/575/372
s 1
f 581/579/373 582/580/374 579/581/375
f 579/581/375 580/582/376 581/579/373
s 0
f 585/583/377 586/584/377 583/585/377
f 583/585/378 584/586/378 585/583/378
f 589/587/379 590/588/379 587/589/379
f 587/589/379 588/590/379 589/587/379
s 1
f 593/591/380 594/592/381 591/593/382
f 591/593/382 592/594/383 593/591/380
f 596/595/384 598/596/385 595/597/386
f 598/596/385 596/595/384 597/598/387
s 0
f 600/599/366 563/565/366 599/600/366
f 563/565/366 600/599/366 564/563/366
f 602/601/388 604/602/388 601/603/388
f 604/602/388 602/601/388 603/604/388
s 1
f 606/605/389 608/606/389 605/607/389
s 0
f 608/606/389 606/605/389 607/608/389
f 610/609/389 605/607/389 609/610/389
f 605/607/389 610/609/389 606/605/389
f 613/611/390 614/612/390 611/613/390
f 611/613/390 612/614/390 613/611/390
f 617/615/391 618/616/391 615/617/391
f 615/617/391 616/618/391 617/615/391
f 621/619/392 622/620/392 619/621/392
f 619/621/392 620/622/392 621/619/392
s 1
f 625/623/393 626/624/394 623/625/395
f 623/625/395 624/626/396 625/623/393
s 0
f 627/627/392 628/628/392 622/620/392
f 622/620/392 621/619/392 627/627/392
f 628/628/392 630/629/392 629/630/392
f 629/630/392 622/620/392 628/628/392
f 622/620/392 629/630/392 631/631/392
f 631/631/392 619/621/392 622/620/392
s 1
f 633/632/397 635/633/398 632/634/399
f 635/633/398 633/632/397 634/635/400
f 637/636/401 639/637/402 636/638/403
f 639/637/402 637/636/401 638/639/404
f 642/640/405 643/641/406 640/642/407
f 640/642/407 641/643/408 642/640/405
f 646/644/409 647/645/410 644/646/411
f 644/646/411 645/647/412 646/644/409
f 650/648/413 651/649/414 648/650/415
f 648/650/415 649/651/416 650/648/413
s 0
f 653/652/417 655/653/417 652/654/417
f 655/653/418 653/652/418 654/655/418
s 1
f 657/656/419 659/657/420 656/658/421
f 659/657/420 657/656/419 658/659/422
f 661/660/423 663/661/424 660/662/425
f 663/661/424 661/660/423 662/663/426
s 0
f 666/664/427 667/665/427 664/666/427
f 664/666/428 665/667/428 666/664/428
s 1
f 670/668/429 671/669/430 668/670/431
f 668/670/431 669/671/432 670/668/429
f 673/672/433 675/673/434 672/674/435
f 675/673/434 673/672/433 674/675/436
f 677/676/437 679/677/438 676/678/439
f 679/677/438 677/676/437 678/679/440
f 681/680/441 683/681/442 680/682/443
f 683/681/442 681/680/441 682/683/444
f 685/684/445 687/685/446 684/686/447
f 687/685/446 685/684/445 686/687/448
f 689/688/449 691/689/450 688/690/451
f 691/689/450 689/688/449 690/691/452
f 693/692/453 695/693/454 692/694/455
f 695/693/454 693/692/453 694/695/456
f 697/696/457 699/697/458 696/698/459
f 699/697/458 697/696/457 698/699/460
f 702/700/461 703/701/462 700/702/463
f 700/702/463 701/703/464 702/700/461
f 706/704/465 707/705/466 704/706/467
f 704/706/467 705/707/468 706/704/465
