# Blender 4.1.0
# www.blender.org
mtllib untitled.mtl
o Cube
v -1.798224 1.419653 -0.040582
v -1.119829 1.419653 -0.040582
v -1.119829 1.364711 -0.173224
v -1.798224 1.364711 -0.173224
v -1.119829 1.364711 -0.173224
v -1.119829 1.232069 -0.228166
v -0.278618 1.364711 -0.173224
v -1.119829 1.364711 -0.173224
v -1.119829 1.419653 -0.040582
v 0.690221 1.364711 -0.173224
v 0.690221 1.419653 -0.040582
v 1.305299 1.419653 -0.040582
v 0.690221 1.232069 -0.228166
v 0.690221 1.364711 -0.173224
v 1.314984 1.364711 -0.173224
v -0.278618 1.232069 -0.228166
v -1.119829 1.232069 -0.228166
v -1.119829 1.364711 -0.173224
v 0.690221 1.364711 -0.173224
v -0.278618 1.364711 -0.173224
v -0.278618 1.419653 -0.040582
v 1.802789 0.450814 -0.228166
v 1.468114 0.496040 -0.000000
v -3.537105 1.232095 -0.078767
v -3.593122 1.358408 -0.000000
v -3.800317 1.561088 -0.069808
v -3.635958 1.576983 -0.078767
v -3.635958 1.161253 -0.146479
v -3.635958 1.161253 -0.146479
v -3.471600 1.177148 -0.000000
v -1.835159 -1.200843 -0.228165
v -1.470082 -0.707577 0.000000
v -4.573770 0.933903 -0.137823
v -4.989501 0.888765 -0.167348
v -4.989501 1.189743 -0.167348
v -4.573770 1.144605 -0.137823
v -4.989501 1.189743 -0.167348
v -4.989501 1.189743 -0.000000
v -3.471600 0.658855 -0.228166
v -3.471600 1.419653 -0.228166
v -3.417328 1.232069 -0.228166
v -3.417328 0.658855 -0.228166
v -3.471600 0.901361 -0.155438
v -3.471600 1.177148 -0.155438
v -3.471600 1.419653 -0.228166
v -3.800317 0.933151 -0.137520
v -3.800317 1.145357 -0.137520
v -3.635958 1.161253 -0.146479
v 4.480189 -0.426577 -0.228165
v 4.597778 0.804575 -0.228166
v 4.597778 0.804575 -0.000000
v -3.471600 1.419653 -0.228166
v -3.471600 1.419653 -0.000000
v -3.417328 1.419653 -0.040582
v -3.635958 0.917256 -0.146479
v -3.635958 1.161253 -0.146479
v -3.471600 1.177148 -0.155438
v -4.573770 0.933903 -0.137823
v -4.573770 1.144605 -0.137823
v -4.573770 1.162310 -0.148506
v -4.989501 0.888765 -0.000000
v -4.989501 0.888765 -0.167348
v -4.573770 0.933903 -0.137823
v -0.712289 -1.001863 -0.228165
v -1.470082 -0.707577 -0.228165
v -1.231638 -0.141949 -0.228165
v -0.432137 -0.289092 -0.228165
v -1.231638 -0.141949 -0.228165
v -1.119829 0.496040 -0.228166
v -1.119075 -1.642272 -0.228165
v -1.835159 -1.200843 -0.228165
v -1.470082 -0.707577 -0.228165
v -3.467908 1.198046 -0.078767
v -3.537105 1.232095 -0.000000
v -3.800317 1.735115 -0.069808
v -3.635958 1.751010 -0.078767
v -3.635958 1.576983 -0.078767
v -3.800317 1.735115 -0.069808
v -3.635958 1.751010 -0.000000
v -3.537105 1.406122 -0.078767
v -3.537105 1.232095 -0.078767
v -3.593122 1.358408 -0.078767
v 4.597778 0.804575 -0.228166
v 4.480189 -0.426577 -0.228165
v 1.802789 0.450814 -0.228166
v 1.305299 1.419653 -0.000000
v 1.866106 0.904073 -0.000000
v 1.443392 1.292697 -0.228166
v 1.305299 1.419653 -0.040582
v 1.305299 1.419653 -0.000000
v 1.443392 1.292697 -0.228166
v 1.866106 0.904073 -0.228166
v 1.802789 0.450814 -0.228166
v 1.468114 0.496040 -0.228166
v -1.119829 1.364711 0.173223
v -1.119829 1.419653 0.040582
v -1.798224 1.419653 0.040582
v -1.119829 1.232069 0.228165
v -1.119829 1.364711 0.173223
v -1.798224 1.364711 0.173223
v -1.119829 1.364711 0.173223
v -1.119829 1.232069 0.228165
v -0.278618 1.232069 0.228165
v -1.119829 1.419653 0.040582
v -1.119829 1.364711 0.173223
v -0.278618 1.364711 0.173223
v 0.690221 1.364711 0.173223
v 1.314984 1.364711 0.173223
v 1.305299 1.419653 0.040582
v 0.690221 1.232069 0.228165
v 1.338366 1.232069 0.228165
v 1.314984 1.364711 0.173223
v -0.278618 1.419653 0.040582
v -0.278618 1.364711 0.173223
v 0.690221 1.364711 0.173223
v 1.802789 0.450814 0.228165
v -3.537105 1.232095 0.078767
v -3.635958 1.161253 0.146479
v -3.635958 1.576983 0.078767
v -3.800317 1.561088 0.069808
v -3.635958 1.161253 0.146479
v -1.835159 -1.200843 0.228166
v -4.573770 0.933903 0.137823
v -4.573770 1.144605 0.137823
v -4.989501 1.189743 0.167348
v -4.573770 1.144605 0.137823
v -4.989501 1.189743 -0.000000
v -3.417328 1.232069 0.228165
v -3.471549 1.419653 0.228165
v -3.471600 1.419653 0.228165
v -3.471600 1.419653 0.228165
v -3.471600 1.177148 0.155437
v -3.471600 0.901361 0.155437
v -3.635958 1.161253 0.146479
v -3.800317 1.145357 0.137520
v -3.800317 0.933151 0.137520
v -3.467908 1.372072 -0.000000
v -3.467908 1.372072 -0.078767
v -3.537105 1.406122 -0.078767
v -3.537105 1.406122 0.078767
v -3.467908 1.372072 0.078767
v 4.597778 0.804575 -0.000000
v 4.597778 0.804575 -0.228166
v 1.866106 0.904073 -0.228166
v 1.866106 0.904073 0.228165
v 4.597778 0.804575 0.228165
v 4.597778 0.804575 0.228165
v 4.480189 -0.426577 0.228166
v -3.417328 1.419653 0.040582
v -3.471600 1.419653 -0.000000
v -3.471600 1.419653 0.228165
v -3.471549 1.419653 0.228165
v -3.471600 1.177148 0.155437
v -3.635958 1.161253 0.146479
v -3.635958 0.917256 0.146479
v -3.800317 0.933151 0.137520
v -3.800317 1.145357 0.137520
v -3.800317 1.162310 0.148506
v -4.573770 1.162310 0.148506
v -4.573770 1.144605 0.137823
v -4.573770 0.933903 0.137823
v -4.573770 0.933903 0.137823
v -4.989501 0.888765 0.167348
v -4.989501 0.888765 -0.000000
v -1.231638 -0.141949 0.228166
v -1.470082 -0.707577 0.228166
v -0.712289 -1.001863 0.228166
v -1.470082 -0.707577 0.228166
v -1.835159 -1.200843 0.228166
v -1.119075 -1.642272 0.228166
v -1.835159 -1.200843 0.000000
v -1.835159 -1.200843 -0.228165
v -1.119075 -1.642272 -0.228165
v -1.119075 -1.642272 0.228166
v -1.835159 -1.200843 0.228166
v -3.467908 1.198046 0.078767
v -3.635958 1.576983 0.078767
v -3.635958 1.751010 0.078767
v -3.800317 1.735115 0.069808
v -3.800317 1.735115 0.069808
v -3.593122 1.358408 0.078767
v -3.537105 1.232095 0.078767
v -3.537105 1.406122 0.078767
v 1.802789 0.450814 0.228165
v 4.480189 -0.426577 0.228166
v 4.597778 0.804575 0.228165
v 1.305299 1.419653 0.040582
v 1.443392 1.292697 0.228165
v 1.866106 0.904073 -0.000000
v 1.305299 1.419653 -0.000000
v 1.443392 1.292697 0.228165
v 0.690221 0.496040 0.228165
v 1.468114 0.496040 0.228165
v 1.338366 1.232069 0.228165
v 1.866106 0.904073 0.228165
v 1.443392 1.292697 0.228165
v 1.338366 1.232069 0.228165
v -1.798224 1.419653 -0.040582
v -1.119829 1.364711 -0.173224
v -1.798224 1.364711 -0.173224
v -1.798224 1.364711 -0.173224
v -1.119829 1.232069 -0.228166
v -1.798224 1.232069 -0.228166
v -0.278618 1.232069 -0.228166
v -1.119829 1.364711 -0.173224
v -0.278618 1.364711 -0.173224
v -0.278618 1.364711 -0.173224
v -1.119829 1.419653 -0.040582
v -0.278618 1.419653 -0.040582
v 0.690221 1.364711 -0.173224
v 1.305299 1.419653 -0.040582
v 1.314984 1.364711 -0.173224
v 0.690221 1.232069 -0.228166
v 1.314984 1.364711 -0.173224
v 1.338366 1.232069 -0.228166
v 0.690221 1.232069 -0.228166
v -0.278618 1.364711 -0.173224
v 0.690221 1.364711 -0.173224
v 0.690221 1.364711 -0.173224
v -0.278618 1.419653 -0.040582
v 0.690221 1.419653 -0.040582
v -3.417328 1.364711 -0.173224
v -3.471549 1.419653 -0.228166
v -3.417328 1.419653 -0.040582
v -3.417328 1.232069 -0.228166
v -3.471549 1.419653 -0.228166
v -3.417328 1.364711 -0.173224
v 1.314984 1.364711 -0.173224
v 1.443392 1.292697 -0.228166
v 1.338366 1.232069 -0.228166
v 1.305299 1.419653 -0.040582
v 1.443392 1.292697 -0.228166
v 1.314984 1.364711 -0.173224
v -3.593122 1.358408 -0.078767
v -3.635958 1.576983 -0.078767
v 1.802789 0.450814 -0.228166
v 1.468114 0.496040 -0.000000
v 1.468114 0.496040 -0.228166
v -3.537105 1.232095 -0.078767
v -3.593122 1.358408 -0.000000
v -3.593122 1.358408 -0.078767
v -3.800317 1.561088 -0.069808
v -3.635958 1.161253 -0.146479
v -3.800317 1.145357 -0.137520
v -3.635958 1.161253 -0.146479
v -3.471600 1.177148 -0.000000
v -3.471600 1.177148 -0.155438
v -1.835159 -1.200843 -0.228165
v -1.470082 -0.707577 0.000000
v -1.470082 -0.707577 -0.228165
v -4.573770 1.144605 -0.137823
v -4.573770 1.162310 -0.148506
v -4.573770 0.933903 -0.137823
v -4.989501 1.189743 -0.167348
v -4.573770 1.144605 -0.137823
v -3.800317 0.933151 -0.137520
v -3.800317 0.916199 -0.148506
v -3.800317 1.162310 -0.148506
v -1.231638 -0.141949 -0.228165
v -1.119829 0.496040 -0.228166
v -1.470082 -0.707577 -0.228165
v -1.231638 -0.141949 -0.228165
v -4.573770 1.144605 -0.137823
v -3.471600 1.419653 -0.228166
v -3.471549 1.419653 -0.228166
v -3.417328 1.232069 -0.228166
v -3.471600 0.901361 -0.155438
v -3.471600 1.419653 -0.228166
v -3.471600 0.658855 -0.228166
v -3.800317 1.145357 -0.137520
v -3.800317 0.933151 -0.137520
v -3.635958 1.161253 -0.146479
v -3.635958 0.917256 -0.146479
v 4.480189 -0.426577 -0.228165
v 1.802789 0.450814 -0.228166
v -3.593122 1.532434 -0.000000
v -3.537105 1.406122 -0.078767
v -3.593122 1.532434 -0.078767
v -3.593122 1.532434 0.078767
v -3.537105 1.406122 0.078767
v -3.635958 1.751010 -0.000000
v -3.635958 1.751010 0.078767
v -3.593122 1.532434 0.078767
v -3.593122 1.532434 -0.078767
v -3.635958 1.751010 -0.078767
v 4.480189 -0.426577 -0.228165
v 4.597778 0.804575 -0.000000
v -3.417328 1.419653 -0.040582
v -3.471549 1.419653 -0.228166
v -3.471600 1.419653 -0.228166
v -3.635958 0.917256 -0.000000
v -3.635958 0.917256 0.146479
v -3.800317 0.933151 0.137520
v -3.800317 0.933151 -0.137520
v -3.635958 0.917256 -0.146479
v -3.471600 1.177148 -0.155438
v -3.471600 1.419653 -0.228166
v -1.798224 1.419653 -0.040582
v -3.635958 0.917256 -0.146479
v -3.471600 1.177148 -0.155438
v -3.471600 0.901361 -0.155438
v -3.800317 0.933151 -0.137520
v -3.800317 1.162310 -0.148506
v -3.800317 1.145357 -0.137520
v -0.712289 -1.001863 -0.228165
v -1.231638 -0.141949 -0.228165
v -0.432137 -0.289092 -0.228165
v -0.278618 0.496040 -0.228166
v -1.119829 0.496040 -0.228166
v -1.119829 1.232069 -0.228166
v -0.432137 -0.289092 -0.228165
v -4.573770 1.162310 -0.148506
v -3.800317 1.162310 -0.148506
v -4.573770 0.933903 -0.137823
v -4.573770 0.916199 -0.148506
v -1.119075 -1.642272 -0.228165
v -1.470082 -0.707577 -0.228165
v -0.712289 -1.001863 -0.228165
v -4.573770 0.916199 -0.148506
v -3.800317 1.162310 -0.148506
v -3.800317 0.916199 -0.148506
v -4.573770 1.162310 -0.148506
v -3.635958 1.576983 -0.078767
v -3.635958 1.161253 -0.146479
v -3.467908 1.198046 -0.078767
v -3.537105 1.232095 -0.000000
v -3.537105 1.232095 -0.078767
v -3.471600 0.901361 -0.000000
v -3.635958 0.917256 -0.146479
v -3.471600 0.901361 -0.155438
v -3.471600 0.901361 0.155437
v -3.635958 0.917256 0.146479
v -3.800317 1.735115 -0.069808
v -3.635958 1.576983 -0.078767
v -3.800317 1.561088 -0.069808
v -3.467908 1.372072 -0.078767
v -3.537105 1.232095 -0.078767
v -3.537105 1.406122 -0.078767
v -3.467908 1.198046 -0.078767
v -3.467908 1.372072 -0.078767
v -3.467908 1.198046 -0.078767
v -3.800317 1.735115 -0.069808
v -3.635958 1.751010 -0.000000
v -3.635958 1.751010 -0.078767
v -3.593122 1.532434 -0.078767
v -3.635958 1.576983 -0.078767
v -3.635958 1.751010 -0.078767
v -3.593122 1.358408 -0.078767
v -3.537105 1.406122 -0.078767
v -3.593122 1.358408 -0.078767
v -3.593122 1.532434 -0.078767
v 4.597778 0.804575 -0.228166
v 1.802789 0.450814 -0.228166
v 1.866106 0.904073 -0.228166
v 1.338366 1.232069 -0.228166
v 1.443392 1.292697 -0.228166
v 1.866106 0.904073 -0.228166
v 1.468114 0.496040 -0.228166
v 1.338366 1.232069 -0.228166
v -0.278618 0.496040 -0.228166
v 0.690221 0.496040 -0.228166
v -1.119829 0.496040 0.228165
v -0.432137 -0.289092 0.228166
v -1.119829 1.232069 0.228165
v -1.119829 1.364711 0.173223
v -1.798224 1.419653 0.040582
v -1.798224 1.364711 0.173223
v -1.119829 1.232069 0.228165
v -1.798224 1.364711 0.173223
v -1.798224 1.232069 0.228165
v -1.119829 1.364711 0.173223
v -0.278618 1.232069 0.228165
v -0.278618 1.364711 0.173223
v -1.119829 1.419653 0.040582
v -0.278618 1.364711 0.173223
v -0.278618 1.419653 0.040582
v 0.690221 1.364711 0.173223
v 1.305299 1.419653 0.040582
v 0.690221 1.419653 0.040582
v 0.690221 1.232069 0.228165
v 1.314984 1.364711 0.173223
v 0.690221 1.364711 0.173223
v -0.278618 1.364711 0.173223
v 0.690221 1.232069 0.228165
v 0.690221 1.364711 0.173223
v -0.278618 1.419653 0.040582
v 0.690221 1.364711 0.173223
v 0.690221 1.419653 0.040582
v -3.417328 1.364711 0.173223
v -3.417328 1.419653 0.040582
v -3.471549 1.419653 0.228165
v -3.417328 1.232069 0.228165
v -3.417328 1.364711 0.173223
v -3.471549 1.419653 0.228165
v 1.314984 1.364711 0.173223
v 1.338366 1.232069 0.228165
v 1.443392 1.292697 0.228165
v 1.305299 1.419653 0.040582
v 1.314984 1.364711 0.173223
v 1.443392 1.292697 0.228165
v -3.593122 1.358408 0.078767
v -3.635958 1.576983 0.078767
v 1.802789 0.450814 0.228165
v 1.468114 0.496040 0.228165
v -3.800317 1.735115 -0.069808
v -3.800317 1.561088 -0.069808
v -3.593122 1.358408 -0.000000
v -3.537105 1.232095 0.078767
v -3.593122 1.358408 0.078767
v -3.635958 1.161253 0.146479
v -3.800317 1.561088 0.069808
v -3.800317 1.145357 0.137520
v -3.471600 1.177148 -0.000000
v -3.635958 1.161253 0.146479
v -3.471600 1.177148 0.155437
v -1.835159 -1.200843 0.228166
v -1.470082 -0.707577 0.228166
v -4.573770 1.144605 0.137823
v -4.573770 1.162310 0.148506
v -4.573770 0.933903 0.137823
v -4.989501 1.189743 0.167348
v -4.989501 0.888765 0.167348
v -1.231638 -0.141949 0.228166
v -1.119829 0.496040 0.228165
v -1.470082 -0.707577 0.228166
v -1.231638 -0.141949 0.228166
v -4.573770 1.144605 0.137823
v -4.989501 1.189743 0.167348
v -3.471600 0.658855 0.228165
v -3.417328 0.658855 0.228165
v -3.417328 1.232069 0.228165
v -3.471600 1.419653 0.228165
v -3.800317 0.916199 -0.148506
v -4.573770 0.916199 -0.148506
v -3.800317 0.916199 0.148506
v -4.573770 0.916199 0.148506
v -3.471600 1.419653 0.228165
v -3.471600 0.901361 0.155437
v -3.471600 0.658855 0.228165
v -3.800317 1.145357 0.137520
v -3.800317 1.162310 0.148506
v -3.635958 1.161253 0.146479
v -3.800317 0.933151 0.137520
v -3.635958 0.917256 0.146479
v 4.480189 -0.426577 0.228166
v 1.802789 0.450814 0.228165
v -3.467908 1.372072 -0.000000
v -3.537105 1.406122 -0.078767
v -3.537105 1.406122 0.078767
v -3.593122 1.532434 -0.000000
v -3.537105 1.406122 -0.078767
v -3.537105 1.406122 0.078767
v 4.597778 0.804575 -0.000000
v 1.866106 0.904073 -0.228166
v 1.866106 0.904073 0.228165
v -3.635958 1.751010 -0.000000
v -3.593122 1.532434 0.078767
v -3.593122 1.532434 -0.078767
v 4.480189 -0.426577 0.228166
v -3.417328 1.419653 0.040582
v -3.471600 1.419653 -0.000000
v -3.471600 1.419653 0.228165
v -3.635958 0.917256 -0.000000
v -3.800317 0.933151 0.137520
v -3.800317 0.933151 -0.137520
v -3.417328 0.658855 -0.228166
v -3.471600 0.658855 -0.228166
v -3.417328 0.658855 0.228165
v -3.471600 0.658855 0.228165
v -3.471600 1.177148 0.155437
v -3.471600 1.419653 0.228165
v -3.800317 1.561088 0.069808
v -3.800317 1.735115 0.069808
v -3.800317 1.145357 0.137520
v -3.800317 1.145357 -0.137520
v -3.471600 0.901361 -0.155438
v -3.471600 0.658855 -0.228166
v -3.471600 0.901361 0.155437
v -3.471600 0.658855 0.228165
v -1.798224 1.419653 0.040582
v -3.471600 1.177148 0.155437
v -3.635958 0.917256 0.146479
v -3.471600 0.901361 0.155437
v -3.800317 0.933151 0.137520
v -3.800317 0.916199 0.148506
v -4.573770 1.162310 0.148506
v -4.573770 0.933903 0.137823
v -4.573770 0.916199 0.148506
v -4.989501 0.888765 -0.000000
v -4.573770 0.933903 -0.137823
v -4.573770 0.933903 0.137823
v -1.231638 -0.141949 0.228166
v -0.712289 -1.001863 0.228166
v -0.432137 -0.289092 0.228166
v -1.119829 0.496040 0.228165
v -0.432137 -0.289092 0.228166
v -0.278618 0.496040 0.228165
v -0.432137 -0.289092 -0.228165
v -0.712289 -1.001863 -0.228165
v -0.432137 -0.289092 0.228166
v -0.712289 -1.001863 0.228166
v -0.278618 0.496040 -0.228166
v -0.432137 -0.289092 -0.228165
v -0.278618 0.496040 0.228165
v -0.432137 -0.289092 0.228166
v -4.573770 1.162310 0.148506
v -3.800317 1.162310 0.148506
v -4.573770 0.933903 0.137823
v -4.573770 0.916199 0.148506
v -1.119075 -1.642272 -0.228165
v -0.712289 -1.001863 -0.228165
v -0.712289 -1.001863 0.228166
v -1.119075 -1.642272 0.228166
v -1.470082 -0.707577 0.228166
v -1.119075 -1.642272 0.228166
v -0.712289 -1.001863 0.228166
v -1.835159 -1.200843 0.000000
v -1.119075 -1.642272 -0.228165
v -1.119075 -1.642272 0.228166
v -3.800317 1.162310 0.148506
v -4.573770 0.916199 0.148506
v -3.800317 0.916199 0.148506
v -4.573770 1.162310 0.148506
v -4.989501 1.189743 -0.167348
v -4.989501 0.888765 -0.167348
v -4.989501 1.189743 0.167348
v -4.989501 0.888765 0.167348
v -3.635958 1.576983 0.078767
v -3.635958 1.161253 0.146479
v -3.467908 1.198046 0.078767
v -3.537105 1.232095 0.078767
v -3.471600 0.901361 -0.000000
v -3.635958 0.917256 0.146479
v -3.635958 0.917256 -0.146479
v -3.635958 1.576983 0.078767
v -3.800317 1.735115 0.069808
v -3.800317 1.561088 0.069808
v -3.537105 1.232095 0.078767
v -3.467908 1.372072 0.078767
v -3.537105 1.406122 0.078767
v -3.467908 1.198046 0.078767
v -3.467908 1.372072 0.078767
v -3.467908 1.198046 0.078767
v -3.635958 1.751010 -0.000000
v -3.800317 1.735115 0.069808
v -3.635958 1.751010 0.078767
v -3.635958 1.576983 0.078767
v -3.593122 1.358408 0.078767
v -3.593122 1.532434 0.078767
v -3.635958 1.751010 0.078767
v -3.593122 1.358408 0.078767
v -3.537105 1.406122 0.078767
v -3.593122 1.532434 0.078767
v 1.802789 0.450814 0.228165
v 4.597778 0.804575 0.228165
v 1.866106 0.904073 0.228165
v 1.866106 0.904073 -0.000000
v 1.866106 0.904073 -0.228166
v 1.443392 1.292697 -0.228166
v 1.443392 1.292697 0.228165
v 1.866106 0.904073 0.228165
v 0.690221 0.496040 0.228165
v 1.338366 1.232069 0.228165
v 1.468114 0.496040 0.228165
v 1.866106 0.904073 0.228165
v 1.468114 0.496040 0.228165
v 1.802789 0.450814 0.228165
v 1.866106 0.904073 0.228165
v 1.305299 1.419653 -0.040582
v -0.278618 0.496040 0.228165
v 0.690221 0.496040 0.228165
v 1.305299 1.419653 0.040582
v -1.798224 1.232069 -0.228166
v -3.417328 1.232069 -0.228166
v -3.417328 1.364711 -0.173224
v -1.798224 1.364711 -0.173224
v -3.417328 1.364711 -0.173224
v -3.417328 1.419653 -0.040582
v 1.054203 -0.595605 -0.228165
v 0.857984 0.060857 -0.000000
v 1.044527 -0.792345 -0.228165
v 1.054203 -0.595605 0.000000
v 1.478700 -0.792345 -0.228165
v 1.044527 -0.792345 -0.228165
v 1.054203 -0.595605 -0.228165
v 1.409745 0.033721 -0.228165
v 1.605965 -0.622741 -0.228165
v 1.054203 -0.595605 -0.228165
v -3.417328 1.364711 0.173223
v -3.417328 1.232069 0.228165
v -1.798224 1.232069 0.228165
v -3.417328 1.419653 0.040582
v -3.417328 1.364711 0.173223
v -1.798224 1.364711 0.173223
v 1.054203 -0.595605 0.228166
v 1.044527 -0.792345 0.228166
v -3.417328 0.658855 -0.000000
v -3.417328 0.658855 -0.228166
v -1.798224 0.496040 -0.228166
v -1.798224 0.496040 0.228165
v -3.417328 0.658855 0.228165
v 1.605965 -0.622740 0.000000
v 1.605965 -0.622741 -0.228165
v 1.409745 0.033721 -0.228165
v 1.409745 0.033721 0.228165
v 1.605965 -0.622740 0.228166
v 1.409745 0.033721 0.228165
v 0.857984 0.060857 0.228165
v 1.054203 -0.595605 0.228166
v 1.054203 -0.595605 0.228166
v 1.044527 -0.792345 0.228166
v 1.478700 -0.792345 0.228166
v 1.395752 0.215637 0.228165
v 0.690221 0.161365 0.228165
v 0.857984 0.060857 0.228165
v 1.395752 0.215637 -0.000000
v 1.395752 0.215637 -0.228166
v 1.468114 0.496040 -0.228166
v 1.468114 0.496040 0.228165
v 1.395752 0.215637 0.228165
v 1.409745 0.033721 -0.000000
v 1.409745 0.033721 -0.228165
v 1.395752 0.215637 -0.228166
v 1.395752 0.215637 0.228165
v 1.409745 0.033721 0.228165
v -1.798224 1.232069 -0.228166
v -3.417328 1.364711 -0.173224
v -1.798224 1.364711 -0.173224
v 0.690221 0.161365 -0.228166
v 0.690221 0.496040 -0.228166
v 0.857984 0.060856 -0.228166
v 0.690221 0.161365 -0.228166
v 1.054203 -0.595605 -0.228165
v 0.857984 0.060857 -0.000000
v 0.857984 0.060856 -0.228166
v 1.478700 -0.792345 -0.228165
v 1.044527 -0.792345 -0.228165
v 1.044527 -0.792345 -0.228165
v 1.054203 -0.595605 0.000000
v 1.054203 -0.595605 -0.228165
v 1.409745 0.033721 -0.228165
v 1.054203 -0.595605 -0.228165
v 0.857984 0.060856 -0.228166
v 1.478700 -0.792345 -0.228165
v 1.395752 0.215637 -0.228166
v 0.857984 0.060856 -0.228166
v 0.690221 0.161365 -0.228166
v 1.395752 0.215637 -0.228166
v 0.857984 0.060856 -0.228166
v 0.690221 0.161365 -0.228166
v 0.690221 0.496040 -0.228166
v 1.468114 0.496040 -0.228166
v -1.798224 0.496040 -0.228166
v -1.119829 1.232069 -0.228166
v -1.119829 0.496040 -0.228166
v -3.417328 1.364711 0.173223
v -1.798224 1.232069 0.228165
v -1.798224 1.364711 0.173223
v -3.417328 1.419653 0.040582
v -1.798224 1.364711 0.173223
v -1.798224 1.419653 0.040582
v 0.690221 0.161365 0.228165
v 0.690221 0.496040 0.228165
v 0.857984 0.060857 0.228165
v 0.690221 0.161365 0.228165
v 1.054203 -0.595605 0.228166
v 0.857984 0.060857 0.228165
v 1.478700 -0.792345 0.228166
v 1.044527 -0.792345 0.228166
v 1.044527 -0.792345 0.228166
v 1.054203 -0.595605 0.228166
v -3.417328 1.232069 0.228165
v -3.417328 0.658855 0.228165
v -1.798224 0.496040 0.228165
v -3.417328 0.658855 -0.000000
v -1.798224 0.496040 -0.228166
v -1.798224 0.496040 0.228165
v -1.798224 0.496040 -0.228166
v -1.119829 0.496040 -0.228166
v -1.119829 0.496040 0.228165
v -1.798224 0.496040 0.228165
v 1.478700 -0.792345 -0.228165
v 1.605965 -0.622741 -0.228165
v 1.605965 -0.622740 0.228166
v 1.478700 -0.792345 0.228166
v 1.605965 -0.622740 0.000000
v 1.409745 0.033721 -0.228165
v 1.409745 0.033721 0.228165
v 1.054203 -0.595605 0.228166
v 1.478700 -0.792345 0.228166
v 1.605965 -0.622740 0.228166
v 1.409745 0.033721 0.228165
v 1.395752 0.215637 0.228165
v 0.857984 0.060857 0.228165
v 1.395752 0.215637 -0.000000
v 1.468114 0.496040 -0.228166
v 1.468114 0.496040 0.228165
v 0.690221 0.496040 0.228165
v 1.395752 0.215637 0.228165
v 1.468114 0.496040 0.228165
v 1.409745 0.033721 -0.000000
v 1.395752 0.215637 -0.228166
v 1.395752 0.215637 0.228165
v -3.417328 0.658855 -0.228166
v -3.417328 1.232069 -0.228166
v -1.119829 1.232069 0.228165
v -1.119829 0.496040 0.228165
v -3.417328 1.419653 0.040582
v -1.798224 1.419653 0.040582
v -1.798224 1.364711 -0.173224
v -3.417328 1.419653 -0.040582
v -1.798224 1.419653 -0.040582
v -3.417328 1.419653 -0.040582
v -1.798224 1.419653 -0.040582
v 0.690221 0.496040 0.228165
v 0.690221 0.161365 0.228165
vn -0.0000 0.9239 -0.3827
vn -0.0000 0.3827 -0.9239
vn -0.0000 0.3827 0.9239
vn -0.0692 0.1604 -0.9846
vn -0.0000 -1.0000 -0.0000
vn 0.1079 -0.9942 -0.0000
vn 0.0708 -0.0000 -0.9975
vn 0.1079 0.9942 -0.0000
vn -0.9988 0.0491 -0.0000
vn -1.0000 -0.0000 -0.0000
vn -0.0544 -0.0000 -0.9985
vn 0.9955 -0.0951 -0.0000
vn -0.0000 1.0000 -0.0000
vn -0.0000 -0.0000 -1.0000
vn -0.0000 -0.0000 1.0000
vn 0.6768 0.7362 -0.0000
vn -0.0000 0.9239 0.3827
vn -0.0692 0.1604 0.9846
vn 0.0708 -0.0000 0.9975
vn -0.4415 -0.8973 -0.0000
vn -0.0544 -0.0000 0.9985
vn 0.4415 0.8973 -0.0000
vn 0.0364 0.9993 -0.0000
vn -0.0963 -0.9954 -0.0000
vn 1.0000 -0.0000 -0.0000
vn -0.5248 -0.8513 -0.0000
vn 0.7980 0.5568 -0.2306
vn 0.7980 0.2307 -0.5568
vn -0.1991 0.3449 -0.9173
vn 0.3466 0.8753 -0.3373
vn -0.1339 -0.9910 -0.0000
vn -0.9141 -0.4054 -0.0000
vn -0.0963 0.9954 -0.0000
vn -0.8038 0.5949 -0.0000
vn 0.9141 0.4054 -0.0000
vn 0.9813 0.1923 -0.0000
vn -0.9215 0.3885 -0.0000
vn 0.7980 0.5568 0.2306
vn 0.7980 0.2307 0.5568
vn -0.1991 0.3449 0.9173
vn 0.3466 0.8753 0.3373
vn -0.9581 -0.2864 -0.0000
vn -0.9813 -0.1923 -0.0000
vn -0.9850 0.1726 -0.0000
vn 0.9581 0.2864 -0.0000
vn 0.9814 -0.1919 -0.0000
vn 0.8441 -0.5362 -0.0000
vn -0.1001 -0.9950 -0.0000
vn 0.9683 -0.2499 -0.0000
vn 0.9971 0.0767 -0.0000
vn -0.5139 -0.8578 -0.0000
vn 0.9307 -0.3658 -0.0000
vn -0.3114 -0.9503 -0.0000
vn 0.7999 -0.6002 -0.0000
vn -1.0000 -0.0001 -0.0000
vn -1.0000 0.0001 -0.0000
s 0
usemtl Material.015
f 1//1 2//1 3//1
f 4//2 5//2 6//2
f 7//1 8//1 9//1
f 10//1 11//1 12//1
f 13//2 14//2 15//2
s 1
f 16//2 17//2 18//2
s 0
f 19//1 20//1 21//1
f 385//3 103//3 384//3
f 26//4 27//4 28//4
f 571//5 360//5 361//5
f 491//6 489//6 490//6
f 33//7 34//7 35//7
f 36//8 37//8 38//8
f 43//10 44//10 45//10
f 46//11 47//11 48//11
s 1
f 49//12 50//12 51//12
s 0
f 52//13 53//13 54//13
f 55//11 56//11 57//11
f 58//10 59//10 60//10
f 61//6 62//6 63//6
f 64//14 65//14 66//14
f 67//14 68//14 69//14
f 70//14 71//14 72//14
f 549//15 547//15 548//15
f 75//11 76//11 77//11
f 436//5 433//5 435//5
f 80//14 81//14 82//14
f 83//14 84//14 85//14
f 86//16 87//16 88//16
f 89//16 90//16 91//16
f 92//14 93//14 94//14
f 95//17 96//17 97//17
f 98//3 99//3 100//3
s 1
f 101//3 102//3 103//3
s 0
f 104//17 105//17 106//17
s 1
f 107//17 108//17 109//17
s 0
f 110//3 111//3 112//3
f 113//17 114//17 115//17
f 118//18 119//18 120//18
f 123//19 124//19 125//19
f 73//20 176//20 74//20
f 128//15 129//15 130//15
f 131//10 132//10 133//10
f 134//21 135//21 136//21
f 137//22 138//22 139//22
f 140//22 141//22 137//22
f 142//23 143//23 144//23
f 145//23 146//23 142//23
s 1
f 51//12 147//12 148//12
s 0
f 464//24 465//24 463//24
s 1
f 151//13 152//13 149//13
s 0
f 153//21 154//21 155//21
f 156//25 157//25 158//25
f 159//10 160//10 161//10
f 162//6 163//6 164//6
f 165//15 166//15 167//15
f 168//15 169//15 170//15
f 171//26 172//26 173//26
f 174//26 175//26 171//26
f 177//21 178//21 179//21
f 181//15 182//15 183//15
f 184//15 185//15 186//15
f 90//16 187//16 188//16
f 189//16 190//16 191//16
f 192//15 193//15 194//15
f 195//15 196//15 197//15
f 198//1 199//1 200//1
f 201//2 202//2 203//2
f 204//2 205//2 206//2
f 207//1 208//1 209//1
s 1
f 210//1 211//1 212//1
s 0
f 213//2 214//2 215//2
f 219//1 220//1 221//1
f 222//27 223//27 224//27
f 225//28 226//28 227//28
f 228//29 229//29 230//29
f 231//30 232//30 233//30
f 236//31 237//31 238//31
f 239//32 240//32 241//32
f 242//4 243//4 244//4
f 245//33 246//33 247//33
f 248//34 249//34 250//34
f 253//7 254//7 255//7
f 218//2 16//2 217//2
f 264//14 265//14 266//14
f 267//10 268//10 269//10
f 440//25 258//25 441//25
f 271//11 272//11 273//11
f 322//14 321//14 319//14
f 276//35 277//35 278//35
f 276//35 279//35 280//35
f 281//36 282//36 283//36
f 281//36 284//36 285//36
f 314//10 315//10 508//10
s 1
f 288//13 289//13 290//13
s 0
f 291//24 292//24 293//24
f 291//24 294//24 295//24
f 41//14 39//14 40//14
f 480//13 569//13 298//13
f 308//14 309//14 310//14
f 299//11 300//11 301//11
f 302//25 303//25 304//25
f 305//14 306//14 307//14
f 316//14 317//14 318//14
s 1
f 325//20 326//20 327//20
s 0
f 328//24 329//24 330//24
f 328//24 331//24 332//24
f 333//11 334//11 335//11
f 449//22 447//22 448//22
f 425//37 262//37 261//37
f 342//33 343//33 344//33
f 349//14 350//14 351//14
f 352//14 353//14 354//14
f 355//14 356//14 92//14
f 357//14 358//14 359//14
f 507//13 312//13 506//13
f 362//15 165//15 363//15
f 364//15 562//15 563//15
f 365//17 366//17 367//17
f 368//3 369//3 370//3
f 371//3 372//3 373//3
f 374//17 375//17 376//17
f 377//17 378//17 379//17
f 380//3 381//3 382//3
f 297//10 470//10 471//10
f 386//17 387//17 388//17
f 389//38 390//38 391//38
f 392//39 393//39 394//39
f 395//40 396//40 397//40
f 398//41 399//41 400//41
f 235//43 401//43 402//43
f 237//31 403//31 404//31
f 538//15 539//15 540//15
f 407//32 408//32 409//32
f 410//18 411//18 412//18
f 413//33 414//33 415//33
f 249//34 416//34 417//34
f 420//19 421//19 422//19
f 424//44 259//44 423//44
f 466//5 469//5 467//5
f 427//8 38//8 428//8
f 22//31 116//31 23//31
f 78//33 180//33 79//33
f 437//10 438//10 439//10
f 442//21 443//21 444//21
f 523//15 522//15 520//15
f 406//10 472//10 405//10
f 450//35 452//35 451//35
f 460//13 461//13 462//13
f 149//13 288//13 150//13
f 479//10 476//10 477//10
f 481//21 482//21 483//21
f 486//10 487//10 488//10
f 24//32 117//32 25//32
f 492//15 493//15 494//15
f 495//15 496//15 497//15
f 458//36 456//36 457//36
f 503//46 504//46 505//46
f 345//14 346//14 347//14
f 287//12 459//12 286//12
f 512//47 510//47 511//47
f 514//15 515//15 516//15
f 543//25 340//25 542//25
f 524//10 527//10 526//10
f 485//25 257//25 484//25
s 1
f 326//20 530//20 531//20
s 0
f 431//15 429//15 430//15
f 535//21 536//21 537//21
f 544//33 545//33 546//33
f 551//15 552//15 553//15
f 554//15 555//15 556//15
f 557//16 558//16 559//16
f 560//16 561//16 557//16
f 563//15 564//15 565//15
f 566//15 567//15 568//15
f 324//25 528//25 529//25
f 29//33 121//33 30//33
f 31//34 122//34 32//34
f 519//26 517//26 518//26
f 498//52 501//52 499//52
f 533//24 534//24 532//24
f 275//53 445//53 446//53
f 418//10 252//10 251//10
f 336//14 337//14 338//14
f 263//8 127//8 126//8
f 455//23 453//23 454//23
f 385//3 383//3 103//3
f 571//5 570//5 360//5
f 549//15 550//15 547//15
f 436//5 434//5 433//5
f 218//2 216//2 16//2
f 440//25 270//25 258//25
f 322//14 320//14 321//14
f 314//10 252//10 315//10
f 315//55 509//55 508//55
f 41//14 42//14 39//14
f 480//13 572//13 569//13
f 310//14 355//14 94//14
f 308//14 311//14 309//14
f 310//14 94//14 308//14
f 425//37 426//37 262//37
f 507//13 313//13 312//13
f 364//15 362//15 562//15
f 297//10 296//10 470//10
f 235//43 234//43 401//43
f 538//15 541//15 539//15
f 424//44 260//44 259//44
f 466//5 468//5 469//5
f 523//15 521//15 522//15
f 406//10 475//10 474//10
f 472//10 473//10 405//10
f 406//10 474//10 472//10
f 479//10 478//10 476//10
f 503//46 502//46 504//46
f 345//14 348//14 346//14
f 512//47 513//47 510//47
f 543//25 341//25 340//25
f 524//10 525//10 527//10
f 257//25 258//25 256//25
f 484//25 441//25 485//25
f 257//25 256//25 484//25
f 431//15 432//15 429//15
f 324//25 323//25 528//25
f 498//52 500//52 501//52
f 275//53 274//53 445//53
f 418//56 419//56 252//56
f 336//14 339//14 337//14
usemtl Material_001.001
f 581//9 596//9 582//9
f 672//15 674//15 707//15
f 663//10 629//10 662//10
f 595//42 580//42 579//42
f 651//14 648//14 650//14
f 588//14 587//14 644//14
f 681//5 679//5 680//5
f 688//45 686//45 687//45
f 677//48 675//48 676//48
f 697//49 695//49 696//49
f 689//15 691//15 692//15
f 573//2 574//2 575//2
f 576//1 577//1 578//1
f 583//14 584//14 585//14
f 589//3 590//3 591//3
f 592//17 593//17 594//17
f 597//48 598//48 599//48
f 600//48 601//48 597//48
f 602//45 603//45 604//45
f 605//45 606//45 602//45
f 607//15 608//15 609//15
f 610//15 611//15 612//15
f 613//15 614//15 615//15
f 616//49 617//49 618//49
f 619//49 620//49 616//49
f 621//50 622//50 623//50
f 624//50 625//50 621//50
f 626//2 627//2 628//2
f 669//5 636//5 668//5
s 1
f 665//51 631//51 664//51
s 0
f 633//42 634//42 635//42
f 638//9 639//9 640//9
f 641//14 642//14 643//14
f 645//14 646//14 647//14
f 648//14 586//14 649//14
f 656//3 657//3 658//3
f 659//17 660//17 661//17
f 634//42 666//42 667//42
f 639//9 670//9 671//9
f 703//50 701//50 702//50
f 684//54 682//54 683//54
f 693//15 694//15 692//15
f 698//15 699//15 700//15
f 705//14 655//14 653//14
f 709//13 713//13 708//13
f 710//1 711//1 712//1
f 715//15 716//15 693//15
f 707//15 706//15 672//15
f 672//15 673//15 674//15
f 663//10 630//10 629//10
f 651//14 652//14 648//14
f 588//14 586//14 587//14
f 681//5 678//5 679//5
f 689//15 690//15 691//15
f 669//5 637//5 636//5
s 1
f 665//51 632//51 631//51
s 0
f 684//54 685//54 682//54
f 653//14 704//14 705//14
f 705//14 654//14 655//14
f 709//13 714//13 713//13
